<?xml version="1.0" encoding="UTF-8"?>
<!DOCTYPE svg PUBLIC "-//W3C//DTD SVG 1.1//EN" "http://www.w3.org/Graphics/SVG/1.1/DTD/svg11.dtd">
<!-- Creator: CorelDRAW 2021 (64-Bit) -->
<svg xmlns="http://www.w3.org/2000/svg" xml:space="preserve" width="25.9509mm" height="15.8318mm" version="1.1" style="shape-rendering:geometricPrecision; text-rendering:geometricPrecision; image-rendering:optimizeQuality; fill-rule:evenodd; clip-rule:evenodd"
viewBox="0 0 3024.45 1845.12"
 xmlns:xlink="http://www.w3.org/1999/xlink"
 xmlns:xodm="http://www.corel.com/coreldraw/odm/2003">
 <defs>
  <style type="text/css">
   <![CDATA[
    .fil0 {fill:#A63336}
   ]]>
  </style>
 </defs>
 <g id="Capa_x0020_1">
  <metadata id="CorelCorpID_0Corel-Layer"/>
  <path class="fil0" d="M2696.33 0.31c-21.65,15.35 -950.82,949.34 -1035.94,1034.46 -25.24,25.23 -47.88,47.87 -73.12,73.11 -17,17 -57.49,63.28 -75.04,71.64l-148.86 -147.63c-50.22,-50.21 -97.8,-97.8 -148.01,-148.01 -55.37,-55.36 -870.27,-875.6 -887.24,-883.88 -4.59,13.71 -214.99,218.87 -243.42,247.3 -20.49,20.48 -64.64,69.47 -84.71,82.91l1513.12 1514.91c22.95,-15.05 1301.69,-1300.96 1489.05,-1487.26 9.03,-9 18.75,-14.42 22.28,-27.66l-328.12 -329.89z"/>
 </g>
</svg>
