<?xml version="1.0" encoding="UTF-8"?>
<!DOCTYPE svg PUBLIC "-//W3C//DTD SVG 1.1//EN" "http://www.w3.org/Graphics/SVG/1.1/DTD/svg11.dtd">
<!-- Creator: CorelDRAW 2021 (64-Bit) -->
<svg xmlns="http://www.w3.org/2000/svg" xml:space="preserve" width="55.2974mm" height="12.5021mm" version="1.1" style="shape-rendering:geometricPrecision; text-rendering:geometricPrecision; image-rendering:optimizeQuality; fill-rule:evenodd; clip-rule:evenodd"
viewBox="0 0 2109.65 476.97"
 xmlns:xlink="http://www.w3.org/1999/xlink"
 xmlns:xodm="http://www.corel.com/coreldraw/odm/2003">
 <defs>
  <style type="text/css">
   <![CDATA[
    .str0 {stroke:red;stroke-width:7.63;stroke-linecap:round;stroke-linejoin:round;stroke-miterlimit:22.9256}
    .fil1 {fill:red}
    .fil0 {fill:#FFF200;fill-rule:nonzero}
   ]]>
  </style>
 </defs>
 <g id="Capa_x0020_1">
  <metadata id="CorelCorpID_0Corel-Layer"/>
  <path class="fil0" d="M358.32 130.76c0,35.92 0,71.85 0,107.75 0,35.9 0,71.82 0,107.72 -23.44,0 -46.87,0 -70.31,0 -1.42,0 -2.83,0 -4.09,0 -3.78,0 -6.75,-0.74 -8.81,-2.17 -2.03,-1.41 -2.99,-3.45 -2.99,-6.03 0,-4.3 2.04,-7.16 6.29,-8.55 3.46,-1.13 5.52,-1.81 6.13,-2.11 0.48,-0.24 1.05,-0.89 1.73,-1.84 1.21,-1.69 1.89,-4.35 1.89,-8.02 0,-26.31 0,-52.63 0,-78.95 0,-26.31 0,-52.65 0,-78.99 0,-3.67 -0.65,-6.35 -1.89,-8.08 -0.64,-0.9 -1.23,-1.63 -1.73,-1.84 -0.61,-0.26 -2.67,-0.97 -6.13,-2.1 -4.25,-1.39 -6.29,-4.23 -6.29,-8.56 0,-2.62 0.96,-4.66 2.99,-6.07 2.06,-1.43 5.03,-2.17 8.81,-2.17 1.26,0 2.67,0 4.09,0 23.44,0 46.87,0 70.31,0zm31.62 170.34c0,-20.76 0,-41.52 0,-62.28 0,-20.76 0,-41.52 0,-62.28 0,-7.71 -1.11,-13.79 -3.3,-18.32 -1.42,-2.95 -3,-5.1 -5.03,-6.45 -2.05,-1.37 -5.19,-2.53 -9.44,-3.49 0,-5.82 0,-11.67 0,-17.51 5.51,0 10.23,0.23 14.15,0.65 13.37,1.45 26.27,7.18 38.85,17.02 12.26,9.59 21.51,22.07 27.53,37.42 6.09,15.56 9.28,32.83 9.28,51.78 0,10.75 -1.1,20.9 -2.99,30.41 -1.88,9.52 -4.88,18.48 -8.81,26.81 -7.86,16.64 -19.21,29.76 -33.98,39.35 -7.09,4.6 -13.69,7.81 -19.98,9.5 -6.13,1.65 -14.16,2.53 -24.07,2.53 0,-5.67 0,-11.33 0,-17.02 4.4,-1.19 7.38,-2.25 9.12,-3.18 1.87,-0.99 3.27,-2.45 4.56,-4.41 1.53,-2.33 2.75,-4.94 3.3,-7.82 0.55,-2.87 0.79,-7.15 0.79,-12.7zm177.9 -170.34c0,35.92 0,71.85 0,107.75 0,35.9 0,71.82 0,107.72 -23.44,0 -46.88,0 -70.31,0 -1.42,0 -2.83,0 -4.09,0 -3.78,0 -6.75,-0.74 -8.81,-2.17 -2.03,-1.41 -3.15,-3.45 -3.15,-6.03 0,-4.3 2.21,-7.16 6.45,-8.55 3.46,-1.13 5.49,-1.87 5.98,-2.11 0.61,-0.3 1.21,-0.89 1.88,-1.84 1.21,-1.69 1.89,-4.35 1.89,-8.02 0,-26.31 0,-52.63 0,-78.95 0,-26.31 0,-52.65 0,-78.99 0,-3.67 -0.65,-6.35 -1.89,-8.08 -0.64,-0.9 -1.26,-1.57 -1.88,-1.84 -0.47,-0.2 -2.52,-0.97 -5.98,-2.1 -4.24,-1.39 -6.45,-4.23 -6.45,-8.56 0,-2.62 1.12,-4.66 3.15,-6.07 2.06,-1.43 5.03,-2.17 8.81,-2.17 1.26,0 2.67,0 4.09,0 23.44,0 46.87,0 70.31,0zm13.84 0c21.08,0 42.31,0 63.55,0 0,9.36 0,18.7 0,28.04 0,9.34 0,18.68 0,28.02 0,3.23 -0.63,5.54 -1.89,6.99 -1.26,1.45 -3.15,2.22 -5.98,2.22 -2.36,0 -3.94,-0.48 -5.03,-1.41 -1.11,-0.95 -2.01,-2.9 -2.99,-5.87 -4.05,-12.22 -9.92,-21.52 -17.62,-27.93 -7.7,-6.4 -17.77,-10.28 -30.04,-11.53 0,-6.16 0,-12.34 0,-18.52zm-0.63 115c0,-6.07 0,-12.16 0,-18.25 5.98,-2.96 10.59,-6.15 13.53,-9.63 2.88,-3.41 5.14,-8.06 6.45,-13.88 0.89,-3.96 1.92,-6.72 3.3,-8.31 1.29,-1.47 3.3,-2.24 5.82,-2.24 3.3,0 5.68,1.27 6.92,3.92 0.65,1.4 1.1,4.48 1.1,9.32 0,10.03 0,20.04 0,30.06 0,10.01 0,20.02 0,30.03 0,4.99 -0.63,8.45 -1.73,10.37 -1.09,1.9 -3.15,2.87 -5.98,2.87 -2.36,0 -4.26,-0.76 -5.66,-2.22 -1.42,-1.49 -2.46,-4 -3.3,-7.41 -1.82,-7.34 -4.43,-12.91 -7.71,-16.79 -3.32,-3.93 -7.55,-6.52 -12.74,-7.82zm0.94 100.47c0,-5.69 0,-11.38 0,-17.06 6.76,-1.08 12.45,-2.5 16.99,-4.43 4.42,-1.89 8.92,-4.83 13.37,-8.71 4.51,-3.93 8.16,-7.92 10.85,-12.12 2.66,-4.15 5.28,-9.6 7.71,-16.46 1.19,-3.37 2.41,-5.66 3.62,-6.9 1.15,-1.18 2.99,-1.84 5.19,-1.84 2.83,0 4.94,0.83 6.13,2.6 1.16,1.72 1.73,4.79 1.73,9.09 0,18.61 0,37.22 0,55.83 -21.86,0 -43.73,0 -65.59,0zm175.39 -215.47c0,30.93 0,61.86 0,92.76 0,30.91 0,61.81 0,92.72 0,4.14 0.83,7.02 2.36,8.87 0.82,1 1.58,1.66 2.36,1.95 0.64,0.24 3.12,1.02 7.23,1.99 5.17,1.22 7.71,4.03 7.71,8.67 0,2.73 -1.46,4.89 -4.25,6.61 -1.93,1.19 -5.19,1.9 -9.91,1.9 -1.89,0 -3.62,0 -5.35,0 -23.6,0 -47.03,0 -70.47,0 -1.42,0 -2.83,0 -4.09,0 -3.78,0 -6.75,-0.74 -8.81,-2.17 -2.03,-1.41 -3.14,-3.45 -3.14,-6.03 0,-4.3 2.21,-7.16 6.45,-8.55 3.46,-1.13 5.49,-1.87 5.98,-2.11 0.61,-0.3 1.21,-0.89 1.88,-1.84 1.21,-1.69 1.89,-4.35 1.89,-8.02 0,-26.31 0,-52.63 0,-78.95 0,-26.31 0,-52.65 0,-78.99 0,-3.67 -0.65,-6.35 -1.89,-8.08 -0.64,-0.9 -1.26,-1.57 -1.88,-1.84 -0.47,-0.2 -2.52,-0.97 -5.98,-2.1 -4.24,-1.39 -6.45,-4.23 -6.45,-8.56 0,-2.62 1.11,-4.66 3.14,-6.07 2.06,-1.43 5.03,-2.17 8.81,-2.17 1.26,0 2.67,0 4.09,0 23.44,0 46.87,0 70.31,0zm13.21 132.99c0,-5.6 0,-11.22 0,-16.84 4.56,-1.09 7.7,-2.2 9.59,-3.36 1.87,-1.14 3.51,-2.87 4.88,-5.33 2.25,-4.05 3.3,-9.63 3.3,-16.57 0,-16.89 0,-33.78 0,-50.66 0,-4.95 -0.4,-8.64 -1.1,-11.04 -0.71,-2.44 -2.29,-4.51 -4.56,-6.61 -3.08,-2.85 -7.08,-4.79 -12.27,-5.55 0,-5.67 0,-11.33 0,-17.02 21.71,0 37.61,2.03 47.97,6.16 11.8,4.7 21.24,12.01 28.16,21.79 7.08,10.01 10.54,22.28 10.54,36.82 0,16.21 -3.45,29.53 -10.69,39.8 -7.22,10.22 -17.13,17.8 -30.04,22.6 -10.52,3.91 -25.8,5.83 -45.77,5.83zm188.91 -120.15c-5.35,1.92 -9.19,4.48 -11.48,7.75 -2.26,3.22 -3.3,8.06 -3.3,14.42 0,23.52 0,47.06 0,70.55 0,23.49 0,47.01 0,70.5 0,9.25 1.28,15.76 3.77,19.55 2.06,3.14 5.82,5.42 11.01,6.76 0,5.78 0,11.56 0,17.33 -23.28,-1.88 -42.81,-10.62 -58.67,-26.36 -10.24,-10.17 -18.09,-22.42 -23.12,-36.64 -5.03,-14.22 -7.55,-30.48 -7.55,-48.75 0,-18.3 2.59,-34.86 8.02,-49.63 5.43,-14.78 13.49,-27.35 24.07,-37.62 8.13,-7.9 16.85,-13.87 26.27,-17.98 9.29,-4.06 19.66,-6.41 30.99,-6.97 0,5.71 0,11.4 0,17.09zm13.06 0c0,-5.69 0,-11.38 0,-17.09 11.33,0.56 21.69,2.91 30.99,6.97 9.42,4.11 18.25,10.13 26.27,17.98 10.7,10.48 18.72,22.98 24.07,37.51 5.35,14.54 8.02,31.13 8.02,49.74 0,18.27 -2.67,34.54 -7.71,48.75 -5.03,14.22 -12.77,26.42 -22.97,36.64 -15.76,15.78 -35.39,24.59 -58.67,26.36 0,-5.78 0,-11.56 0,-17.33 2.67,-0.63 4.86,-1.46 6.29,-2.42 1.56,-1.03 3.01,-2.46 4.25,-4.35 2.84,-4.31 4.25,-10.84 4.25,-19.55 0,-23.49 0,-47.01 0,-70.5 0,-23.49 0,-47.03 0,-70.55 0,-5.6 -0.95,-10.01 -2.83,-13.3 -1.26,-2.19 -2.85,-3.97 -4.56,-5.22 -1.74,-1.27 -4.25,-2.48 -7.39,-3.65zm195.21 -12.83c0,30.93 0,61.86 0,92.76 0,30.91 0,61.81 0,92.72 0,4.14 0.83,7.02 2.36,8.87 0.82,1 1.58,1.66 2.36,1.95 0.64,0.24 3.12,1.02 7.24,1.99 5.17,1.22 7.71,4.03 7.71,8.67 0,2.73 -1.42,4.96 -4.09,6.61 -2.04,1.26 -5.35,1.9 -10.06,1.9 -1.89,0 -3.62,0 -5.35,0 -23.6,0 -47.03,0 -70.47,0 -1.42,0 -2.83,0 -4.09,0 -3.78,0 -6.75,-0.74 -8.81,-2.17 -2.03,-1.41 -3.15,-3.45 -3.15,-6.03 0,-4.3 2.21,-7.16 6.45,-8.55 3.46,-1.13 5.49,-1.87 5.97,-2.11 0.61,-0.3 1.21,-0.89 1.89,-1.84 1.21,-1.69 1.89,-4.35 1.89,-8.02 0,-26.31 0,-52.63 0,-78.95 0,-26.31 0,-52.65 0,-78.99 0,-3.67 -0.65,-6.35 -1.89,-8.08 -0.64,-0.9 -1.26,-1.57 -1.89,-1.84 -0.47,-0.2 -2.51,-0.97 -5.97,-2.1 -4.24,-1.39 -6.45,-4.23 -6.45,-8.56 0,-2.62 1.12,-4.66 3.15,-6.07 2.06,-1.43 5.03,-2.17 8.81,-2.17 1.26,0 2.67,0 4.09,0 23.44,0 46.87,0 70.31,0zm48.13 109.99c9.75,1.45 17.15,3.07 22.49,4.9 5.19,1.77 9.9,4.23 14,7.21 4.55,3.31 7.87,7.17 10.22,11.69 2.36,4.52 3.62,9.32 3.62,14.31 0,10.91 0,21.79 0,32.68 0,3.29 1.1,4.97 3.3,4.97 0.79,0 1.53,-0.27 2.04,-0.72 0.59,-0.52 1.45,-1.37 2.52,-2.73 2.7,-3.47 5.19,-5.28 8.02,-5.28 1.73,0 3.5,0.95 5.35,2.87 1.77,1.84 2.67,3.76 2.67,5.64 0,3.23 -1.64,7.17 -4.72,11.85 -3.05,4.64 -6.91,8.92 -11.48,12.54 -4.38,3.47 -9.12,5.95 -14.16,7.48 -5.02,1.53 -11.01,2.26 -17.77,2.26 -14,0 -24.82,-4.02 -32.56,-11.89 -7.83,-7.96 -11.64,-18.95 -11.64,-33.17 0,-8.82 0,-17.65 0,-26.5 0,-5.87 -0.04,-9.26 -0.16,-10.21 -0.51,-4.22 -2,-7.86 -4.4,-10.88 -2.94,-3.69 -7.39,-5.82 -12.9,-6.45 0,-5.62 0,-11.24 0,-16.87 5.51,-0.85 9.62,-2.28 11.95,-4.41 2.07,-1.9 3.45,-4.1 4.25,-6.52 0.77,-2.35 1.26,-5.98 1.26,-10.71 0,-14 0,-28 0,-41.99 0,-6.63 -1.38,-11.61 -3.93,-14.8 -2.64,-3.32 -7.24,-5.87 -14,-7.75 0,-5.82 0,-11.67 0,-17.51 1.26,0 2.67,0 4.09,0 11.8,0 21.71,0.46 29.89,1.26 12.27,1.19 23.1,5.18 32.72,12.05 13.67,9.77 20.61,23.74 20.61,41.84 0,14.85 -4.57,27.03 -13.84,36.5 -3.94,4.02 -8.5,7.26 -13.68,9.79 -5.19,2.53 -13.06,5.4 -23.75,8.56zm209.36 -109.99c0,30.93 0,61.86 0,92.76 0,30.91 0,61.81 0,92.72 0,4.14 0.83,7.02 2.36,8.87 0.82,1 1.59,1.66 2.36,1.95 0.64,0.24 3.12,1.02 7.23,1.99 5.17,1.22 7.71,4.03 7.71,8.67 0,2.73 -1.46,4.89 -4.25,6.61 -1.93,1.19 -5.34,1.9 -10.06,1.9 -1.73,0 -3.46,0 -5.19,0 -23.59,0 -47.03,0 -70.47,0 -1.73,0 -3.46,0 -5.19,0 -4.56,0 -8.17,-0.74 -10.54,-2.17 -2.34,-1.41 -3.46,-3.49 -3.46,-6.34 0,-4.64 2.54,-7.47 7.55,-8.67 4.11,-0.99 6.45,-1.72 7.24,-1.99 0.79,-0.27 1.38,-0.95 2.2,-1.95 1.53,-1.84 2.36,-4.72 2.36,-8.87 0,-30.91 0,-61.81 0,-92.72 0,-30.91 0,-61.84 0,-92.76 23.28,0 46.72,0 70.16,0zm54.58 0c0,10.77 0,21.54 0,32.29 0,10.75 0,21.52 0,32.27 0,3 -0.96,5.41 -2.67,7.26 -1.74,1.87 -3.93,2.8 -6.61,2.8 -2.67,0 -4.88,-0.85 -6.61,-2.58 -1.73,-1.72 -2.77,-4.15 -3.3,-7.17 -0.56,-3.19 -1.07,-6.39 -1.58,-9.58 -1.54,-9.75 -4.67,-18.22 -9.12,-25.31 -2.78,-4.44 -6.61,-8.02 -11.48,-10.82 0,-6.38 0,-12.77 0,-19.17 13.68,0 27.53,0 41.37,0zm-179 0c13.68,0 27.53,0 41.37,0 0,6.41 0,12.79 0,19.17 -4.88,2.8 -8.74,6.45 -11.48,10.82 -4.49,7.16 -7.47,15.58 -9.13,25.31 -0.55,3.21 -1.09,6.41 -1.57,9.58 -0.46,3.03 -1.61,5.41 -3.46,7.17 -1.77,1.68 -3.77,2.58 -6.45,2.58 -2.67,0 -5.02,-0.93 -6.76,-2.8 -1.72,-1.85 -2.52,-4.25 -2.52,-7.26 0,-10.75 0,-21.52 0,-32.27 0,-10.75 0,-21.52 0,-32.29zm284.55 0c0,35.92 0,71.85 0,107.75 0,35.9 0,71.82 0,107.72 -23.44,0 -46.88,0 -70.31,0 -1.42,0 -2.83,0 -4.09,0 -3.77,0 -6.75,-0.74 -8.81,-2.17 -2.03,-1.41 -2.99,-3.45 -2.99,-6.03 0,-4.3 2.05,-7.16 6.29,-8.55 3.46,-1.13 5.52,-1.81 6.13,-2.11 0.48,-0.24 1.06,-0.89 1.73,-1.84 1.21,-1.69 1.88,-4.35 1.88,-8.02 0,-26.31 0,-52.63 0,-78.95 0,-26.31 0,-52.65 0,-78.99 0,-3.67 -0.65,-6.35 -1.88,-8.08 -0.64,-0.9 -1.23,-1.63 -1.73,-1.84 -0.61,-0.26 -2.67,-0.97 -6.13,-2.1 -4.24,-1.39 -6.29,-4.23 -6.29,-8.56 0,-2.62 0.96,-4.66 2.99,-6.07 2.06,-1.43 5.04,-2.17 8.81,-2.17 1.26,0 2.67,0 4.09,0 23.44,0 46.88,0 70.31,0zm13.84 0c21.23,0 42.47,0 63.7,0 0,9.36 0,18.7 0,28.04 0,9.34 0,18.68 0,28.02 0,3.23 -0.58,5.57 -1.88,6.99 -1.37,1.5 -3.3,2.22 -6.13,2.22 -2.21,0 -3.98,-0.44 -5.04,-1.41 -0.99,-0.91 -2.03,-2.9 -2.99,-5.87 -3.92,-12.21 -9.92,-21.52 -17.62,-27.93 -7.7,-6.4 -17.77,-10.28 -30.04,-11.53 0,-6.16 0,-12.34 0,-18.52zm-0.63 115c0,-6.07 0,-12.16 0,-18.25 6.13,-2.96 10.54,-6.19 13.53,-9.63 2.99,-3.45 5.14,-8.06 6.45,-13.88 0.89,-3.96 1.87,-6.76 3.3,-8.31 1.4,-1.51 3.3,-2.24 5.82,-2.24 3.3,0 5.6,1.3 6.92,3.92 0.72,1.44 1.1,4.48 1.1,9.32 0,10.03 0,20.04 0,30.06 0,10.01 0,20.02 0,30.03 0,4.99 -0.47,8.45 -1.58,10.37 -1.09,1.9 -3.14,2.87 -6.13,2.87 -2.36,0 -4.26,-0.76 -5.66,-2.22 -1.42,-1.49 -2.45,-3.96 -3.3,-7.41 -1.82,-7.3 -4.36,-12.83 -7.71,-16.79 -3.25,-3.85 -7.55,-6.52 -12.74,-7.82zm0.95 100.47c0,-5.69 0,-11.38 0,-17.06 6.92,-1.08 12.59,-2.52 16.98,-4.43 4.41,-1.92 8.99,-4.75 13.53,-8.71 4.42,-3.85 8.01,-7.92 10.7,-12.12 2.66,-4.15 5.39,-9.62 7.71,-16.46 1.14,-3.39 2.37,-5.7 3.62,-6.9 1.27,-1.22 2.99,-1.84 5.19,-1.84 2.99,0 5.04,0.87 6.13,2.6 1.11,1.76 1.73,4.79 1.73,9.09 0,18.61 0,37.22 0,55.83 -21.86,0 -43.72,0 -65.59,0zm161.86 -219.73c0,6.07 0,12.14 0,18.21 -6.6,1.77 -11.48,4.54 -14.94,8.29 -3.45,3.73 -5.19,8.36 -5.19,13.8 0,5.26 1.41,9.86 4.25,13.82 2.82,3.94 7.55,7.71 14,11.27 4.4,2.42 14.47,7.08 30.04,13.88 9.43,4.12 16.82,7.84 22.02,11.16 5.17,3.29 10.06,7.42 14.78,12.38 12.41,13.02 18.72,28.51 18.72,46.56 0,13.57 -3.46,25.94 -10.22,37.2 -6.76,11.25 -15.85,20.22 -27.69,26.54 -6.4,3.42 -13.37,6.02 -20.92,7.97 -7.39,1.92 -14.47,2.89 -21.08,2.89 0,-5.98 0,-11.96 0,-17.96 9.12,-2.22 15.75,-5.27 19.82,-9.21 4.11,-3.97 6.13,-9.32 6.13,-16.06 0,-7.05 -3.28,-13.27 -9.59,-18.63 -4.06,-3.45 -12.12,-7.79 -23.91,-12.92 -13.06,-5.68 -21.88,-9.71 -26.74,-12.16 -4.73,-2.38 -9.41,-5.31 -13.84,-8.49 -9.88,-7.09 -17.46,-15.27 -22.33,-24.66 -4.88,-9.39 -7.39,-19.98 -7.39,-31.71 0,-12.01 2.6,-23.06 7.55,-33.21 4.95,-10.15 11.78,-18.39 20.61,-24.57 12.41,-8.69 27.69,-13.46 45.93,-14.38zm12.27 18.21c0,-5.8 0,-11.62 0,-17.45 6.29,0.43 11.79,1.27 16.36,2.49 4.55,1.22 11.16,3.64 19.82,7.21 2.03,0.84 3.78,1.23 5.03,1.23 2.21,0 3.61,-0.71 4.56,-2.04 1.09,-1.51 2.29,-2.94 3.46,-4.52 1.66,-2.24 3.78,-3.45 6.13,-3.45 2.83,0 4.93,1 6.29,3.07 1.31,2 1.89,5.28 1.89,9.63 0,17.42 0,34.83 0,52.23 0,3.02 -0.74,5.53 -2.52,7.44 -1.84,1.97 -4.09,2.91 -6.76,2.91 -2.04,0 -4.13,-0.67 -5.82,-2.06 -0.98,-0.8 -1.81,-1.85 -2.36,-3.07 -0.54,-1.2 -1.02,-3.24 -1.57,-6.07 -1.01,-5.19 -3.23,-10.54 -5.98,-15.99 -2.76,-5.47 -6.28,-10.35 -10.06,-14.65 -7.54,-8.56 -16.99,-14.15 -28.47,-16.91zm-20.45 187.79c0,6 0,11.98 0,17.96 -8.49,0 -18.06,-2.51 -28.47,-7.41 -3.91,-1.84 -6.61,-2.98 -8.02,-3.45 -1.57,-0.53 -2.99,-0.8 -4.25,-0.8 -2.21,0 -3.75,0.36 -4.72,1.03 -1.07,0.74 -2.83,2.42 -5.04,5.15 -1.88,2.33 -3.93,3.52 -6.13,3.52 -5.97,0 -8.97,-4.52 -8.97,-13.64 0,-9.56 0,-19.13 0,-28.69 0,-9.56 0,-19.13 0,-28.69 0,-2.96 1,-5.4 2.67,-7.48 1.63,-2.02 3.62,-3.12 6.29,-3.23 2.21,-0.09 4.09,0.55 5.35,1.97 1.25,1.42 2.52,3.9 3.46,7.5 2.36,9.03 5.78,17.52 10.38,25.36 4.67,7.93 9.98,14.51 16.04,20.02 6.2,5.63 13.37,9.32 21.39,10.88z"/>
  <polygon class="fil1 str0" points="137.41,3.81 247.18,3.81 113.58,473.16 3.82,473.16 "/>
  <polygon class="fil1 str0" points="1996.07,3.81 2105.83,3.81 1972.23,473.16 1862.47,473.16 "/>
 </g>
</svg>
