<?xml version="1.0" encoding="UTF-8"?>
<!DOCTYPE svg PUBLIC "-//W3C//DTD SVG 1.1//EN" "http://www.w3.org/Graphics/SVG/1.1/DTD/svg11.dtd">
<!-- Creator: CorelDRAW 2021 (64-Bit) -->
<svg xmlns="http://www.w3.org/2000/svg" xml:space="preserve" width="10.3754mm" height="12.4051mm" version="1.1" style="shape-rendering:geometricPrecision; text-rendering:geometricPrecision; image-rendering:optimizeQuality; fill-rule:evenodd; clip-rule:evenodd"
viewBox="0 0 327.12 391.12"
 xmlns:xlink="http://www.w3.org/1999/xlink"
 xmlns:xodm="http://www.corel.com/coreldraw/odm/2003">
 <defs>
  <style type="text/css">
   <![CDATA[
    .str0 {stroke:#E3D800;stroke-width:6.31;stroke-linecap:round;stroke-linejoin:round;stroke-miterlimit:22.9256}
    .fil2 {fill:none}
    .fil1 {fill:#E3D800}
    .fil0 {fill:red}
   ]]>
  </style>
   <clipPath id="id0">
    <path d="M163.56 109.52c58.7,0 110.18,-161.1 139.04,-91.68 15.55,37.4 24.53,81.55 24.53,128.82 0,135.01 -73.23,244.46 -163.56,244.46 -90.33,0 -163.56,-109.45 -163.56,-244.46 0,-47.55 9.09,-91.94 24.8,-129.48 28.91,-69.05 80.25,92.34 138.76,92.34z"/>
   </clipPath>
 </defs>
 <g id="Capa_x0020_1">
  <metadata id="CorelCorpID_0Corel-Layer"/>
  <path class="fil0" d="M163.56 109.52c58.7,0 110.18,-161.1 139.04,-91.68 15.55,37.4 24.53,81.55 24.53,128.82 0,135.01 -73.23,244.46 -163.56,244.46 -90.33,0 -163.56,-109.45 -163.56,-244.46 0,-47.55 9.09,-91.94 24.8,-129.48 28.91,-69.05 80.25,92.34 138.76,92.34z"/>
  <g style="clip-path:url(#id0)">
   <g id="_2354769194160">
    <polygon id="_1" class="fil1 str0" points="22.25,-172.89 75.08,-193.49 212.51,594 159.68,614.6 "/>
    <polygon class="fil1 str0" points="137.87,-200.09 190.7,-220.69 328.13,566.8 275.3,587.4 "/>
   </g>
  </g>
  <path class="fil2" d="M163.56 109.52c58.7,0 110.18,-161.1 139.04,-91.68 15.55,37.4 24.53,81.55 24.53,128.82 0,135.01 -73.23,244.46 -163.56,244.46 -90.33,0 -163.56,-109.45 -163.56,-244.46 0,-47.55 9.09,-91.94 24.8,-129.48 28.91,-69.05 80.25,92.34 138.76,92.34z"/>
 </g>
</svg>
