<?xml version="1.0" encoding="UTF-8"?>
<!DOCTYPE svg PUBLIC "-//W3C//DTD SVG 1.1//EN" "http://www.w3.org/Graphics/SVG/1.1/DTD/svg11.dtd">
<!-- Creator: CorelDRAW 2021 (64-Bit) -->
<svg xmlns="http://www.w3.org/2000/svg" xml:space="preserve" width="25.9508mm" height="15.8317mm" version="1.1" style="shape-rendering:geometricPrecision; text-rendering:geometricPrecision; image-rendering:optimizeQuality; fill-rule:evenodd; clip-rule:evenodd"
viewBox="0 0 147.4 89.93"
 xmlns:xlink="http://www.w3.org/1999/xlink"
 xmlns:xodm="http://www.corel.com/coreldraw/odm/2003">
 <defs>
  <style type="text/css">
   <![CDATA[
    .fil0 {fill:#A1A1A1}
   ]]>
  </style>
 </defs>
 <g id="Capa_x0020_1">
  <metadata id="CorelCorpID_0Corel-Layer"/>
  <g id="_1515296369888">
   <path class="fil0" d="M131.41 0.02c-1.06,0.75 -46.34,46.27 -50.49,50.42 -1.23,1.23 -2.33,2.33 -3.56,3.56 -0.83,0.83 -2.8,3.08 -3.66,3.49l-7.25 -7.19c-2.45,-2.45 -4.77,-4.77 -7.21,-7.21 -2.7,-2.7 -42.41,-42.67 -43.24,-43.08 -0.22,0.67 -10.48,10.67 -11.86,12.05 -1,1 -3.15,3.39 -4.13,4.04l73.74 73.83c1.12,-0.73 63.44,-63.4 72.57,-72.48 0.44,-0.44 0.91,-0.7 1.09,-1.35l-15.99 -16.08z"/>
  </g>
 </g>
</svg>
