<?xml version="1.0" encoding="UTF-8"?>
<!DOCTYPE svg PUBLIC "-//W3C//DTD SVG 1.1//EN" "http://www.w3.org/Graphics/SVG/1.1/DTD/svg11.dtd">
<!-- Creator: CorelDRAW 2021 (64-Bit) -->
<svg xmlns="http://www.w3.org/2000/svg" xml:space="preserve" width="76.7104mm" height="49.4067mm" version="1.1" style="shape-rendering:geometricPrecision; text-rendering:geometricPrecision; image-rendering:optimizeQuality; fill-rule:evenodd; clip-rule:evenodd"
viewBox="0 0 473.08 304.69"
 xmlns:xlink="http://www.w3.org/1999/xlink"
 xmlns:xodm="http://www.corel.com/coreldraw/odm/2003">
 <defs>
  <style type="text/css">
   <![CDATA[
    .fil0 {fill:black}
   ]]>
  </style>
 </defs>
 <g id="Capa_x0020_1">
  <metadata id="CorelCorpID_0Corel-Layer"/>
  <path class="fil0" d="M339.94 59.79c34.62,12.62 79.47,59.71 99.26,91.77 -7.95,23.44 -53.96,64.76 -77.76,80.69 -77.11,51.63 -172.12,51.58 -249.02,0.67 -26.63,-17.63 -64.83,-53.18 -79.02,-81.36 11.97,-14.73 26.54,-38.2 42.68,-52.37 14.25,-12.51 35.89,-29.92 56.78,-39.21 -17.71,43.38 -22.76,79.95 3.21,120.97 47.82,75.51 153.74,72.97 199.85,1.72 27.32,-42.22 22.55,-77.52 4.01,-122.88zm-120.24 -20.11c12.32,-2.83 32.42,-3.08 29.48,13.06 -2.45,13.47 -19.05,10 -31.46,14.01 -10.41,3.36 -21.04,13.11 -26.87,20.87 -10.81,14.43 -5.31,23.36 -10.43,35.4 -8.95,21.02 -39.55,3.3 -14.62,-42.92 9.93,-18.41 27.5,-34.37 53.91,-40.43zm-219.01 120.58c6.56,29.29 61.96,81.04 92.56,100.54 96.2,61.31 201.37,57.46 295.46,-5.69 14.75,-9.9 40.99,-32.53 51.7,-46.21 35.48,-45.3 45.02,-53.41 13.87,-95.97 -48.34,-66.07 -135.26,-116.16 -225.68,-112.77 -76.45,2.87 -156.54,44.81 -196.41,96.42 -9.62,12.45 -36.82,39.96 -31.5,63.68z"/>
 </g>
</svg>
