<?xml version="1.0" encoding="UTF-8"?>
<!DOCTYPE svg PUBLIC "-//W3C//DTD SVG 1.1//EN" "http://www.w3.org/Graphics/SVG/1.1/DTD/svg11.dtd">
<!-- Creator: CorelDRAW 2021 (64-Bit) -->
<svg xmlns="http://www.w3.org/2000/svg" xml:space="preserve" width="55.9544mm" height="49.604mm" version="1.1" style="shape-rendering:geometricPrecision; text-rendering:geometricPrecision; image-rendering:optimizeQuality; fill-rule:evenodd; clip-rule:evenodd"
viewBox="0 0 218.76 193.93"
 xmlns:xlink="http://www.w3.org/1999/xlink"
 xmlns:xodm="http://www.corel.com/coreldraw/odm/2003">
 <defs>
  <style type="text/css">
   <![CDATA[
    .fil0 {fill:black}
   ]]>
  </style>
 </defs>
 <g id="Capa_x0020_1">
  <metadata id="CorelCorpID_0Corel-Layer"/>
  <path class="fil0" d="M109.2 163.48l-19.44 -16.64c-0.74,-0.72 -0.91,-0.72 -1.64,-1.34 -2.91,-2.45 -5.67,-5.23 -9.04,-7.85 -4.7,-3.66 -15.91,-13.71 -20.6,-18.46 -1.1,-1.11 -1.9,-1.55 -2.99,-2.64l-10.88 -11.63c-3.66,-4.53 -6.8,-7.53 -9.87,-12.64 -5.2,-8.65 -8.62,-16.18 -8.62,-27.46 0,-10.21 4.76,-21.77 9.85,-26.89 3.31,-3.33 0.35,-0.8 4.82,-4.45 8.31,-6.78 19.39,-9.1 29.81,-5.86 3.45,1.08 8.1,3.85 10.73,6.16 3.89,3.41 7.37,7.65 9.99,12.19 4.32,7.47 6.08,22.16 17.23,22.16 13.31,0 12.24,-9.96 18.52,-20.87 3.59,-6.24 7.07,-11.11 12.93,-15.54 10.57,-7.99 24.48,-6.99 35.61,-0.19 4.51,2.75 8.95,7.73 11.5,12.33 9.11,16.42 6.03,34.79 -3.75,49.43 -2.45,3.67 -7.51,10.36 -10.68,13.48 -0.89,0.88 -1.05,1.28 -1.82,2.15l-10.01 9.85c-1.57,1.2 -2.47,2.47 -4.16,3.78 -1.61,1.24 -2.54,2.6 -4.03,3.91 -0.83,0.73 -1.29,1.02 -2.15,1.82l-36.58 31.61c-0.73,0.65 -1.38,1.14 -2.17,1.81 -1.08,0.91 -1.6,1.51 -2.55,1.76zm109.57 -99.74l0 4.95c-0.15,4.5 -0.71,8.9 -1.72,12.97 -2.22,9 -6.26,17.5 -11.13,25.28l-11.23 14.58c-9.55,10.72 -23.88,24.55 -35.55,33.96l-35.18 30.36c-4.13,3.22 -8.49,8.08 -14.43,8.08 -6.86,0 -10.78,-4.89 -14.66,-8.18 -0.73,-0.62 -0.91,-0.62 -1.64,-1.34l-4.62 -3.98c-1.06,-0.95 -1.94,-1.67 -2.99,-2.64l-24.55 -21.13c-1.28,-0.99 -1.75,-1.6 -3.03,-2.6l-10.35 -9.84c-4.39,-3.5 -9.38,-9.8 -12.96,-12.53 -1.82,-1.39 -9.21,-9.06 -11.5,-11.34 -2.11,-2.1 -3.26,-3.87 -5.12,-6.13 -1.73,-2.09 -3.09,-4.34 -4.62,-6.63 -1.6,-2.4 -3.05,-4.5 -4.46,-7.13 -1.4,-2.6 -2.4,-4.85 -3.64,-7.62 -4.71,-10.54 -6.68,-28.23 -4.45,-39.31 3.09,-15.32 9.5,-28.69 21.45,-38.79 0.58,-0.49 0.8,-0.8 1.37,-1.27 14.98,-12.18 34.72,-16.51 53.56,-11.09 7.96,2.29 12.34,4.81 18.32,9.48 4.08,3.19 11.19,9.74 13.57,14.23 1.23,-0.9 7.39,-10.91 19.13,-17.94 16.95,-10.14 37.11,-10.9 55.01,-1.92 15.34,7.69 24.68,18.53 30.88,34.33 2.71,6.9 4.27,15.06 4.53,23.17z"/>
 </g>
</svg>
