<?xml version="1.0" encoding="UTF-8"?>
<!DOCTYPE svg PUBLIC "-//W3C//DTD SVG 1.1//EN" "http://www.w3.org/Graphics/SVG/1.1/DTD/svg11.dtd">
<!-- Creator: CorelDRAW 2021 (64-Bit) -->
<svg xmlns="http://www.w3.org/2000/svg" xml:space="preserve" width="232.81mm" height="33.0619mm" version="1.1" style="shape-rendering:geometricPrecision; text-rendering:geometricPrecision; image-rendering:optimizeQuality; fill-rule:evenodd; clip-rule:evenodd"
viewBox="0 0 15381.7 2184.39"
 xmlns:xlink="http://www.w3.org/1999/xlink"
 xmlns:xodm="http://www.corel.com/coreldraw/odm/2003">
 <defs>
  <style type="text/css">
   <![CDATA[
    .fil2 {fill:#84DC15}
    .fil1 {fill:white}
    .fil0 {fill:white;fill-rule:nonzero}
   ]]>
  </style>
 </defs>
 <g id="Capa_x0020_1">
  <metadata id="CorelCorpID_0Corel-Layer"/>
  <path class="fil0" d="M2686.78 1639.61l-167.33 -137.08 0 -820.67 167.33 -137.07 750.82 0 167.34 137.07 0 137.08 -750.82 0 0 546.53 416.17 0 0 -137.08 -248.85 0 0 -274.14 416.17 0 167.34 137.08 0 411.21 -167.34 137.08 -750.82 0zm1402.96 -548.29l-418.31 -546.53 334.65 0 249.92 326.86 234.9 -326.86 323.92 0 -390.43 546.53 0 548.29 -334.66 0 0 -548.29zm795.87 -546.53l306.78 0 403.3 834.73 403.29 -834.73 306.78 0 0 1094.82 -334.66 0 0 -404.19 -195.22 404.19 -360.39 0 -195.22 -404.19 0 404.19 -334.66 0 0 -1094.82zm1881.35 0l250.99 657.24 165.19 -657.24 306.76 0 156.6 613.31 233.83 -613.31 343.23 0 -418.32 1094.82 -343.22 0 -124.42 -493.81 -126.57 493.81 -388.29 0 -418.31 -1094.82 362.54 0zm1885.64 376.07l-274.59 716.99 -323.93 0 418.32 -1093.06 360.39 0 418.32 1093.06 -323.93 0 -274.59 -716.99zm1012.53 -101.93l0 135.31 416.18 0 0 -135.31 -416.18 0zm0 409.45l0 411.22 -334.65 0 0 -1094.82 918.15 0 167.33 137.07 0 409.46 -167.33 137.07 -124.42 0 291.75 411.22 -334.65 0 -291.76 -411.22 -124.42 0zm896.7 411.22l0 -1094.82 1085.47 0 0 274.14 -750.82 0 0 137.07 750.82 0 0 274.14 -750.82 0 0 135.32 750.82 0 0 274.14 -1085.47 0zm1563.86 -820.67l0 135.31 585.64 0 167.33 137.08 0 411.21 -167.33 137.08 -920.29 0 0 -274.14 752.97 0 0 -137.08 -585.64 0 -167.33 -137.07 0 -409.46 167.33 -137.07 920.29 0 0 274.14 -752.96 0z"/>
  <polygon class="fil1" points="1660.5,885.43 2325.63,885.43 2325.63,1298.96 1660.5,1298.96 "/>
  <polygon class="fil1" points="13721.21,885.43 13056.08,885.43 13056.08,1298.96 13721.21,1298.96 "/>
  <path class="fil2" d="M1092.67 285.8c-14.67,-363.28 446.16,-398.42 450.9,0l0 1643.63c-14.44,328.11 -426.74,351.56 -450.9,0l0 -1643.63z"/>
  <path class="fil2" d="M14289.04 285.8c14.67,-363.28 -446.16,-398.42 -450.9,0l0 1643.63c14.44,328.11 426.74,351.56 450.9,0l0 -1643.63z"/>
  <path class="fil2" d="M533.98 550.12c-14.07,-244.21 428.01,-267.83 432.56,0l0 1104.88c-13.85,220.57 -409.38,236.33 -432.56,0l0 -1104.88z"/>
  <path class="fil2" d="M14847.73 550.12c14.07,-244.21 -428.01,-267.83 -432.56,0l0 1104.88c13.85,220.57 409.38,236.33 432.56,0l0 -1104.88z"/>
  <path class="fil2" d="M0.3 814.44c-12.66,-125.13 385.11,-137.23 389.2,0l0 566.14c-12.46,113.01 -368.35,121.09 -389.2,0l0 -566.14z"/>
  <path class="fil2" d="M15381.4 814.44c12.66,-125.13 -385.11,-137.23 -389.2,0l0 566.14c12.46,113.01 368.35,121.09 389.2,0l0 -566.14z"/>
 </g>
</svg>
