<?xml version="1.0" encoding="UTF-8"?>
<!DOCTYPE svg PUBLIC "-//W3C//DTD SVG 1.1//EN" "http://www.w3.org/Graphics/SVG/1.1/DTD/svg11.dtd">
<!-- Creator: CorelDRAW 2021 (64-Bit) -->
<svg xmlns="http://www.w3.org/2000/svg" xml:space="preserve" width="141.309mm" height="146.897mm" version="1.1" style="shape-rendering:geometricPrecision; text-rendering:geometricPrecision; image-rendering:optimizeQuality; fill-rule:evenodd; clip-rule:evenodd"
viewBox="0 0 3989.39 4147.14"
 xmlns:xlink="http://www.w3.org/1999/xlink"
 xmlns:xodm="http://www.corel.com/coreldraw/odm/2003">
 <defs>
  <style type="text/css">
   <![CDATA[
    .fil0 {fill:white}
   ]]>
  </style>
 </defs>
 <g id="Capa_x0020_1">
  <metadata id="CorelCorpID_0Corel-Layer"/>
  <g id="_1515139190608">
   <path class="fil0" d="M-0 3891.38l0 1.46c0.04,30.53 1.36,57.69 2.31,89.45 0.34,11.46 1.95,10.93 2.47,21.43 2.46,49.4 6.88,84.56 47.22,117.71 19.29,15.85 40.79,23.86 62.25,25.72l19.9 0c58.81,-5 112.04,-53.37 112.04,-109.95 0,-54.74 -4.78,-109.2 -4.78,-164.93 0,-136.97 22.57,-264.05 49.71,-373.37 53.1,-213.81 148.84,-397.23 277.07,-569.09 22.19,-29.74 45.42,-60.14 70.58,-87.18 42.52,-45.69 84.56,-92.52 131.48,-133.85 18.75,-16.52 35.56,-34.26 55.4,-49.77 10.7,-8.36 18.25,-15.08 29.03,-23.55 10.54,-8.28 19.01,-15.06 29.16,-23.42 39.3,-32.34 82.72,-59.8 124.87,-87.86 64.42,-42.89 133.78,-78.14 203.19,-112.33 72.42,-35.68 150.38,-67.34 228.42,-89.48 55.75,-15.82 111.4,-32.84 168.53,-44.21 382.38,-76.12 752.19,-43.57 1091.15,98.81 25.18,10.58 49.39,20.98 72.68,32.49 11.76,5.81 24.15,10.83 35.89,16.7l102.66 55.09c88.34,50.55 169.46,110.81 248.37,174.71l150.36 141.26c5.37,5.8 6.19,8.53 11.87,14.42l37.22 41.66c5.06,5.99 6.96,7.27 12.26,14.04l23.64 28.95c39.91,49.29 76.7,100.38 110.21,155.11 7.12,11.63 13.08,20.97 20.07,32.52 75.54,124.82 135.45,264.65 172.05,411.17 37.82,151.41 50.68,270.54 50.68,429.77 0,11.55 0.66,23.83 -1.01,34.85 -10.06,66.38 40.6,139.65 108.57,139.65 30.41,0 56.06,-3.37 79.62,-20.77 16.44,-12.14 27.03,-23.56 37.04,-41.84 9.66,-17.63 15,-37.39 14.83,-64.05 -0.18,-28.75 2.36,-49.35 2.36,-78.91 0,-217.71 -49.28,-496.03 -139.45,-697.15 -70.73,-157.75 -98.22,-207.73 -191.35,-348.85l-51.31 -70.59c-9.16,-11.45 -17.18,-21.98 -26.31,-33.45l-96.5 -111.45c-5.78,-5.71 -9.8,-9.76 -15.56,-15.52 -20.9,-20.9 -40.05,-40.05 -60.95,-60.95 -25.09,-25.09 -52.08,-46.13 -77.68,-70.51 -85.21,-81.15 -267.03,-198.66 -376.71,-254.33 -40.44,-20.53 -80.21,-41.64 -122.44,-59.23 -28.77,-11.99 -55.03,-24.52 -84.41,-35.11 -154.08,-55.54 -311.74,-103.33 -478.33,-121.63 -202.42,-22.23 -342.7,-23.19 -545.19,-0.2 -67.65,7.68 -137.08,20.11 -202.51,36.51 -32.16,8.07 -62.64,15.25 -95.04,24.48 -91.35,26.01 -179.42,58.39 -265.69,95.24 -160.46,68.54 -313.61,161.95 -448.4,271.08 -44.29,35.86 -88.64,72.22 -128.92,112.5l-102.83 105.12c-6.27,6.51 -7.74,10.21 -14.28,16.79 -6.35,6.38 -7.65,9.26 -13.2,15.49l-14.34 16.73c-65.04,73.01 -124.4,159.59 -174.94,243.36 -15.01,24.88 -29.62,50.35 -43.1,76.41l-41.48 80.42c-52.86,104.87 -97.52,239.83 -126.36,354.09 -15.19,60.21 -47.5,236.23 -47.29,311.25l-2.4 57.36c0.11,21.45 -2.41,36.41 -2.41,59.74z"/>
   <path class="fil0" d="M1329 886.79c0,-94.15 6.84,-155.99 40.97,-241.08 12.88,-32.11 34.66,-75.11 53.65,-104.11 23.24,-35.48 58.89,-79.59 88.79,-109.6 55.2,-55.39 144.9,-112.39 215.38,-140.77 192.55,-77.51 400.83,-68.28 584.4,23.48 33.09,16.54 68.08,38.61 97.58,60.18 21.03,15.38 68.14,56.04 83.87,73.89 30.82,35 59.8,71.6 84.12,111.88 46.39,76.8 82.61,187.3 82.61,275.93 0,126.75 -11.56,192.02 -64.52,298.8 -8.23,16.59 -18.22,32.2 -27.93,48.56 -9.84,16.57 -21.15,31.09 -32.52,46.36 -6.35,8.53 -10.52,12.81 -17.06,21.18l-58.39 61.12c-52.73,42.07 -96.72,80.13 -162.93,109.57 -191.59,85.2 -381.22,90.25 -576.4,12.35 -10.08,-4.02 -17.11,-8.28 -26.26,-11.98 -10.26,-4.15 -16.53,-7.29 -25.5,-12.75 -8.51,-5.19 -16.28,-8.24 -24.84,-13.4 -62.15,-37.5 -63.63,-43.08 -114.61,-83.79 -44.24,-35.32 -108.8,-122.57 -135.91,-177.22 -30.96,-62.41 -64.52,-155.8 -64.52,-248.61zm-241.42 -33.47c0,119.01 15.96,194.41 51.07,297.92 29.9,88.16 83.54,172.07 140.14,244.7 8.27,10.62 16.33,19.12 25.74,29.24 58.26,62.62 75.83,78.96 145.68,131.59 11.18,8.42 20.9,14.35 32.73,22.25 253.25,169.07 600.08,197.6 876.95,78.12l55.96 -25.31c7.89,-3.95 10.85,-6.45 18.26,-10.43 25.08,-13.46 46.38,-24.98 69.49,-40.46 136.51,-91.42 236.83,-198.19 312.18,-347.54 3.38,-6.69 4.82,-10.02 8.17,-18.12 3.29,-7.96 5.95,-11.78 9.25,-19.43 97.56,-225.84 91.61,-492.45 -21.86,-708.58l-28.9 -52.37c-21.26,-35.53 -50.21,-76.95 -77.37,-109.07l-65.58 -70.67c-55.24,-55.88 -149.72,-120.57 -219.72,-155.56 -31.9,-15.94 -80.74,-37.49 -114.04,-48.5 -137.46,-45.44 -198.98,-51.09 -345.69,-51.09 -97.84,0 -223.12,28.79 -311.08,64.19 -13.55,5.45 -25.74,9.76 -38.69,16.29l-71.73 35.84c-51.24,25.99 -143.77,94.36 -187.48,137.6l-99.99 115.14c-13.15,19.17 -32.32,44.32 -43.17,64.39l-37.46 70.1c-43.98,87.89 -82.87,219.12 -82.87,349.78z"/>
  </g>
 </g>
</svg>
