<?xml version="1.0" encoding="UTF-8"?>
<!DOCTYPE svg PUBLIC "-//W3C//DTD SVG 1.1//EN" "http://www.w3.org/Graphics/SVG/1.1/DTD/svg11.dtd">
<!-- Creator: CorelDRAW 2021 (64-Bit) -->
<svg xmlns="http://www.w3.org/2000/svg" xml:space="preserve" width="165.922mm" height="124.028mm" version="1.1" style="shape-rendering:geometricPrecision; text-rendering:geometricPrecision; image-rendering:optimizeQuality; fill-rule:evenodd; clip-rule:evenodd"
viewBox="0 0 2564.32 1916.85"
 xmlns:xlink="http://www.w3.org/1999/xlink"
 xmlns:xodm="http://www.corel.com/coreldraw/odm/2003">
 <defs>
  <style type="text/css">
   <![CDATA[
    .fil0 {fill:white}
   ]]>
  </style>
 </defs>
 <g id="Capa_x0020_1">
  <metadata id="CorelCorpID_0Corel-Layer"/>
  <path class="fil0" d="M132.16 952.6c0,-44.58 1.69,-87.66 7.63,-129.77 4.42,-31.33 10.09,-58.68 16.97,-86.4 14.09,-56.74 43.23,-134.94 72.99,-184.79 20.08,-33.64 35.55,-61.56 60.18,-94.22 36.88,-48.92 57.27,-68.14 97.71,-109.04 26.3,-26.6 85.95,-71.06 116.2,-89.24 10.77,-6.47 20.72,-12.53 31.89,-19.14 16.25,-9.61 33.47,-18.92 50.86,-26.34l35.89 -16.45c73.51,-31.72 185.82,-61.63 271.27,-63.72 23.13,-0.57 51.17,-4.77 73.6,-1.7 8.42,1.15 17.31,0.06 25.86,0.32 5.93,0.18 5.61,0.89 10.5,1.28 26.89,2.11 54.53,4.35 81.63,8.66 29.47,4.69 58.23,10.76 85.03,18.34l78.45 24.93 54.85 22.36c17.34,7.42 34.57,17.11 51.51,25.7 22.36,11.33 43.28,24.59 64.32,37.75l31.29 21.05c5.12,3.84 9.26,6.62 14.39,10.47 17.04,12.8 34.52,25.75 50.41,39.88 31.82,28.3 61.88,58.34 90.29,90.29 30.88,34.72 69.23,87.76 91.28,128.55l35.35 68.03c22.23,49.98 40.58,98.27 54.16,152.59 24.11,96.47 31.92,206.38 17.4,306.33 -6.16,42.41 -14.79,82.44 -26.33,122.84 -3.66,12.84 -8.38,25.34 -12.36,37.37 -2.07,6.26 -4.4,12.26 -6.72,18.14 -22.52,57.08 -44.13,97.21 -75.34,148.41 -17.82,29.23 -46.17,67.74 -68.91,92.04l-43.19 45.79c-4.93,4.93 -7.49,7.55 -12.95,11.91 -4.83,3.85 -7.87,8.31 -12.7,12.17 -18.24,14.56 -35.98,30.55 -54.78,44.67 -9.89,7.43 -19.05,13.82 -29.16,20.56 -39.03,26.02 -50.13,30.77 -85.47,50.61 -24.99,14.03 -51.64,24.88 -78.48,35.36 -37.5,14.64 -73.62,26.37 -114,35.17 -173.55,37.8 -343.32,26.31 -507.71,-39.45 -40.28,-16.11 -54.01,-24.01 -90.15,-42.01 -6.61,-3.3 -10.7,-5.66 -16.99,-9.18 -38.35,-21.44 -107.21,-66.98 -138.63,-96.91 -13.7,-13.05 -28.56,-24.61 -41.87,-37.95 -47.21,-47.29 -94.3,-102.01 -128.33,-159.55 -9.82,-16.62 -20.23,-32.37 -28.81,-49.7 -3.29,-6.65 -5.65,-10.83 -9.14,-17.03 -15.12,-26.87 -44.45,-100.78 -52.95,-131.55 -20.97,-75.87 -36.92,-145.9 -36.92,-227.41zm-132.16 -17.01c0,39.84 2.78,81.9 7.45,116.86 12.25,91.63 35.35,180.68 72.4,265.2l63.02 121.48c15.13,25.13 31.89,50.15 49.48,73.53l41.12 51.79c2.63,3.37 4.12,4.27 6.74,7.65l14.59 16.81c2.85,2.95 5.15,4.84 7.89,7.81 16.9,18.27 43.84,47.64 62.36,61.95 3.84,2.96 4.34,3.51 7.61,6.79 15.16,15.18 58.92,49.13 77.15,61.55 58.7,39.97 110.76,73.53 176.77,101.95 93.15,40.1 186.73,69.32 288.58,80.43 147.39,16.08 242.94,6.13 381.29,-28.74 80.17,-20.21 164.91,-59.13 235.82,-101.77 4.31,-2.59 7.38,-4.29 11.47,-6.85l34.83 -22.75c3.98,-2.7 6.81,-5.04 10.71,-7.61 31.52,-20.73 67.12,-50.49 93.86,-76.25 3.72,-3.59 6.04,-4.62 9.86,-8.46 12.31,-12.37 26.02,-23.98 37.22,-37.37 21.53,-25.75 39.92,-44.16 61.15,-72.32l23.74 -32.53c2.87,-3.94 5,-8.73 8.4,-11.22 7.11,1.9 15.71,8.21 22.01,12.02 7.66,4.64 14.72,8.51 22.42,12.91 7.06,4.04 13.8,8.39 21.45,12.57l44.04 25.31c59.51,32.18 116.39,69.17 175.79,101.62 52.35,28.59 103.53,59.75 155.2,89.5l110.39 63.65c7.86,4.37 14.27,8.66 22.29,13.04l110.35 63.69c51.32,29.02 117.48,-25.13 90.73,-85.49 -3.76,-8.49 -10.47,-17.35 -17.39,-23.18 -7.3,-6.15 -16.91,-10.73 -25.05,-15.52 -36.98,-21.74 -77.11,-45.71 -114.6,-65.98 -43.48,-23.51 -85.47,-50.16 -128.64,-74.18 -4.88,-2.71 -8.18,-5.11 -13.13,-7.81 -43.28,-23.58 -84.53,-50.33 -127.78,-73.73l-102.06 -58.88c-34.81,-18.85 -68.12,-40.37 -102.93,-59.33 -4.57,-2.49 -8.25,-5.02 -12.29,-7.34 -12.01,-6.87 -57.36,-34.84 -65.36,-36.7 1.49,-6.38 6.74,-13.99 9.54,-20.56 3.38,-7.92 6.19,-13.89 9.53,-21.88 12.68,-30.29 23.32,-60.4 33.78,-91.84 26.57,-79.83 41.37,-179.46 41.37,-272.68 0,-159.98 -38.35,-290.76 -87.69,-401.7l-30.06 -60.23c-3.46,-6.64 -7.55,-13.1 -11.35,-20.06 -10.66,-19.52 -22.7,-38.17 -34.99,-56.6l-51.4 -70.29c-5,-6.18 -9.37,-10.95 -14.25,-17.16 -31.07,-39.53 -86.45,-93.2 -122.43,-122.26l-25.25 -20.55c-26.21,-19.71 -52.3,-40.02 -80.49,-56.9 -6.02,-3.61 -12.42,-8.03 -18.44,-11.66l-59.58 -33.32c-19.64,-11.76 -41.02,-20.39 -62.02,-29.58 -47.57,-20.83 -108.93,-43.29 -160.22,-54.38 -95.07,-20.56 -153.1,-28.02 -253.31,-28.02 -36.88,0 -75.56,3.28 -108.54,7.92 -58.01,8.16 -112.04,18.58 -166.08,36.74l-64.86 22.81c-47.11,18.98 -93.51,41.09 -136.9,67.22 -32.94,19.83 -64.19,41.68 -94.87,64.77l-40.15 33.13c-3.18,2.98 -4.65,3.37 -7.89,6.51l-22.86 21.63c-3.32,3.34 -4.39,3.72 -7.81,6.58 -14.46,12.08 -41.22,43.97 -56.34,60.12 -2.73,2.92 -4.38,5.38 -7.15,8.55l-31.88 40.09c-2.44,3.25 -3.61,5.32 -5.96,8.43 -21.14,27.97 -40.81,57.98 -57.81,88.75 -14.28,25.85 -26.43,51.72 -39.72,78.05l-17.26 40.31c-42.48,112.05 -65.61,216.22 -65.61,343.96z"/>
 </g>
</svg>
