<?xml version="1.0" encoding="UTF-8"?>
<!DOCTYPE svg PUBLIC "-//W3C//DTD SVG 1.1//EN" "http://www.w3.org/Graphics/SVG/1.1/DTD/svg11.dtd">
<!-- Creator: CorelDRAW 2021 (64-Bit) -->
<svg xmlns="http://www.w3.org/2000/svg" xml:space="preserve" width="147.066mm" height="136.99mm" version="1.1" style="shape-rendering:geometricPrecision; text-rendering:geometricPrecision; image-rendering:optimizeQuality; fill-rule:evenodd; clip-rule:evenodd"
viewBox="0 0 3688.98 3436.25"
 xmlns:xlink="http://www.w3.org/1999/xlink"
 xmlns:xodm="http://www.corel.com/coreldraw/odm/2003">
 <defs>
  <style type="text/css">
   <![CDATA[
    .fil0 {fill:white}
   ]]>
  </style>
 </defs>
 <g id="Capa_x0020_1">
  <metadata id="CorelCorpID_0Corel-Layer"/>
  <path class="fil0" d="M214.5 1274.26l3259.98 0 0 1949.62 -3259.98 0 0 -1949.62zm2567.63 -212.38l-1875.29 0c0,-71.06 40.44,-204.24 66.11,-267.32 19.39,-47.66 48.6,-102.82 76.59,-146.4 15.52,-24.18 62.36,-89.58 84.02,-111.36l69.01 -71.16c56.1,-56.38 159.42,-124.44 230.22,-158.42 39.41,-18.92 78.01,-33.84 119.94,-47.84 61.47,-20.52 168.57,-42.94 235.4,-44.94 9.09,-0.27 18.66,0.41 27.75,0.14 11,-0.33 14.56,-2.24 27.5,-2.26 119,-0.13 263.14,28.02 370.3,75.79 25.29,11.28 51.99,21.93 74.84,35.6 73.81,44.19 131.34,76.15 196.77,140.91 9.56,9.47 30.71,25.99 42.3,40.52l51.32 59.11c92.94,115.28 160.12,253.45 189.23,399.05 5.95,29.79 13.98,65.12 13.98,98.58zm-2089.79 0l-594.65 0c-28.38,0 -55.34,19.14 -69.58,34.48 -15.66,16.88 -28.11,43.96 -28.11,75.95l0 2153.5c0,61.07 48.39,110.43 97.69,110.43l3493.59 0c46.78,0 97.69,-48.58 97.69,-104.06l0 -2166.24c0,-49.24 -35.43,-89.65 -82.73,-102.04 -23.55,-6.17 -148.74,-2.02 -184.87,-2.02l-418.41 0.03c-9.47,-1.96 -6.07,-5.52 -6.46,-16.9 -3.01,-88.38 -45.59,-238.67 -77.86,-319.29 -36.59,-91.43 -75.18,-158.74 -131.43,-240.23 -13.45,-19.48 -25.91,-34.76 -40.28,-53.17l-42.84 -50.61c-22.67,-22.48 -44.48,-50.91 -69.75,-70.42 -16.52,-12.76 -48.37,-44.44 -75.2,-64.96 -64.27,-49.16 -128.16,-90.54 -200.36,-126.7 -11.19,-5.6 -20.78,-9.22 -31.87,-14.85 -24.23,-12.31 -73.62,-31.57 -99.91,-40.26 -151.17,-49.97 -243.82,-64.52 -409.08,-64.52 -128.57,0 -280.23,32.95 -396.23,79.49 -86.52,34.71 -147.27,66.94 -225.18,118.87 -25.33,16.89 -90.16,64.74 -114.98,88.9 -6.49,6.32 -11.25,8.97 -18.09,15.9 -17.66,17.86 -38.42,33.09 -52.87,51.19 -6.19,7.76 -9.07,10.8 -16.14,17.84 -7.19,7.15 -9.54,10.25 -16.02,17.96 -80.52,95.76 -105.89,131.16 -166.45,243.43 -29.08,53.92 -59.37,140.17 -77.42,196.55 -16.12,50.34 -42.21,175.13 -42.21,231.76z"/>
 </g>
</svg>
