<?xml version="1.0" encoding="UTF-8"?>
<!DOCTYPE svg PUBLIC "-//W3C//DTD SVG 1.1//EN" "http://www.w3.org/Graphics/SVG/1.1/DTD/svg11.dtd">
<!-- Creator: CorelDRAW 2021 (64-Bit) -->
<svg xmlns="http://www.w3.org/2000/svg" xml:space="preserve" width="109.813mm" height="104.479mm" version="1.1" style="shape-rendering:geometricPrecision; text-rendering:geometricPrecision; image-rendering:optimizeQuality; fill-rule:evenodd; clip-rule:evenodd"
viewBox="0 0 2895.68 2755.02"
 xmlns:xlink="http://www.w3.org/1999/xlink"
 xmlns:xodm="http://www.corel.com/coreldraw/odm/2003">
 <defs>
  <style type="text/css">
   <![CDATA[
    .fil0 {fill:#D4D4D4}
   ]]>
  </style>
 </defs>
 <g id="Capa_x0020_1">
  <metadata id="CorelCorpID_0Corel-Layer"/>
  <g id="_1941342988448">
   <path class="fil0" d="M2341.99 2752.79c-1.34,-16.17 -14.98,-50.49 -20.38,-66.69l-236.09 -721.7c-6.33,-19 -84.8,-251.07 -85.12,-265.39 6.31,-1.68 8.02,-4.42 13.85,-8.48l769.48 -556.69c18.24,-13.78 103.98,-71.43 111.94,-82.29l-1107.37 0c-9.94,-42.67 -30.08,-87 -41.95,-129.96 -6.48,-23.46 -14.57,-42.59 -21.37,-65.7 -7,-23.78 -14.31,-43.92 -21.26,-65.81l-127.24 -395.19c-14.65,-43.96 -27.91,-88.33 -42.42,-131.72l-42.4 -131.74c-9.71,-28.93 -36.88,-106.37 -42.72,-131.42 -6.65,4.87 -20.13,54.84 -23.17,63.9 -66.24,197.49 -124.78,395.8 -190.86,592.78l-42.72 131.42c-11.91,43.55 -29.57,88.54 -42.7,131.44 -9.67,31.59 -35.25,102.45 -42.14,132.01l-1107.37 0c5.96,8.13 213.45,155.91 221.97,162.04l111.58 80.42c9.87,6.79 17.28,12.54 27.18,19.7l196.76 142.59c18.93,14.26 36.88,25.99 55.85,40.15l252.46 182.9c5.76,3.92 8.54,6.32 14.27,10.29 5.44,3.76 9.34,7.8 15.19,9.37 -0.28,12.52 -15.86,53.13 -20.38,66.69 -7.09,21.28 -13.68,43.32 -21.2,65.87 -87.71,262.96 -170.65,527.67 -258.99,790.33 -10.07,29.93 -37.35,107.74 -43.26,133.12 9.92,-5.25 17.75,-12.35 27.69,-19.2l196.22 -143.13c73.83,-55.6 149.36,-107.48 223.24,-162.99 37.13,-27.9 74.37,-53.46 110.99,-81.01 46.22,-34.78 118.31,-88.61 167.89,-122.35 38.08,-25.91 74.7,-55.2 112.13,-82.11 10.33,-7.43 18.42,-13.72 28.52,-20.59 10.34,-7.03 18.48,-13.77 28.58,-20.54 11.06,2.96 55.99,38.8 69.56,48.77l42.52 31.16c68.24,46.43 156.13,117.3 223.26,162.98l55.72 40.28c93.08,68.37 187.86,134.82 280,204.47 68.85,52.05 140.72,100.1 209.23,152.45 5.21,3.98 8.7,7.9 14.98,9.57z"/>
   <polygon class="fil0" points="2341.99,2752.79 2341.99,2755.02 2344.6,2753.16 "/>
  </g>
 </g>
</svg>
