<?xml version="1.0" encoding="UTF-8"?>
<!DOCTYPE svg PUBLIC "-//W3C//DTD SVG 1.1//EN" "http://www.w3.org/Graphics/SVG/1.1/DTD/svg11.dtd">
<!-- Creator: CorelDRAW 2021 (64-Bit) -->
<svg xmlns="http://www.w3.org/2000/svg" xml:space="preserve" width="57.199mm" height="57.1752mm" version="1.1" style="shape-rendering:geometricPrecision; text-rendering:geometricPrecision; image-rendering:optimizeQuality; fill-rule:evenodd; clip-rule:evenodd"
viewBox="0 0 249.49 249.39"
 xmlns:xlink="http://www.w3.org/1999/xlink"
 xmlns:xodm="http://www.corel.com/coreldraw/odm/2003">
 <defs>
  <style type="text/css">
   <![CDATA[
    .fil0 {fill:white}
   ]]>
  </style>
 </defs>
 <g id="Capa_x0020_1">
  <metadata id="CorelCorpID_0Corel-Layer"/>
  <g id="_2333581735936">
   <g id="_2266910560464">
    <path class="fil0" d="M249.49 249.39l0 -96c0,-24.95 -4.3,-55.83 -28.91,-68.06 -10.83,-5.38 -16.89,-5.68 -27.59,-6.52 -8.56,-0.67 -12.2,-0.59 -21.28,1.68 -9.68,2.41 -18.11,7.25 -24.92,14.06 -6.12,6.12 -4.71,5.79 -7.57,9.48 -0.71,0.92 -0.14,0.69 -1.32,1.12l0 -22.42 -49.7 0 0 166.65 51.65 0c0,-25.66 0,-51.33 0,-76.99 -0,-15.58 0.41,-28.7 8.56,-39.2 1.57,-2.03 3.08,-3.19 5.17,-4.57 7.41,-4.89 22.1,-6.2 30.84,-1.28 13.73,7.73 13.42,27.65 13.42,44.56 0,25.83 0,51.65 0,77.48l51.65 0z"/>
    <polygon class="fil0" points="3.9,249.39 56.04,249.39 56.04,82.74 3.9,82.74 "/>
    <path class="fil0" d="M-0 28.16c0,10.2 1.9,16.23 9.13,23.51 19.25,19.38 50.8,3.01 50.8,-19.62 0,-6.2 -0.1,-9.4 -2.91,-15.12 -11.13,-22.62 -42.86,-22.44 -53.95,-0.33 -1.46,2.92 -3.07,7.39 -3.07,11.55z"/>
   </g>
  </g>
 </g>
</svg>
