<?xml version="1.0" encoding="UTF-8"?>
<!DOCTYPE svg PUBLIC "-//W3C//DTD SVG 1.1//EN" "http://www.w3.org/Graphics/SVG/1.1/DTD/svg11.dtd">
<!-- Creator: CorelDRAW 2021 (64-Bit) -->
<svg xmlns="http://www.w3.org/2000/svg" xml:space="preserve" width="127.561mm" height="28.7202mm" version="1.1" style="shape-rendering:geometricPrecision; text-rendering:geometricPrecision; image-rendering:optimizeQuality; fill-rule:evenodd; clip-rule:evenodd"
viewBox="0 0 8319.79 1873.2"
 xmlns:xlink="http://www.w3.org/1999/xlink"
 xmlns:xodm="http://www.corel.com/coreldraw/odm/2003">
 <defs>
  <style type="text/css">
   <![CDATA[
    .str0 {stroke:#4D2006;stroke-width:13.04;stroke-linecap:round;stroke-linejoin:round;stroke-miterlimit:22.9256}
    .str1 {stroke:#E05C0F;stroke-width:13.04;stroke-linecap:round;stroke-linejoin:round;stroke-miterlimit:22.9256}
    .fil0 {fill:#4D2006}
    .fil1 {fill:#E05C0F}
    .fil2 {fill:white;fill-rule:nonzero}
   ]]>
  </style>
 </defs>
 <g id="Capa_x0020_1">
  <metadata id="CorelCorpID_0Corel-Layer"/>
  <g id="_2333581702816">
   <g>
    <polygon class="fil0 str0" points="6.52,1121.18 6.52,721.3 414.59,489.37 414.59,1452.51 "/>
    <polygon class="fil1 str1" points="6.52,702.31 1317.56,6.52 1317.56,408.88 6.52,1104.67 "/>
   </g>
   <g>
    <polygon class="fil0 str0" points="2245.29,752.01 2245.29,1151.9 1837.23,1383.83 1837.23,420.68 "/>
    <polygon class="fil1 str1" points="2245.29,1170.88 934.25,1866.67 934.25,1464.32 2245.29,768.53 "/>
   </g>
  </g>
  <g id="_2333581702528">
   <path class="fil2" d="M3221.06 1295.26c0,-130.32 -114.12,-221.48 -272.13,-221.48l-213.37 0 -89.13 117.49 302.51 0c75.63,0 133.7,46.59 133.7,110.06 0,64.82 -56.05,108.04 -133.7,108.04l-162.06 0 0 -165.44 -140.45 0 0 281.58 302.51 0c156.66,0 272.13,-99.26 272.13,-230.25zm211.35 114.11l0 -61.45 277.53 0 80.35 -102.64 -357.88 0 0 -54.02 292.38 0 90.48 -117.49 -523.31 0 0 451.74 434.86 0 89.8 -116.14 -384.21 0zm397.05 -335.59l282.92 408.52c19.59,28.36 47.27,50.65 89.13,50.65 43.22,0 70.9,-24.31 90.48,-50.65l289.01 -408.52 -164.76 0 -212.03 299.81 -203.25 -299.81 -171.51 0zm941.95 335.59l0 -61.45 277.53 0 80.35 -102.64 -357.88 0 0 -54.02 292.38 0 90.48 -117.49 -523.31 0 0 451.74 434.86 0 89.8 -116.14 -384.21 0zm571.93 0l0 -335.59 -139.78 0 0 451.74 399.07 0 90.48 -116.14 -349.77 0zm694.82 -343.02c-220.13,0 -330.19,71.57 -330.19,232.96 0,161.38 110.06,233.63 330.19,233.63 219.45,0 330.19,-72.25 330.19,-233.63 0,-161.39 -110.74,-232.96 -330.19,-232.96zm0 349.1c-140.45,0 -191.09,-18.91 -191.09,-116.14 0,-97.23 50.65,-115.47 191.09,-115.47 140.45,0 191.09,18.24 191.09,115.47 0,97.23 -50.65,116.14 -191.09,116.14zm997.33 -172.19c0,-100.61 -81.7,-169.49 -221.48,-169.49l-283.6 0 -92.51 117.49 388.94 0c43.22,0 68.2,19.58 68.2,51.32 0,31.07 -24.98,52 -68.2,52l-388.94 0 0 230.93 139.1 0 0 -115.46 236.33 0c140.45,0 222.15,-66.85 222.15,-166.79zm211.35 166.11l0 -61.45 277.53 0 80.35 -102.64 -357.88 0 0 -54.02 292.38 0 90.48 -117.49 -523.31 0 0 451.74 434.86 0 89.8 -116.14 -384.21 0zm989.9 28.36c-31.06,-31.74 -47.94,-47.94 -63.47,-59.42 74.28,-14.86 118.16,-72.92 118.16,-143.15 0,-128.98 -129.64,-161.39 -232.28,-161.39l-290.35 0 -91.16 117.49 392.99 0c47.94,0 76.98,17.56 76.98,52.67 0,31.07 -33.76,50.65 -76.98,50.65l-392.99 0 0 230.93 139.78 0 0 -119.52 214.72 0 100.61 119.52 187.04 0 -83.05 -87.78z"/>
   <path class="fil2" d="M3205.53 758.89c16.88,29.72 41.19,47.94 76.98,47.94 35.12,0 66.17,-20.26 78.33,-62.12l116.81 -397.04 -136.4 0 -42.54 157.33c-13.51,49.97 -23.64,88.46 -31.06,124.25 -14.19,-30.39 -29.72,-62.12 -63.47,-124.25l-60.1 -114.11c-23.64,-44.57 -47.27,-50.65 -81.03,-50.65 -33.09,0 -56.05,6.08 -79.68,50.65l-60.77 113.44c-31.06,58.75 -48.62,93.18 -63.47,124.92 -6.76,-36.47 -16.21,-73.6 -30.39,-124.25l-42.54 -157.33 -139.77 0 114.79 397.04c12.15,41.87 43.22,62.12 78.33,62.12 36.47,0 60.77,-18.91 76.98,-47.94l72.25 -128.29c39.17,-69.55 57.4,-102.64 71.57,-135.05 15.53,32.41 33.77,66.17 72.92,135.72l72.25 127.62zm465.91 -75.63l0 -61.45 277.53 0 80.35 -102.64 -357.88 0 0 -54.02 292.38 0 90.48 -117.49 -523.31 0 0 451.74 434.86 0 89.8 -116.14 -384.21 0zm941.97 -116.14c31.06,-11.48 61.45,-41.19 61.45,-94.53 0,-83.05 -69.55,-124.92 -177.59,-124.92l-299.14 0 -94.53 117.49 399.74 0c19.59,0 39.17,6.75 39.17,29.04 0,22.96 -18.91,30.39 -39.17,30.39l-399.74 0 0 274.82 397.04 0c142.48,0 183.67,-56.72 183.67,-131.67 0,-54.02 -31.74,-89.13 -70.9,-100.61zm-112.09 54.02c30.39,0 43.22,10.81 43.22,30.39 0,20.94 -12.83,31.74 -43.22,31.74l-257.27 0 0 -62.12 257.27 0z"/>
  </g>
 </g>
</svg>
