<?xml version="1.0" encoding="UTF-8"?>
<!DOCTYPE svg PUBLIC "-//W3C//DTD SVG 1.1//EN" "http://www.w3.org/Graphics/SVG/1.1/DTD/svg11.dtd">
<!-- Creator: CorelDRAW 2021 (64-Bit) -->
<svg xmlns="http://www.w3.org/2000/svg" xml:space="preserve" width="153.153mm" height="67.689mm" version="1.1" style="shape-rendering:geometricPrecision; text-rendering:geometricPrecision; image-rendering:optimizeQuality; fill-rule:evenodd; clip-rule:evenodd"
viewBox="0 0 3655.05 1615.42"
 xmlns:xlink="http://www.w3.org/1999/xlink"
 xmlns:xodm="http://www.corel.com/coreldraw/odm/2003">
 <defs>
  <style type="text/css">
   <![CDATA[
    .str0 {stroke:#69696A;stroke-width:1.82;stroke-linecap:round;stroke-linejoin:round;stroke-miterlimit:22.9256}
    .fil0 {fill:#69696A}
   ]]>
  </style>
 </defs>
 <g id="Capa_x0020_1">
  <metadata id="CorelCorpID_0Corel-Layer"/>
  <path class="fil0 str0" d="M71.63 615.17c156.54,0 314.8,-2.47 471.05,1.19 5.4,0.13 4.13,-1.19 11.87,-1.19l3032.91 0c0,117.76 -34.15,224.38 -84.86,301.07 -5.7,8.62 -10.51,17 -16.54,25.89l-37.49 49.39c-25.85,29.01 -31.29,37.05 -61.64,67.68 -67.49,68.1 -170.48,136.28 -250.14,182.26l-113.71 58.04c-5.94,2.97 -9.93,4.26 -15.49,6.74l-75.93 33.18c-21.23,8.47 -39.76,15.69 -61.19,23.67 -123.09,45.85 -201.95,66.91 -331.71,98.68 -92.36,22.61 -196.77,39.61 -292.07,53.45 -27.31,3.97 -164.55,20.38 -194.87,21.33 -10.77,0.34 -28.57,1.05 -39.86,2.58 -42.49,5.75 -227.48,9.55 -251.11,9.55 -108.22,0 -212.3,-6.51 -313.04,-14.3l-146.53 -17.14c-24.53,-3.56 -47.35,-6.93 -70.11,-10.71 -24.24,-4.03 -47.25,-8.61 -70.44,-12.41 -95.68,-15.68 -233.73,-54.04 -324.06,-84.1 -55.17,-18.36 -95.71,-36.15 -148.48,-57.62l-137.79 -68.31c-17.56,-10.13 -33.76,-19.01 -50.8,-30.02 -30.07,-19.41 -70.73,-44.85 -97.06,-66.61 -62.69,-51.81 -62.07,-50.15 -129.39,-117.13 -40.49,-40.28 -112.48,-145.26 -132.54,-194.8 -22.78,-56.25 -23.61,-48.02 -44.5,-119.17 -9.46,-32.21 -24.48,-107.06 -24.48,-141.21zm3582.51 -32.33l0 77.01c-0.76,24.72 -3.17,49 -9.94,82.79 -9.23,46.08 -33.34,124.22 -57.6,164.67 -33.92,56.56 -43.27,77.86 -89.45,132.82 -4.48,5.33 -5.12,6.85 -10.23,11.99 -16.55,16.64 -32.18,37.9 -53.51,57.62 -4.9,4.54 -7.2,5.24 -12.19,10.04 -4.24,4.08 -6.88,6.99 -11.04,11.18l-47.88 41.02c-41.47,32.57 -58.84,45.39 -102.99,74.82 -49.07,32.72 -69.04,40.91 -111.49,66.32 -10.07,6.03 -19.03,10.25 -29.14,15.31 -52.83,26.41 -96.09,48 -151.85,70.41 -40.23,16.17 -89.03,35.96 -130.26,49.57 -200.46,66.2 -364.52,104.13 -576.99,134.26 -33.55,4.76 -125.27,16.59 -159.34,18.47l-124.05 9.31c-24.5,3.71 -71.27,1.98 -84.86,4.04l-260.97 0c-13.93,-2.11 -27.12,-0.11 -41.16,-1.27l-202.1 -16.13c-91.04,-6.03 -315.22,-47.69 -407.81,-73.09 -95.84,-26.29 -169.97,-48.42 -262.23,-85.32l-120.77 -53c-83.14,-41.91 -120.67,-64.75 -193.71,-113.42l-50.11 -36.77c-45.07,-34.48 -74.6,-63.53 -114.65,-103.58 -43.72,-43.72 -82.08,-94.69 -115.29,-147.39 -69.43,-110.17 -121.63,-266.27 -121.63,-399.69 0,-13.58 1.71,-23.48 16.14,-32.36 13.89,-8.55 16.71,-4.01 32.36,-4.01l458.67 0 0 -511.21c0,-20.24 16.13,-36.37 36.37,-36.37l543.54 0c22.52,0 38.39,14.66 38.39,30.31l0 315.21c0,41.72 -68.7,46.36 -68.7,-8.08l0 -268.74 -480.9 0 0 478.88 3026.85 0c15.21,0 22.24,-4.32 35.62,4.79 8.1,5.52 14.9,16.84 14.9,29.56z"/>
 </g>
</svg>
