<?xml version="1.0" encoding="UTF-8"?>
<!DOCTYPE svg PUBLIC "-//W3C//DTD SVG 1.1//EN" "http://www.w3.org/Graphics/SVG/1.1/DTD/svg11.dtd">
<!-- Creator: CorelDRAW 2021 (64-Bit) -->
<svg xmlns="http://www.w3.org/2000/svg" xml:space="preserve" width="77.373mm" height="77.3716mm" version="1.1" style="shape-rendering:geometricPrecision; text-rendering:geometricPrecision; image-rendering:optimizeQuality; fill-rule:evenodd; clip-rule:evenodd"
viewBox="0 0 439.21 439.21"
 xmlns:xlink="http://www.w3.org/1999/xlink"
 xmlns:xodm="http://www.corel.com/coreldraw/odm/2003">
 <defs>
  <style type="text/css">
   <![CDATA[
    .fil0 {fill:#8DD172;fill-rule:nonzero}
    .fil1 {fill:white;fill-rule:nonzero}
   ]]>
  </style>
 </defs>
 <g id="Capa_x0020_1">
  <metadata id="CorelCorpID_0Corel-Layer"/>
  <g id="_1882529495040">
   <path class="fil0" d="M439.21 219.6c0,121.28 -98.33,219.6 -219.63,219.6 -121.26,0 -219.59,-98.32 -219.59,-219.6 0,-121.28 98.33,-219.6 219.59,-219.6 121.3,0 219.63,98.32 219.63,219.6z"/>
   <path class="fil1" d="M260.37 167.9l75.72 0 0 -18.79 -75.72 0 0 18.79zm-59.5 85.36c0,-2.82 -0.53,-5.53 -1.47,-8.13 -0.98,-2.6 -2.25,-4.87 -3.89,-6.8 -1.64,-1.93 -3.56,-3.46 -5.82,-4.57 -2.21,-1.12 -4.67,-1.67 -7.33,-1.67l-47.26 0 0 41.68 45.7 0c2.83,0 5.45,-0.52 7.9,-1.56 2.46,-1.04 4.55,-2.49 6.35,-4.35 1.76,-1.86 3.19,-4.05 4.22,-6.57 1.06,-2.53 1.6,-5.2 1.6,-8.03zm-65.77 -85.36l0 39.89 40.99 0c5.2,0 9.62,-1.79 13.27,-5.35 3.64,-3.57 5.45,-8.47 5.45,-14.71 0,-6.09 -1.64,-10.92 -5,-14.48 -3.36,-3.57 -7.45,-5.35 -12.37,-5.35l-42.34 0zm96.73 91.16c0,6.68 -1.35,12.56 -4.01,17.61 -2.66,5.05 -6.35,9.29 -11.06,12.7 -4.67,3.42 -10.07,6.02 -16.26,7.8 -6.14,1.79 -12.74,2.68 -19.7,2.68l-76.46 0 0 -158.24 84.69 0c5.49,0 10.48,1.19 14.91,3.57 4.46,2.38 8.27,5.46 11.38,9.25 3.11,3.79 5.53,8.1 7.25,12.93 1.72,4.83 2.58,9.69 2.58,14.6 0,7.72 -1.97,14.97 -5.82,21.73 -3.85,6.76 -9.5,11.77 -16.95,15.05 9.09,2.67 16.26,7.47 21.54,14.37 5.28,6.91 7.9,15.57 7.9,25.97zm95.99 -27.45c-0.74,-8.49 -3.85,-15.3 -9.38,-20.41 -5.57,-5.11 -12.29,-7.67 -20.19,-7.67 -3.89,0 -7.54,0.68 -10.93,2.05 -3.4,1.37 -6.35,3.28 -8.93,5.72 -2.62,2.45 -4.75,5.4 -6.39,8.85 -1.68,3.46 -2.66,7.27 -2.91,11.44l58.73 0 0 0.01zm-29.36 68.24c-9.09,0 -17.28,-1.55 -24.65,-4.64 -14.54,-6.19 -24.78,-16.59 -30.76,-31.21 -2.83,-7.05 -4.22,-14.47 -4.22,-22.25 0,-8.06 1.35,-15.65 4.1,-22.78 5.9,-14.8 16.14,-25.34 30.8,-31.64 7.41,-3.16 15.73,-4.75 24.94,-4.75 9.21,0 17.45,1.58 24.74,4.75 23.92,10.42 35.14,33.58 34.11,58.74 -0.08,1.73 -0.25,3.17 -0.53,4.32l-87.47 0c0.45,4.46 1.52,8.42 3.24,11.87 1.76,3.46 3.97,6.41 6.72,8.86 2.7,2.44 5.82,4.32 9.26,5.61 3.48,1.3 7.04,1.95 10.81,1.95 5.77,0 11.18,-1.4 16.3,-4.21 5.12,-2.81 8.6,-6.51 10.48,-11.12l24.86 6.91c-4.22,8.64 -10.85,15.73 -19.98,21.27 -9.13,5.54 -20.07,8.31 -32.72,8.31z"/>
  </g>
 </g>
</svg>
