<?xml version="1.0" encoding="UTF-8"?>
<!DOCTYPE svg PUBLIC "-//W3C//DTD SVG 1.1//EN" "http://www.w3.org/Graphics/SVG/1.1/DTD/svg11.dtd">
<!-- Creator: CorelDRAW 2021 (64-Bit) -->
<svg xmlns="http://www.w3.org/2000/svg" xml:space="preserve" width="77.3708mm" height="77.3709mm" version="1.1" style="shape-rendering:geometricPrecision; text-rendering:geometricPrecision; image-rendering:optimizeQuality; fill-rule:evenodd; clip-rule:evenodd"
viewBox="0 0 627.93 627.93"
 xmlns:xlink="http://www.w3.org/1999/xlink"
 xmlns:xodm="http://www.corel.com/coreldraw/odm/2003">
 <defs>
  <style type="text/css">
   <![CDATA[
    .fil0 {fill:#8DD172;fill-rule:nonzero}
    .fil1 {fill:white;fill-rule:nonzero}
   ]]>
  </style>
 </defs>
 <g id="Capa_x0020_1">
  <metadata id="CorelCorpID_0Corel-Layer"/>
  <g id="_1882222956528">
   <path class="fil0" d="M627.93 313.97c0,-173.4 -140.57,-313.97 -313.97,-313.97 -173.38,0 -313.96,140.57 -313.96,313.97 0,156.71 114.81,286.6 264.92,310.15l0 -219.4 -79.74 0 0 -90.75 79.74 0 0 -69.18c0,-78.69 46.87,-122.15 118.59,-122.15 34.33,0 70.26,6.13 70.26,6.13l0 77.26 -39.57 0c-39.02,0 -51.19,24.2 -51.19,49.04l0 58.9 87.09 0 -13.91 90.75 -73.18 0 0 219.4c150.11,-23.55 264.92,-153.44 264.92,-310.15z"/>
   <path class="fil1" d="M436.19 404.72l13.91 -90.75 -87.09 0 0 -58.9c0,-24.83 12.17,-49.04 51.19,-49.04l39.57 0 0 -77.26c0,0 -35.93,-6.13 -70.26,-6.13 -71.72,0 -118.59,43.46 -118.59,122.15l0 69.18 -79.74 0 0 90.75 79.74 0 0 219.4c15.97,2.51 32.35,3.81 49.04,3.81 16.69,0 33.08,-1.31 49.05,-3.81l0 -219.4 73.18 0z"/>
  </g>
 </g>
</svg>
