<?xml version="1.0" encoding="UTF-8"?>
<!DOCTYPE svg PUBLIC "-//W3C//DTD SVG 1.1//EN" "http://www.w3.org/Graphics/SVG/1.1/DTD/svg11.dtd">
<!-- Creator: CorelDRAW 2021 (64-Bit) -->
<svg xmlns="http://www.w3.org/2000/svg" xml:space="preserve" width="124.875mm" height="75.0907mm" version="1.1" style="shape-rendering:geometricPrecision; text-rendering:geometricPrecision; image-rendering:optimizeQuality; fill-rule:evenodd; clip-rule:evenodd"
viewBox="0 0 3377.29 2030.86"
 xmlns:xlink="http://www.w3.org/1999/xlink"
 xmlns:xodm="http://www.corel.com/coreldraw/odm/2003">
 <defs>
  <style type="text/css">
   <![CDATA[
    .str0 {stroke:#69696A;stroke-width:2.06;stroke-linecap:round;stroke-linejoin:round;stroke-miterlimit:22.9256}
    .fil0 {fill:#69696A}
   ]]>
  </style>
 </defs>
 <g id="Capa_x0020_1">
  <metadata id="CorelCorpID_0Corel-Layer"/>
  <path class="fil0 str0" d="M465.87 1619.95l2452.42 0 0 322.87 -2452.42 0 0 -322.87zm0 -364.09l2452.42 0 0 277.07 -2452.42 0 0 -277.07zm0 -366.37l2452.42 0 0 279.36 -2452.42 0 0 -279.36zm0 -414.46l2452.42 0 0 327.45 -2452.42 0 0 -327.45zm-87.01 -32.06l0 1499.85 -290.81 0 0 -1854.77 3201.2 0 0 1854.77 -283.94 0 0 -1504.43c0,-22.96 -29.94,-50.38 -52.67,-50.38l-2525.7 0c-32.11,0 -48.09,31.33 -48.09,54.96zm-377.82 -393.85l0 1932.63c0,26.76 17.44,48.09 43.51,48.09l3290.5 0c11.74,0 21.15,-5.37 27.95,-10.98 5.37,-4.42 13.27,-16.74 13.27,-25.66l0 -1955.52c0,-19.09 -23.61,-36.64 -43.51,-36.64l-3283.64 0c-29.05,0 -48.09,19.04 -48.09,48.09z"/>
 </g>
</svg>
