<?xml version="1.0" encoding="UTF-8"?>
<!DOCTYPE svg PUBLIC "-//W3C//DTD SVG 1.1//EN" "http://www.w3.org/Graphics/SVG/1.1/DTD/svg11.dtd">
<!-- Creator: CorelDRAW 2021 (64-Bit) -->
<svg xmlns="http://www.w3.org/2000/svg" xml:space="preserve" width="107.433mm" height="102.686mm" version="1.1" style="shape-rendering:geometricPrecision; text-rendering:geometricPrecision; image-rendering:optimizeQuality; fill-rule:evenodd; clip-rule:evenodd"
viewBox="0 0 71715.77 68546.57"
 xmlns:xlink="http://www.w3.org/1999/xlink"
 xmlns:xodm="http://www.corel.com/coreldraw/odm/2003">
 <defs>
  <style type="text/css">
   <![CDATA[
    .str0 {stroke:#69696A;stroke-width:50.87;stroke-linecap:round;stroke-linejoin:round;stroke-miterlimit:22.9256}
    .fil0 {fill:#69696A}
   ]]>
  </style>
 </defs>
 <g id="Capa_x0020_1">
  <metadata id="CorelCorpID_0Corel-Layer"/>
  <g id="_2971182698784">
   <path class="fil0 str0" d="M39418.53 62304.16l30067.6 0 0 4069.31 -30067.6 0 0 -4069.31zm0 -5651.84l30067.6 0 0 3504.1 -30067.6 0 0 -3504.1zm0 -5595.29l30067.6 0 0 3447.63 -30067.6 0 0 -3447.63zm0 -6330.05l30067.6 0 0 4182.39 -30067.6 0 0 -4182.39zm-2204.21 -508.66l0 15259.9 -33797.8 0 0 -29163.36c0,-205.8 1456.17,-1286.94 1625.99,-1425.93 293.78,-240.31 554.06,-437.9 847.77,-678.22 301.06,-246.32 586.43,-449.39 875.34,-707.19l23949.09 -19230.74 3536.81 2736.77c2054.55,1604.09 4594.59,3532 6597.74,5157.99l3971.18 3093.63c601.05,469.01 1132.34,904.25 1744.07,1364.38 1133.68,852.58 2390.05,1915.96 3519.72,2753.79l5296.24 4142.27c603.32,470.81 1156.04,882.48 1745.74,1362.78l1560.7 1208.71c105.07,87.31 173.83,56.27 173.83,221.76l0 12264.46 -20403 0c-767.8,0 -1243.42,720.07 -1243.42,1639zm-35945.46 -14581.68l0 31084.99c0,345.52 399.99,904.31 960.79,904.31l34984.68 0 0 5369.2c0,909.45 469.35,1525.99 1243.42,1525.99l31763.14 0c906.31,0 1469.45,-449.85 1469.45,-1412.98l0 -23002.86c0,-486.37 -111.35,-847.91 -379.23,-1090.22 -166.22,-150.4 -737.63,-435.77 -1033.75,-435.77l-9268.95 0 0 -12773.12c0,-635.76 -246.05,-803.11 -603.85,-1091.62l-2378.63 -1860.23c-165.75,-136.24 -304.66,-249.53 -472.95,-374.89 -1852.82,-1380.33 -3867.64,-3085.09 -5716.65,-4456.54 -179.1,-132.77 -300.79,-231.9 -474.69,-373.09l-1431.33 -1111.98c-1542.34,-1178.27 -3233.28,-2589.51 -4754.73,-3722.99l-12377.47 -9664.6c-330.56,-246.25 -632.36,-498.65 -952.37,-743.17 -1430.87,-1093.43 -1352.7,-689.03 -3108.72,679.22l-4610.48 3697.75c-2754.19,2163.29 -5575.2,4547.66 -8332.53,6701.2l-6450.41 5192.37c-322.75,255.67 -617.74,490.97 -940.49,755.05l-5544.36 4459.35c-311.47,248.19 -605.12,487.97 -912.06,726.95 -300.39,233.9 -677.82,493.04 -677.82,1017.66z"/>
   <path class="fil0 str0" d="M25.43 24323.98c0,601.58 428.96,1130.34 1073.87,1130.34 530.22,0 765.6,-325.09 1008.92,-630.09 410.07,-514.2 1165.45,-1121.2 1690.34,-1587.67l648.51 -538.44c101.4,-90.38 119.69,-123.96 236.71,-215.41 171.96,-134.38 273.29,-223.16 436.24,-355l7752.57 -6207.36c1509.5,-1232.54 3103.45,-2353.6 4624.7,-3570.45 2409.07,-1927.05 5868.38,-4498.26 8372.98,-6378.25 330.1,-247.72 600.72,-466.14 928.41,-710.59 641.97,-478.96 1238.01,-928.28 1873.24,-1404.83l1873.24 -1404.76c1483.53,1289.41 3861.63,2996.71 5495.23,4338.92 1648.15,1354.17 3383.61,2601.06 5030.29,3956.09l12420.19 9791.37c313.01,239.11 594.51,475.69 921.13,717.94 1564.24,1160.18 3030.68,2438.38 4586.51,3608.64 331.97,249.66 645.17,589.9 1162.12,589.9 617.34,0 1017.33,-560.4 1017.33,-1130.34 0,-684.16 -1046.63,-1292.82 -1631.59,-1759.49 -646.51,-515.81 -1283.81,-1014.39 -1929.05,-1518.58 -1834.26,-1433.4 -4432.78,-3425 -6230.06,-4903.99l-2876.75 -2266.42c-3984.33,-3178.74 -8054.9,-6250.68 -12013.13,-9463.67l-3853.22 -3042.03c-2223.83,-1775.98 -1842.74,-1795.47 -4181.99,-40.59l-6830.77 5151.12c-1298.63,974.8 -2620.02,1935.46 -3876.85,2961.79 -334.5,273.16 -657.72,492.71 -991.96,760.12 -165.75,132.57 -305.8,228.1 -484.7,363.07l-13808.6 11002.81c-106.27,94.52 -117.95,84.51 -222.96,172.69l-708.59 647.84c-469.88,478.02 -1512.31,1208.78 -1512.31,1935.32z"/>
  </g>
 </g>
</svg>
