<?xml version="1.0" encoding="UTF-8"?>
<!DOCTYPE svg PUBLIC "-//W3C//DTD SVG 1.1//EN" "http://www.w3.org/Graphics/SVG/1.1/DTD/svg11.dtd">
<!-- Creator: CorelDRAW 2021 (64-Bit) -->
<svg xmlns="http://www.w3.org/2000/svg" xml:space="preserve" width="120.695mm" height="170.519mm" version="1.1" style="shape-rendering:geometricPrecision; text-rendering:geometricPrecision; image-rendering:optimizeQuality; fill-rule:evenodd; clip-rule:evenodd"
viewBox="0 0 3094.57 4372.01"
 xmlns:xlink="http://www.w3.org/1999/xlink"
 xmlns:xodm="http://www.corel.com/coreldraw/odm/2003">
 <defs>
  <style type="text/css">
   <![CDATA[
    .fil0 {fill:#8EC971}
   ]]>
  </style>
 </defs>
 <g id="Capa_x0020_1">
  <metadata id="CorelCorpID_0Corel-Layer"/>
  <path class="fil0" d="M1547.23 3853.48l-217.97 -339.66c-48.25,-73.42 -96.14,-154.76 -143.87,-229.52l-287.35 -457.19c-23.52,-39.53 -47.21,-77.56 -70.68,-116.08 -47.37,-77.75 -94.35,-154.39 -141.94,-231.39 -81.46,-131.8 -218.22,-333.58 -272.05,-474.73 -171.85,-450.63 -79.73,-903.52 184.06,-1225.13 53.06,-64.68 121.82,-134.23 187.8,-185.56 212.83,-165.57 464.18,-267.17 760.38,-267.71 260.96,-0.48 518.55,86.11 708.3,224.28l78.64 60.33c9.19,7.66 16.55,15.33 25.46,22.24l71.41 67.5c7.93,8.58 14.55,17.26 22.52,25.31 22.82,23.03 64.78,75.35 84.21,102.43 100.69,140.33 185.65,311.87 218.46,526.16 33.87,221.19 3.02,458 -71.22,649.17 -33.49,86.23 -83.81,170.29 -127.87,243.32 -47.26,78.33 -94.21,153 -143.34,230.07 -48.4,75.93 -94.27,155.11 -141.24,232.17 -47.36,77.69 -93.38,155.34 -142.41,230.92 -24.36,37.55 -47.99,76.11 -72.96,113.74 -24.81,37.38 -47.31,76.57 -72.04,114.68 -24.63,37.96 -48.35,76.27 -71.73,114.99 -23.43,38.8 -48.16,75.78 -71.85,114.8 -46.76,77.03 -95.31,152.32 -144.41,228.93 -5.78,9.02 -134.89,212.31 -144.52,222.54 -2.34,2.49 -1.22,1.41 -3.81,3.39zm-1547.23 -2355.62c0,118.75 3.09,212.68 25.48,328.36 25.44,131.43 62.56,265.43 122.87,385.1 26.31,52.21 52.37,103.84 82.7,153.92 9.27,15.31 16.71,28.45 25.79,43.68 84.37,141.45 174.87,276.92 259.13,418.17l64.05 105.28c4.79,7.95 8.55,13.41 13.32,21.42l103.92 167.43c4.43,7.08 8.6,13.56 12.5,20.07 33.67,56.25 70.91,110.11 105.22,166.13 4.67,7.62 8.47,13.84 13.4,21.33 18.58,28.28 34.62,55.7 52.56,84.2l143 228.2c4.61,7.81 8.5,13.81 13.3,21.44 9.01,14.31 17,26.87 26.05,41.25l92.04 144.58c5.09,7.58 8.23,13.5 13.44,21.29 45.64,68.2 88.18,138.2 135.02,205.8l27.54 39.75c33.5,44.6 63.07,94.18 103.05,133.57 3.24,3.2 5.66,5.29 8.58,8.78l24.02 25.91c6.63,6.7 9.21,11.58 16.22,18.51 17.04,16.84 50.49,59.09 66.77,69.99 13.86,-20.7 122.19,-129.64 160.33,-180.49l57.36 -79.4c29.62,-39.43 55.78,-81.94 83.18,-123.05l556.17 -878.73c9.24,-14.68 17.46,-27.96 26.9,-42.57l155.45 -254.83c9.03,-14.3 16.59,-26.9 25.53,-41.76 9.23,-15.34 17.34,-28.02 26.31,-43.15 42.1,-71.02 88.51,-139.33 130.83,-209.99 8.64,-14.43 17.28,-28.49 26.58,-42.89 18.16,-28.13 34.57,-56.34 51.8,-84.96 51.47,-85.48 100.73,-177.79 138.5,-271.78 6.32,-15.72 12.6,-33.11 17.97,-49.33 5.37,-16.23 12.1,-36.5 16.62,-52.85 14.92,-53.98 29.55,-107 40.8,-163.26 31.42,-157.07 38.69,-329.46 20.44,-491.87 -16.44,-146.32 -55.41,-283.92 -111.02,-418.65 -22.6,-54.76 -50.16,-109.48 -79.9,-161.06 -11.98,-20.77 -23.12,-39.01 -35.76,-59.75 -29.9,-49.04 -64.4,-96.08 -100.61,-140.35 -28.93,-35.36 -57.52,-70.93 -90.04,-103.16l-48.84 -48.85c-56.9,-57.56 -147.05,-126.05 -213.73,-170.51 -251.77,-167.88 -541.75,-258.76 -865.72,-258.76 -62.55,0 -120.55,5.09 -177.63,11.23 -125.25,13.47 -259.61,48.58 -377.48,95.76 -62.98,25.21 -103.26,45.4 -161.99,74.63 -41.59,20.7 -81.21,45.85 -119.95,71.08 -47.59,31.01 -92.04,65.03 -136.71,99.91 -31.44,24.55 -59.21,51.96 -88.29,78.86 -5.27,4.87 -7.74,5.63 -13.09,10.78 -32.27,31.06 -60.34,65.4 -91.13,97.73l-21.85 25.91c-84.07,104.43 -142.94,197.7 -204.11,319.05 -3.15,6.26 -3.85,8.16 -6.69,15.02l-36.01 83.38c-61.43,154.58 -104.18,347.68 -104.18,514.51z"/>
  <path class="fil0" d="M1107.11 1549.96c0,-101.22 13.18,-167.27 61.19,-247.06l21.95 -32.32c4.32,-5.34 7.29,-9.16 11.81,-14.24 5.41,-6.07 7.04,-9.27 13.01,-15.21 89.94,-89.49 197.66,-133.45 354.42,-142.72 19.98,-1.18 79.45,6.99 97.89,10.67 89.09,17.81 177.56,80.72 227.74,156.5 58,87.59 91.16,181.05 91.16,295.24 0,113.51 -32.36,203.66 -96.42,285.64 -7.73,9.89 -18.82,19.54 -27.86,28.58 -67.48,67.48 -174.24,107.55 -268.7,115.54 -15.58,1.32 -38.29,2.09 -52.72,3.89 -17.65,2.2 -78.69,-6.02 -97.57,-9.79 -83.71,-16.73 -152.94,-59.46 -210.6,-119.37 -5.37,-5.58 -6.5,-8.5 -11.89,-14.16 -23.82,-24.98 -39.11,-55.05 -55.23,-81.53 -30.2,-49.59 -58.19,-154.06 -58.19,-219.67zm418.19 -775.3c-151.72,9.76 -314.82,60.74 -432.46,144.51 -34.79,24.77 -76.47,57.45 -105.48,87.72 -448.35,467.72 -130.94,1344.08 584.22,1312.55 155.04,-6.84 313.95,-55.07 433.69,-140.47 47.71,-34.03 88.87,-69.83 126.76,-114.25 128.33,-150.42 188.04,-337.56 179.21,-542.74 -6.68,-155.37 -58.86,-312.47 -141.52,-433.36 -14.06,-20.57 -26.81,-36 -40.9,-54.55 -25.09,-33.04 -64.05,-70.61 -95.95,-97.32 -141.02,-118.13 -315.3,-174.44 -507.58,-162.07z"/>
 </g>
</svg>
