<?xml version="1.0" encoding="UTF-8"?>
<!DOCTYPE svg PUBLIC "-//W3C//DTD SVG 1.1//EN" "http://www.w3.org/Graphics/SVG/1.1/DTD/svg11.dtd">
<!-- Creator: CorelDRAW 2021 (64-Bit) -->
<svg xmlns="http://www.w3.org/2000/svg" xml:space="preserve" width="298.873mm" height="424.612mm" version="1.1" style="shape-rendering:geometricPrecision; text-rendering:geometricPrecision; image-rendering:optimizeQuality; fill-rule:evenodd; clip-rule:evenodd"
viewBox="0 0 4393.65 6242.1"
 xmlns:xlink="http://www.w3.org/1999/xlink"
 xmlns:xodm="http://www.corel.com/coreldraw/odm/2003">
 <defs>
  <style type="text/css">
   <![CDATA[
    .fil0 {fill:#69696A}
   ]]>
  </style>
 </defs>
 <g id="Capa_x0020_1">
  <metadata id="CorelCorpID_0Corel-Layer"/>
  <path class="fil0" d="M805.3 2652.5l525.25 0c4.14,0 5.56,5.64 7.4,8.78l44.95 73.29c4.15,6.98 8.45,13.55 12.78,20.83l51.14 83.28c17.79,27.14 33.8,55.71 51.75,82.67l129.7 206.36c4.52,6.99 8.78,13.32 13.05,20.55 4.34,7.35 8.64,13.58 12.9,20.7 20.89,34.88 43.28,68.76 64.91,103.13l52.28 83.39c8.98,13.92 16.81,27.51 25.65,41.56 40.98,65.12 80.89,131.08 123.45,195.18l60 93.09c4.56,7.28 8.7,13.18 13.05,20.56 16.45,27.88 35.24,54.51 52.43,81.99l45.78 71.22c29.47,44.97 45.75,84.12 108.8,84.12 59.8,0 88.93,-60.1 116.51,-101.31 2.65,-3.96 4.3,-7.11 6.7,-10.72l78.95 -122.68c2.29,-3.76 4.12,-6 6.42,-9.76 2.61,-4.28 4.27,-6.92 6.76,-10.66 2.2,-3.3 4,-6.68 6.2,-9.98 2.49,-3.75 4.15,-6.38 6.76,-10.67 2.45,-4.01 4.72,-6.91 6.88,-10.54l19.99 -31.04c31.41,-47.31 60.13,-96.39 91.35,-143.89l25.63 -41.58c2.12,-3.2 4.22,-6.78 6.15,-10.03 18.84,-31.69 39.68,-61.8 58.51,-93.34 4.42,-7.4 8.83,-13.85 13.35,-21.5 30.95,-52.34 63.65,-103.78 96.47,-154.95 24.18,-37.69 46.7,-76.48 71.71,-113.75 27.24,-40.61 51.95,-83.08 79.15,-123.73 4.76,-7.12 8.69,-13.59 13.21,-20.39l141.03 -229.88c2.32,-3.89 10.33,-20.31 14.54,-20.31l519.02 0c2.87,0 3.73,0.87 3.73,3.73l0 2780.57 -2784.31 0 0 -2784.31zm-187.94 -92.1l0 2969.76c0,28.4 12.63,51.93 27.06,66.28 16.43,16.34 39.86,28.31 65.04,28.31l2974.74 0c26.47,0 49.71,-12.87 63.17,-26.45 4.03,-4.07 7.42,-6.72 10.79,-11.61 9.53,-13.81 18.14,-31.68 18.14,-50.31l0 -2980.96c0,-13.7 -3.79,-24.22 -7.98,-34.34 -12.9,-31.14 -41.87,-49.83 -74.65,-54.8 -11.67,-1.77 -515.94,-0.48 -516.05,-0.48 2.47,-4.67 4.99,-8.25 7.99,-13.17 2.96,-4.85 5.42,-8.18 8.25,-12.91l33.79 -53.34c5.87,-9.14 11.11,-17.35 16.94,-26.62l115.93 -187.77c5.5,-9.2 10.79,-18.06 16.32,-27.24l55.09 -96.76c2.31,-4.13 4.71,-12.85 9.56,-12.85l761.73 0c2.87,0 3.73,0.87 3.73,3.73l0 4015.28 -4019.01 0 0 -4019.01 766.71 0c4.67,0 14.24,20.93 16.6,25.72 7.83,15.95 22.42,40.02 31.13,56l165.36 267.79c4.85,7.76 48.29,75.76 49.54,81.15l-433.14 0c-22.63,0 -67.94,-2.23 -86.27,0.86 -45.49,7.66 -80.51,43.66 -80.51,93.74zm1509.13 1006.35c-11.7,-18.81 -24.06,-37.08 -35.93,-56.2l-72.62 -112.82c-12.1,-17.96 -24.15,-37.83 -35.48,-56.63 -23.37,-38.81 -46.91,-75.34 -70.4,-113.81l-71.66 -113.79c-24.47,-37.33 -46.88,-75.3 -71.11,-113.09l-71.05 -113.18c-11.54,-19.26 -23.66,-37.71 -35.52,-56.59 -34.89,-55.54 -73.83,-114.98 -106.44,-171.1 -42.7,-73.48 -96.73,-155.05 -139.82,-228.61l-70.38 -113.8c-79.26,-125.56 -212.49,-325.85 -269.04,-469.07 -114.95,-291.12 -118.53,-631.41 7.77,-927.42 39.92,-93.57 96.95,-190.52 154.12,-261.61l85.49 -98.72c24.28,-26.29 40.21,-39.57 64.66,-62.32 33.09,-30.78 68.75,-58.83 108.84,-86.53 113.72,-78.58 237.76,-142.87 373.64,-180.29 215.79,-59.42 433.22,-58.98 649.47,-0.07 124.63,33.95 277.53,102.07 376.33,178.77 17.86,13.86 34.53,26.15 52.14,39.97 8.89,6.98 16.99,12.8 25.87,20.16 27.91,23.13 46.36,43.35 72.05,66.14 4.55,4.04 7.37,7.61 11.83,11.79 4.22,3.96 7.76,6.48 11.61,10.84 7.56,8.56 14.47,16.26 21.68,24.36 7.23,8.12 15.03,15.08 21.98,24.06 3.32,4.29 7.42,9 10.8,12.85 15.5,17.66 36.34,45.25 50.25,64.27 98.6,134.82 185.26,315.02 215.67,522.43 32.09,218.9 1.59,453.52 -71.67,640.52 -44.06,112.47 -132.92,251.54 -197.76,356.11 -22.22,35.83 -48.18,78.38 -71.2,113.01 -44.78,67.37 -98.06,159.76 -140.22,229.44 -46.46,76.8 -91.98,152.95 -139.63,228.77 -59.57,94.78 -120.13,186.98 -179.26,282.55 -11.73,18.95 -24.16,36.46 -35.96,56.12l-212.53 341.35c-23.37,38.21 -48.13,74.52 -71.82,112.41 -19.96,31.92 -51.51,82.16 -71.94,112l-72.74 -112.27zm-1323.68 -2193.75c0,50.09 2.37,101.88 6.33,149.25 7.88,94.2 28.5,186.22 53.67,276.16 3.33,11.9 11.07,39.93 15.92,50.05l-729.37 0c-47.61,0 -76.59,-4.59 -106.82,15.16 -22.4,14.63 -42.54,42.65 -42.54,79.43l0 4204.47c0,51.13 40.53,94.59 92.1,94.59l4208.2 0c48.5,0 93.35,-39.9 93.35,-89.62l0 -4214.42c0,-30.3 -16.41,-55.61 -39.45,-72.57 -14.46,-10.64 -30.11,-17.04 -50.17,-17.04l-785.38 0c0.18,-8.16 11.18,-37.92 14.12,-48.11 22.16,-76.73 38.04,-157 47.88,-237.15 2.4,-19.57 2.88,-37.69 5.55,-57.93 1.11,-8.43 2.03,-20.33 2.11,-30.26 0.05,-6.73 1.14,-7.31 1.33,-13.61 1.22,-41.02 2.49,-84.27 1.25,-125.79 -1.31,-43.87 -5.93,-93.22 -11.61,-136.51 -8.14,-62 -21.11,-118.35 -35.99,-176.85 -2.75,-10.79 -6.56,-22.51 -9.43,-32.89 -19.99,-72.1 -61.19,-173.27 -98.99,-240.8 -5.35,-9.56 -9.18,-18.32 -14.78,-27.54 -10.66,-17.55 -19.98,-36.28 -31.12,-53.52l-33.11 -51.52c-21.61,-32.42 -67.57,-96.34 -92.04,-122.04 -10.38,-10.9 -19.36,-23.13 -29.87,-33.6l-19.93 -22.39c-1.82,-2.05 -3.1,-2.9 -4.91,-5.05 -2.29,-2.72 -2.36,-3.43 -5.01,-6.19l-33.58 -31.15c-15.72,-13.14 -36.26,-37.01 -54.61,-51.19l-119.12 -93.72c-16.29,-12.19 -33.43,-22.8 -50.43,-34.21 -8.77,-5.88 -17.28,-10.44 -26.15,-16.17 -21.81,-14.1 -44.23,-26.8 -67.45,-38.34l-101.16 -48.2c-117.59,-50.28 -238.88,-83.28 -366.76,-101.23 -78.08,-10.96 -138.08,-12.38 -216.64,-12.38 -6.94,0 -14.31,-0.25 -21.2,-0.04 -70.9,2.12 -141.78,12.31 -211.38,23.86 -45.43,7.53 -92.78,19.94 -136.93,33.59 -42.34,13.09 -85.85,26.77 -126.68,45.08 -5.33,2.39 -9.59,3.84 -14.94,6.22l-156.43 78.81c-9.52,5.2 -17.29,10.25 -26.57,15.75l-26.78 16.78c-8.73,5.86 -16.89,10.85 -25.64,16.68 -38.08,25.39 -74.53,52.95 -110.48,81.19 -17.22,13.53 -43.26,35.22 -58.12,50.16l-16.15 14.96c-2.15,1.89 -3.55,3.52 -5.61,5.59l-73.46 75.9c-3.92,3.95 -5.76,7.02 -9.95,11.21 -14.35,14.34 -26.14,31.09 -39.26,46.62 -6.86,8.11 -13.08,15.78 -19.36,24.2 -24.36,32.69 -49.34,65.07 -70.59,99.93 -10.78,17.69 -22.53,35.2 -32.46,53.42l-30.3 55.58c-4.74,9.48 -9.19,18.38 -14.11,28.21 -19.43,38.86 -35.14,78.43 -51.51,119.01 -36.18,89.69 -64.69,214.02 -76.5,309.34 -6.16,49.69 -10.97,104.93 -10.97,160.79z"/>
 </g>
</svg>
