<?xml version="1.0" encoding="UTF-8"?>
<!DOCTYPE svg PUBLIC "-//W3C//DTD SVG 1.1//EN" "http://www.w3.org/Graphics/SVG/1.1/DTD/svg11.dtd">
<!-- Creator: CorelDRAW 2021 (64-Bit) -->
<svg xmlns="http://www.w3.org/2000/svg" xml:space="preserve" width="246.549mm" height="219.919mm" version="1.1" style="shape-rendering:geometricPrecision; text-rendering:geometricPrecision; image-rendering:optimizeQuality; fill-rule:evenodd; clip-rule:evenodd"
viewBox="0 0 50417.79 44972.01"
 xmlns:xlink="http://www.w3.org/1999/xlink"
 xmlns:xodm="http://www.corel.com/coreldraw/odm/2003">
 <defs>
  <style type="text/css">
   <![CDATA[
    .fil1 {fill:none}
    .fil0 {fill:#8EC971}
   ]]>
  </style>
 </defs>
 <g id="Capa_x0020_1">
  <metadata id="CorelCorpID_0Corel-Layer"/>
  <path class="fil0" d="M47701.11 26879.32l60.06 5817.4c-12.47,882.02 58.53,3191.15 -606.55,3714.22 -643.97,506.45 -2783.43,479.35 -3748.92,481.34 -2220.33,3.78 -4442.63,-66.93 -6665.8,-66.93l-11600.26 0c-2723.08,0 -5450.54,25.58 -8172.1,78.65 -2709.62,52.84 -5426.55,125.21 -8137.48,124.15 -1253.08,-0.49 -4549.78,16.03 -5511.64,-741.47 -268.44,-211.41 -387.88,-416.66 -495.18,-769.51 -374.26,-1230.81 -187.46,-4383 -158.42,-5555.97l51.21 -3254.99c10,-3607.15 -210.2,-6439.16 -43.43,-9901.39 178.07,24.4 2626.74,1264.71 2817.95,1363.97 1843.18,957.03 3651.61,1914.86 5461.01,2918.19 448.74,248.83 901.8,504.98 1349.74,745.65 233.1,125.25 444,253.08 676.55,379.5 221.26,120.26 458.03,249.09 678.2,378.07 445.06,260.69 901.86,488.25 1350.5,744.52 819.47,468.13 1886.95,1008.46 2740.18,1449.6 459.76,237.7 950.3,462.32 1384.77,710.13 1874.27,1069.07 3779.66,2336.81 6077.43,2319.31 1701.18,-12.94 4642.54,-1459.57 6142.63,-2237.18 469.66,-243.47 908.73,-478.7 1373.4,-720.68 1575.99,-820.74 3163.36,-1763.58 4708.14,-2633.27l1341.83 -753.17c226.27,-120.43 450.03,-256.41 679.9,-376.29 234.02,-122.06 437.94,-248.6 669.02,-369.54 661.09,-345.98 1375.34,-769.78 2044.08,-1107.5 640.74,-323.59 1404.59,-770.04 2047.86,-1085.39 699.31,-342.79 1369.8,-709.59 2092.14,-1059.18 240.77,-116.52 475.26,-225.17 714.13,-342.65 122.14,-60.06 228.13,-111.65 351.61,-166.79 108.38,-48.4 271.32,-135.31 379.52,-165.84 39.69,1102.79 67.24,2083.61 64.19,3157.55 -5.56,2309.06 -121.39,4618.88 -116.23,6925.51zm2716.68 -8557.9l0 645.51 0 2054.71c-1.39,22.09 -2.97,39.98 -4.72,52.84 -41.06,299.54 21.61,679.14 -15.11,1006.4 -17.14,152.61 -14.78,326.7 -14.78,504.63l-17.73 484.38c1.43,350.65 -16.91,650.25 -16.91,987.3 0,345.92 -18.1,647.59 -17.28,1004.21 0.41,180.85 -17.34,310.36 -17.34,502.09l-17.32 1506.28c0,349.42 17.32,638.41 17.32,986.89 0,692.54 17.32,1349.23 17.32,2025.72 0,356.62 17.3,654.83 17.3,1004.21 0,272.65 -26.71,751.58 10.02,994.19 36.32,239.93 6.71,743.83 7.32,1014.23l-52.15 1471.48c0.94,351.5 -86.97,999.2 -157.09,1349.21 -120.26,600.37 -261.4,1051.38 -523.3,1519.72 -170.49,304.86 -334.2,480.29 -545.77,735.44 -37.99,45.83 -80.26,64.87 -128.71,113.7 -242.84,244.8 -592.28,477.06 -915.48,608.14 -244.66,99.22 -478.13,193.41 -735.93,268.28 -273.51,79.4 -541.87,127.24 -847.2,174.29 -510.4,78.67 -1342.05,150.57 -1877.15,148.59 -355.86,-1.33 -662.52,17.26 -1004.25,17.26 -676.59,0 -1319.09,-20.76 -2008.52,-17.2 -169.2,0.86 -313.49,-17.44 -501.99,-17.44 -167.36,0 -334.74,0 -502.09,0 -183.7,0 -319.09,-18.28 -484.67,-17.42l-16153.89 -17.2c-1184.9,0 -2315.69,23.84 -3497.62,17.08 -148.42,-0.84 -265.54,17.57 -432.63,17.55l-883.11 -0.1c-152.31,-0.8 -251.47,17.53 -415.41,17.42 -596.86,-0.35 -1136.19,20.49 -1731.61,17.08 -148.42,-0.84 -265.56,17.57 -432.63,17.55 -144.27,0 -288.56,0.18 -432.85,0 -168.56,-0.2 -266.99,17.71 -432.81,17.34 -144.27,-0.33 -288.58,0.02 -432.87,-0.02 -169.01,-0.04 -277.29,18.22 -432.73,17.42 -993.82,-5.11 -1993.12,51.84 -2995.41,51.84 -583.18,0 -1134.96,17.3 -1731.37,17.3l-1991.09 0c-313.55,0 -586.63,-17.34 -883,-17.3 -166.99,0.02 -284.35,-18.49 -432.61,-17.55l-2031.13 -167.73c-545.86,-78.96 -976.95,-169.14 -1459.19,-306.82 -671.5,-191.69 -1360.95,-542.11 -1864.55,-1026.85 -262.61,-252.75 -496.88,-543.2 -675.91,-865.03l-224.53 -450.7c-22.88,-53.39 -45.21,-100.98 -62.17,-145.58 -391.28,-1028.79 -446.23,-2247.59 -452.44,-3448.95l0 -911.86 18 -397.52c1.78,-143.41 -0.06,-289.99 -0.8,-433.65 -0.76,-149.28 17.63,-239.42 17.44,-398.11 -0.37,-296.37 17.95,-532.46 17.28,-831.08 -0.37,-157.71 17.95,-243.59 17.38,-398.15 -0.49,-132 -7.12,-286.17 -0.12,-415.65 4.34,-80.43 18.2,-106.77 17.79,-207.27 -0.82,-198.58 -19.69,-426.88 2.13,-621.19 43.6,-388.25 14.81,-859.22 14.78,-1266.43l18 -397.52c3.62,-292.67 -18.02,-538.33 -18,-814.44 0.06,-578.72 -17.46,-1114.9 -17.32,-1679.45 0.08,-276.15 -17.95,-535.53 -17.28,-831.08 0.35,-157.71 -17.98,-243.59 -17.4,-398.15 0.53,-138.54 -0.53,-277.15 0.18,-415.7 0.78,-152.31 -17.55,-251.47 -17.44,-415.41 0.08,-138.52 -0.16,-277.03 0.02,-415.55 0.18,-158.67 -18.2,-248.81 -17.44,-398.09l-17.2 -2077.78 0 -24.46 0 -257.31c0.72,-166.81 3.95,-330.56 16.4,-480.93 19.82,-239.42 -7.03,-531.72 0.35,-778.79l17.87 -380.34c-0.43,-340.6 52.92,-782.17 51.59,-1091.12 -0.43,-95.89 13.84,-111.45 17.65,-190.12l37.4 -533.95c59.98,-578.33 144.66,-1141.81 225.31,-1713.82 15.58,-110.53 10.16,-297.33 83.58,-297.33 1423.85,0 1471.17,-29.65 2693.55,457.58 465.98,185.72 1087.91,470.99 1536.81,696.67 255.09,128.24 506.2,244.47 756.01,369.38l4428.99 2306.08c262.59,159.89 790.18,424.12 1088.58,590.86 237.21,132.57 487.53,248.56 718.75,389.34 117.6,71.59 238.73,125.25 356.88,197.13l1983.08 1098.81c68.81,37.61 108.18,60.63 178.75,98.26 127.87,68.22 237.79,137.58 363.84,207.52l1796.13 991.39c124.01,74.23 252.1,128.38 372.83,198.52 61.76,35.89 107.89,60.59 179.93,97.09l368.85 202.51c67.69,34.33 120.79,56.93 182.51,94.5 62.49,38.06 112.37,61.45 181.37,95.66 72.1,35.75 115.6,65.54 178.65,98.36 492.01,256.13 973.88,503.91 1477.67,755.81 244.94,122.47 516.69,242.04 746.03,379.38 122.86,73.58 252.1,128.52 372.83,198.52l1419.6 813.89c479.95,276.31 968.89,543.12 1484.91,748.57 663.46,264.19 1506.75,545.14 2300.49,368.72 727.45,-161.69 1417.16,-431.07 2090.79,-731.37 637.59,-284.23 1274.26,-576.75 1898.6,-888.91l2583.1 -1347.14c234.39,-142.72 486.84,-263.33 724.62,-400.77l1785.89 -1001.63c686.57,-415.27 1459.84,-807.77 2140.25,-1218.64 56.91,-34.38 121,-72.08 176.36,-100.67 65.72,-33.93 109.34,-62.6 179.05,-97.95 68.04,-34.52 109.04,-60.9 178.87,-98.16 303.2,-161.73 592.97,-347.72 900.08,-502.34 493.59,-248.5 960.51,-547.78 1454.36,-796.42 519.68,-261.65 1097.95,-597.9 1633.72,-876.79 63.11,-32.86 106.44,-62.66 178.65,-98.36l363.88 -190.18c492.61,-250.01 971.16,-520.76 1465.65,-767.83 1252.46,-625.77 2488.77,-1282.69 3784.3,-1825.37 267.66,-112.1 519.95,-212.24 801.64,-306.43 754.64,-252.3 1241.77,-188.24 2045.24,-188.24 20.94,89.9 38.3,218.22 51,312.59l138.5 917.65c57.79,413.08 77.81,865.03 134.72,1285 8.69,64.01 0.63,121.92 5.66,184.78l63.6 1165.7c28.57,208.42 -10.18,491.87 17.32,692.54 1.82,13.27 3.37,27.42 4.72,42.33z"/>
  <path class="fil0" d="M3186.38 8233.08c440.11,-31.47 921.76,-26.24 1367.14,-36.38l4121.39 -70.75c9245.19,-117.65 18489.82,-169.2 27736.01,-137.46 3661.75,12.58 7327.05,35.05 10981.09,177.03 -130.67,231.96 -948.26,655.85 -1281.95,831.76 -1130.58,595.98 -2284.5,1263.81 -3416.81,1864.43 -666.73,353.67 -1387.78,775.95 -2048.6,1119.73 -664.71,345.78 -1391.68,780.76 -2048.48,1119.79 -624.28,322.24 -1429.43,787.77 -2036.84,1131.63 -901.47,510.36 -1774.7,1037.09 -2684.51,1539.88 -2221.38,1227.58 -4606.61,2608.85 -6974.4,3587.23 -434.84,179.69 -1100.2,448.21 -1599.47,513.63 -1011.08,132.49 -6893.49,-3066.98 -8632.03,-4018.75 -456.21,-249.75 -903.72,-508.39 -1360.78,-751.7 -232.41,-123.72 -456.84,-249.67 -677.32,-378.64 -644.87,-377.21 -1384.75,-760.98 -2027.7,-1140.97 -441.69,-261.02 -897.3,-512.99 -1346.76,-765.17 -898.67,-504.24 -1793.47,-1019.2 -2699.22,-1525.63 -456.06,-255 -903.31,-493.69 -1360.25,-751.9 -1307.37,-738.75 -2561.69,-1105.37 -3758.45,-2041.97 -48.49,-37.93 -228.22,-220.59 -252.06,-265.76zm-2874.73 -883.72c0,559.02 26.89,863.27 196.95,1378.6 96.19,291.49 259.42,596.34 415.74,830.86 82.55,123.86 168.61,229.16 260.26,345.74l623.28 623.32c64.82,50.73 108.95,87.63 173.39,138.26 352.81,277.31 735.97,497.06 1121.26,731.31 69.3,42.15 131.8,68.4 201.08,110.57 134.78,82.08 271.32,133.6 413.18,210.12 44.58,24.05 44.38,29.37 86.48,52.02l1581.33 756.03c507.31,253.65 1014.02,530.44 1505.52,814.54l387.43 218.54c42,22.39 63.07,31.08 101.49,54.33l796.4 450.19c134.05,80.57 264.21,144.52 398.21,225.07l1768.03 1002.2c70.55,39.43 126.38,75.58 196.91,114.72 729.94,405.1 1450.7,830.57 2181.11,1229.72 331.98,181.41 650.66,383.3 987.01,553.91l2400.68 1321.79c140.63,78.61 260.26,141.47 404.28,219.01l1610.33 865.54c265.86,148.81 550.74,265.17 809.28,419.99 128.24,76.79 276.99,140.79 414,209.3l2083.53 1015.66c76.09,35.3 119.63,58.34 201.14,93.19 43.11,18.45 62.76,31.76 104.58,51.25 468.82,218.48 943.49,411.13 1426.18,599.53 681.21,265.9 1359.78,496.94 2134.75,496.94 865.81,0 2186.67,-524.16 3006.69,-888.91 525.02,-233.53 1041.98,-458.76 1552.62,-715.48 334.53,-168.18 776.18,-364.26 1084.23,-543.28 270.26,-157.07 583.01,-281.96 852.49,-446.04 69.92,-42.6 134.19,-70.35 204.64,-107.01l842.17 -456.37c500.23,-251.88 982.82,-541.52 1472.15,-813.27 285.74,-158.69 547.41,-308.54 831.23,-467.31 143.68,-80.35 265.21,-151.39 408.91,-231.71 73.82,-41.27 133.72,-81.06 208.17,-120.77l4576.65 -2573.94c45.89,-24.5 52.23,-33.25 98.01,-57.81 44.13,-23.7 75.64,-35.7 114.74,-58.4 137.77,-80.02 281.59,-149.3 423.61,-234.33 69.65,-41.7 136.01,-72.55 201.22,-110.41l939.87 -514.51c335.35,-180.04 1046.09,-586.2 1379.41,-750.19 400.26,-196.91 849.69,-470.72 1252.28,-686.85l629.29 -340.28c77.63,-38.42 138.16,-76.3 213.59,-115.35 41.96,-21.72 55.15,-33.78 98.18,-57.67 43.76,-24.31 71.49,-35.34 112.74,-60.41l2304.85 -1261.79c75.27,-45.23 133.88,-76.79 205.7,-123.27 71.65,-46.38 130.14,-80.86 200.92,-128.03 1220.71,-813.89 1776.56,-1988.15 1567,-3533.86 -27.97,-206.38 -56.42,-387.82 -86.95,-570.97 -29.69,-177.95 -87.5,-387.15 -91.49,-566.45 -937.79,-218.48 -695.85,-255.25 -1868.93,-347.23l-779.51 -51.55c-258.01,-7.71 -549.09,11.88 -804.32,-26.75 -166.62,-25.23 -368.07,8.2 -536.73,-17.32 -175.01,-26.5 -367.48,-1.37 -547.29,-6.75l-536.16 -17.87c-203.04,0 -343.57,-17.57 -536.71,-17.32 -184.84,0.22 -369.87,0.86 -554.65,0.59 -109.45,-0.14 -143.92,-18.77 -258.71,-18.3l-831.7 0.63c-116.56,0.65 -157.15,-16.97 -258.79,-18.24l-849.08 0.7c-377.88,0 -705.52,-17.32 -1090.77,-17.32 -369.34,0 -738.77,-0.82 -1108.09,0.02 -188.52,0.43 -334.43,-17.32 -536.71,-17.32l-16396.17 0c-180.38,-0.02 -299.13,17.98 -467.41,17.36 -1503.34,-5.58 -3001.85,17.26 -4501.65,17.26 -350.58,0 -640.92,17.32 -986.89,17.32 -334.74,0 -669.47,0 -1004.21,0 -350.85,0 -644.28,17.3 -986.89,17.3 -1337.43,0 -2635.33,34.64 -3964.85,34.64l-1489 17.3c-185.54,0 -312.9,18.02 -484.73,17.38 -261.14,-0.98 -765.48,-27.79 -996.95,7.24 -294.33,44.56 -682.05,-6.93 -994.27,9.94l-467.39 17.38c-160.32,0 -344.92,-8.57 -502.18,-0.08l-484.71 17.4c-173.1,0 -339.34,-1.82 -487.31,14.78l-1956.45 51.94c-69.67,7.81 -167.44,2.8 -239.99,2.41l-719.86 41.94c-489.74,69.94 -663.81,200.89 -1068.79,437.51 -181.55,106.07 -130.63,95.15 -170.02,332.08 -44.83,269.67 -118.87,571.5 -118.87,885.34z"/>
  <rect class="fil1" x="13785.88" y="-0.01" width="22314.35" height="3947.94"/>
  <rect class="fil1" x="13708.81" y="41024.07" width="22314.35" height="3947.94"/>
 </g>
</svg>
