<?xml version="1.0" encoding="UTF-8"?>
<!DOCTYPE svg PUBLIC "-//W3C//DTD SVG 1.1//EN" "http://www.w3.org/Graphics/SVG/1.1/DTD/svg11.dtd">
<!-- Creator: CorelDRAW 2021 (64-Bit) -->
<svg xmlns="http://www.w3.org/2000/svg" xml:space="preserve" width="154.543mm" height="154.774mm" version="1.1" style="shape-rendering:geometricPrecision; text-rendering:geometricPrecision; image-rendering:optimizeQuality; fill-rule:evenodd; clip-rule:evenodd"
viewBox="0 0 2785.28 2789.44"
 xmlns:xlink="http://www.w3.org/1999/xlink"
 xmlns:xodm="http://www.corel.com/coreldraw/odm/2003">
 <defs>
  <style type="text/css">
   <![CDATA[
    .fil0 {fill:#8EC971}
   ]]>
  </style>
 </defs>
 <g id="Capa_x0020_1">
  <metadata id="CorelCorpID_0Corel-Layer"/>
  <path class="fil0" d="M2554.7 2145.74c1.96,45.13 -15.42,128.21 -30.07,166.37 -19.17,49.91 -45.96,77.81 -87.07,108.24 -34.46,25.51 -78.05,52.24 -120.96,74.33 -164.41,84.63 -307.08,80.72 -481.45,25.74 -50.16,-15.81 -96.37,-33.38 -143.74,-51.63 -91.85,-35.37 -192.41,-67.53 -277.3,-114.84 -106.85,-59.55 -140.83,-80.86 -238.01,-152.64 -50.37,-37.21 -89.69,-68.98 -137.25,-108.39l-77.29 -69.27c-22.44,-22.61 -85.26,-78.57 -99.48,-95.79 -4.55,-5.51 -5.82,-7.02 -11.69,-12.7l-139.61 -153.43c-4.47,-4.93 -7.68,-7.43 -11.86,-12.51 -4.37,-5.31 -6.86,-7.31 -11.82,-12.56 -31.23,-33 -73.26,-85.18 -100.73,-120.56 -121.46,-156.47 -195.84,-327.85 -267.03,-515.77 -39.17,-103.38 -78.81,-191.02 -87.02,-303.7 -9.84,-135.08 0.43,-206.41 61.87,-324.25 42.05,-80.64 93.81,-177.18 180.53,-210.17 25.09,-9.54 49.48,-15.68 77.03,-20.63 11.39,-2.05 79.43,-12.83 86.39,-11.26 5.38,1.21 8.67,10.4 11.18,15.13l61.07 109.86c44.46,79.63 97.22,171.22 139.76,250.86 13.22,24.75 73.04,114.13 75.49,120.27 -11.55,22.6 -63.68,64.78 -86.78,84.57 -5.81,4.98 -12.08,9.91 -18.61,14.97 -13.07,10.11 -24.94,19.61 -37.65,29.52 -13.46,10.49 -24.78,20.57 -37.91,30.74 -16.74,12.98 -60.04,52.08 -71.2,64.58 -10.62,11.89 -19.67,22.5 -30.21,36.96 -44.9,61.59 -51.57,134.23 -17.43,211.95 14.29,32.54 30.71,58.91 47.34,88.48 73.44,130.61 121.28,210.15 214.97,326.74 19.85,24.7 46.85,53.53 62.5,73.31 3.45,4.36 4.8,5.2 8.9,9.37 2.95,2.99 4.93,5.79 7.72,9.11l101.01 101.92c11.97,10.53 23.25,23.07 35.83,32.84l54.21 46.51c104.33,86.46 204.1,150.86 324.75,216.95 29.11,15.94 55.66,33.61 86.36,49.4 103.04,53 193.8,31.17 270.8,-44.43 7.15,-7.02 4.68,-6.98 16.58,-16.95l31.92 -35.2c41.61,-47.73 111.05,-147.55 154.68,-184.12 22.45,-18.82 14.44,-17.33 39.83,-1.1 14.02,8.96 26.38,18.33 39.64,27.51 66.58,46.04 184.44,106.83 258.01,149.38 28.25,16.34 57.75,32.93 87.26,48.55 21.22,11.23 70.08,40.41 86.55,47.81zm-512.54 643.7c70.71,0 125.7,-3.46 190.74,-19.84 46.28,-11.65 85.89,-26.07 129.27,-43.16 36.7,-14.46 81.49,-38.52 114.22,-58.21l39.7 -24.38c4.89,-3.2 8.43,-5.05 13.15,-8.21 44.42,-29.81 81.65,-58.63 119.09,-96.06l20.34 -22.38c26.67,-33.93 48,-67.14 64.29,-108.13 32.47,-81.69 52.31,-179.29 52.31,-292.54 0,-25.24 -4.98,-43.96 -11.6,-63.16 -21.56,-62.46 -84.42,-95.94 -138.95,-125.03 -8.54,-4.55 -15.74,-9.34 -24.41,-13.74 -8.76,-4.44 -15.93,-8.98 -24.44,-13.71l-122.55 -68.19c-45.87,-23.69 -125.01,-68.82 -169.66,-95.85l-45.82 -28.95c-22.81,-15.27 -44.56,-32.37 -68.42,-46.02 -87.99,-50.33 -166.88,-45.24 -249.57,9.68 -15.6,10.36 -28.28,22.35 -42.25,34.04l-28.93 27.53c-16.93,16.73 -48.19,53.75 -62.19,72.09 -6.4,8.38 -12.42,16.42 -19.35,24.91l-53.41 67.14c-2.59,3.08 -2.55,3.67 -5.43,6.77 -11.76,12.64 -30.81,37.42 -43.87,46.16 -22.89,-12.11 -43.3,-24.94 -66.09,-37.68l-131.99 -77.06c-58.4,-36.53 -112.96,-77.4 -166.82,-120.05 -5.26,-4.16 -10.02,-8.5 -15.07,-12.4l-41.57 -36.25c-5.24,-5.36 -9.23,-7.61 -14.52,-12.95l-53.39 -51.89c-10.7,-10.7 -22.27,-20.51 -31.98,-32.11 -17.71,-21.18 -38.3,-40.41 -55.61,-61.89 -19.57,-24.29 -39.76,-47.4 -58.63,-72.6 -30.08,-40.15 -59.02,-80.68 -85.81,-123.24 -17.05,-27.1 -111,-185.08 -114.74,-201.13 2.9,-4.33 6.43,-7.16 10.29,-11.07l35.01 -30.6c8.53,-7.18 15.33,-13.04 24.23,-20.02l73.02 -58.21c17.65,-13.95 43.65,-34.9 59.27,-50.6l32.79 -32.83c83.64,-83.58 115.82,-190.98 50.46,-298.42 -5.08,-8.34 -9.31,-15.25 -14.48,-23.66 -14.46,-23.55 -31.01,-45.07 -45.63,-68.81l-109.47 -195.71c-36.7,-66.08 -72.21,-130.18 -108.89,-196.29 -15.47,-27.87 -42.53,-65.98 -67.6,-84.99 -69.2,-52.5 -134.52,-40.95 -215.06,-31.89 -105.34,11.86 -198.14,41.39 -281.34,103.19 -20.15,14.97 -37.96,33.25 -55.66,51.15 -17.79,17.98 -32.44,39.12 -47.42,59.39 -6.27,8.48 -11.36,16.51 -17.33,25.4l-16.55 26.18c-32.56,54.39 -64.09,109.22 -88.23,168.12 -22.04,53.78 -50.9,139.19 -53.6,202.76 -0.34,7.96 -1.58,11.54 -1.59,19.77 -0.01,6.8 0.46,14.72 -0.08,21.39 -0.84,10.36 0.13,25.36 0.13,39.7 0,119.94 15.1,206.31 45.2,296.6l45.91 124.99c23.98,61.26 46.97,123.9 71.95,184.41 16.49,39.94 33.9,79.37 53.11,117.79 9.67,19.33 18.28,38.05 28.48,56.98 34.49,64.05 71.67,126.25 113.04,186.04l54.74 74.96c24.24,32.49 51.85,62.11 77.16,93.74 3.58,4.47 6.05,6.19 10.03,11.34 3.52,4.56 6.47,6.97 10.44,10.92l40.43 45.03c9.96,11.31 21.17,21.53 30.66,33.43l133.36 144.35c7.31,7.31 13.84,14.44 21.34,21.38l110.68 102.95c14.45,14.32 30.2,26.67 45.67,39.78 72.07,61.06 164.06,132.32 243.69,185.09 84.57,56.05 209.23,129.87 304.8,165.19l93.5 34.67c72.93,27.94 144.3,55.68 218.51,80.57 21.38,7.17 43.74,13.9 65.87,19.59 72.65,18.66 146.38,34.77 223.11,34.77z"/>
 </g>
</svg>
