<?xml version="1.0" encoding="UTF-8"?>
<!DOCTYPE svg PUBLIC "-//W3C//DTD SVG 1.1//EN" "http://www.w3.org/Graphics/SVG/1.1/DTD/svg11.dtd">
<!-- Creator: CorelDRAW 2021 (64-Bit) -->
<svg xmlns="http://www.w3.org/2000/svg" xml:space="preserve" width="77.3731mm" height="77.3709mm" version="1.1" style="shape-rendering:geometricPrecision; text-rendering:geometricPrecision; image-rendering:optimizeQuality; fill-rule:evenodd; clip-rule:evenodd"
viewBox="0 0 319.65 319.64"
 xmlns:xlink="http://www.w3.org/1999/xlink"
 xmlns:xodm="http://www.corel.com/coreldraw/odm/2003">
 <defs>
  <style type="text/css">
   <![CDATA[
    .fil1 {fill:white}
    .fil0 {fill:#8DD172;fill-rule:nonzero}
   ]]>
  </style>
 </defs>
 <g id="Capa_x0020_1">
  <metadata id="CorelCorpID_0Corel-Layer"/>
  <g id="_1882537954256">
   <path class="fil0" d="M319.65 159.82c0,88.27 -71.56,159.82 -159.84,159.82 -88.25,0 -159.81,-71.55 -159.81,-159.82 0,-88.26 71.56,-159.82 159.81,-159.82 88.28,0 159.84,71.56 159.84,159.82z"/>
   <path class="fil1" d="M147.53 194.58c-0.18,0.57 -0.33,1.03 -0.45,1.5 -7.12,27.91 -7.9,34.12 -15.23,47.08 -3.49,6.16 -7.42,11.99 -11.77,17.59 -0.48,0.63 -0.95,1.44 -1.94,1.24 -1.07,-0.22 -1.16,-1.18 -1.28,-2.06 -1.16,-8.47 -1.79,-16.98 -1.52,-25.55 0.36,-11.15 1.76,-14.98 16.12,-75.45 0.21,-0.92 -0.03,-1.69 -0.33,-2.52 -3.43,-9.28 -4.11,-18.7 -1.13,-28.26 6.53,-20.62 29.89,-22.2 34.01,-5.19 2.5,10.54 -4.17,24.31 -9.27,44.67 -4.23,16.79 15.53,28.74 32.43,16.47 15.59,-11.29 21.64,-38.4 20.51,-57.61 -2.29,-38.3 -44.26,-46.58 -70.93,-34.25 -30.52,14.12 -37.49,51.98 -23.69,69.29 1.76,2.21 3.1,3.56 2.53,5.79 -0.89,3.47 -1.67,6.95 -2.62,10.4 -0.72,2.55 -2.86,3.48 -5.45,2.43 -5.1,-2.05 -9.33,-5.29 -12.76,-9.56 -11.71,-14.5 -15.08,-43.18 0.42,-67.46 17.17,-26.9 49.06,-37.79 78.21,-34.5 34.78,3.96 56.81,27.73 60.92,54.71 1.88,12.29 0.51,42.59 -16.72,64.01 -19.85,24.6 -52.04,26.23 -66.85,11.14 -1.16,-1.17 -2.09,-2.52 -3.19,-3.91z"/>
  </g>
 </g>
</svg>
