<?xml version="1.0" encoding="UTF-8"?>
<!DOCTYPE svg PUBLIC "-//W3C//DTD SVG 1.1//EN" "http://www.w3.org/Graphics/SVG/1.1/DTD/svg11.dtd">
<!-- Creator: CorelDRAW 2021 (64-Bit) -->
<svg xmlns="http://www.w3.org/2000/svg" xml:space="preserve" width="139.522mm" height="63.7455mm" version="1.1" style="shape-rendering:geometricPrecision; text-rendering:geometricPrecision; image-rendering:optimizeQuality; fill-rule:evenodd; clip-rule:evenodd"
viewBox="0 0 4390.07 2005.75"
 xmlns:xlink="http://www.w3.org/1999/xlink"
 xmlns:xodm="http://www.corel.com/coreldraw/odm/2003">
 <defs>
  <style type="text/css">
   <![CDATA[
    .str0 {stroke:#69696A;stroke-width:2.4;stroke-linecap:round;stroke-linejoin:round;stroke-miterlimit:22.9256}
    .fil0 {fill:#69696A}
   ]]>
  </style>
 </defs>
 <g id="Capa_x0020_1">
  <metadata id="CorelCorpID_0Corel-Layer"/>
  <path class="fil0 str0" d="M1.2 38.49l0 583.42c0,13.15 5.64,23.35 12.83,29.79 26.63,23.85 77.74,16.41 77.74,-48.44l0 -511.5 4206.52 0 0 865.81 -2014.01 0 0 -367.64c0,-37.25 -59.14,-57.24 -82.63,-18.7 -13.66,22.42 -7.94,147.49 -7.94,178.54 0,74.99 5.27,180.78 -2.02,248.57l2.02 369.49c0,20.83 -2.07,41.05 4.15,57.12 18.45,47.66 86.42,29.02 86.42,-9.17l0 -367.64 2014.01 0 0 865.81 -4206.52 0 0 -844.5c0,-14.81 -2.6,-29.63 -9,-38.95 -26.2,-38.15 -81.57,-15.71 -81.57,17.64l0 913.76c0,24.4 21.37,42.63 45.29,42.63l4291.77 0c28.55,0 50.62,-17.38 50.62,-45.29l0 -1918.11c0,-16.15 -16.82,-39.96 -42.63,-39.96l-4307.75 0c-16.64,0 -37.3,20.66 -37.3,37.3z"/>
 </g>
</svg>
