<?xml version="1.0" encoding="UTF-8"?>
<!DOCTYPE svg PUBLIC "-//W3C//DTD SVG 1.1//EN" "http://www.w3.org/Graphics/SVG/1.1/DTD/svg11.dtd">
<!-- Creator: CorelDRAW 2021 (64-Bit) -->
<svg xmlns="http://www.w3.org/2000/svg" xml:space="preserve" width="77.3731mm" height="77.3716mm" version="1.1" style="shape-rendering:geometricPrecision; text-rendering:geometricPrecision; image-rendering:optimizeQuality; fill-rule:evenodd; clip-rule:evenodd"
viewBox="0 0 510.02 510.01"
 xmlns:xlink="http://www.w3.org/1999/xlink"
 xmlns:xodm="http://www.corel.com/coreldraw/odm/2003">
 <defs>
  <style type="text/css">
   <![CDATA[
    .fil0 {fill:#8DD172;fill-rule:nonzero}
    .fil1 {fill:white;fill-rule:nonzero}
   ]]>
  </style>
 </defs>
 <g id="Capa_x0020_1">
  <metadata id="CorelCorpID_0Corel-Layer"/>
  <g id="_1881970056832">
   <path class="fil0" d="M510.02 255.01c0,140.83 -114.18,255 -255.03,255 -140.81,0 -254.98,-114.17 -254.98,-255 0,-140.83 114.18,-255.01 254.98,-255.01 140.85,0 255.03,114.17 255.03,255.01z"/>
   <path class="fil1" d="M395.89 167.63c-8.84,4 -18.59,6.42 -28.1,8.02 4.52,-0.76 11.17,-8.95 13.79,-12.26 4.09,-5.05 7.47,-10.81 9.37,-17.03 0.24,-0.48 0.43,-1.09 -0.05,-1.46 -0.62,-0.24 -1,-0.12 -1.52,0.12 -10.65,5.7 -21.64,9.83 -33.34,12.76 -1,0.25 -1.71,0 -2.28,-0.61 -1,-1.09 -1.9,-2.13 -2.95,-2.98 -4.9,-4.19 -10.18,-7.47 -16.12,-9.9 -7.85,-3.19 -16.41,-4.53 -24.82,-3.99 -8.18,0.53 -16.22,2.84 -23.49,6.64 -7.28,3.8 -13.79,9.1 -18.97,15.49 -5.33,6.61 -9.27,14.41 -11.32,22.68 -1.95,7.98 -1.76,15.88 -0.57,23.94 0.14,1.34 0.05,1.52 -1.14,1.34 -45.84,-6.81 -83.79,-23.2 -114.6,-58.32 -1.33,-1.53 -2.05,-1.53 -3.19,0.11 -13.46,20.22 -6.9,52.69 9.94,68.65 2.23,2.13 4.52,4.26 7.04,6.2 -0.9,0.19 -12.13,-1.03 -22.11,-6.2 -1.33,-0.84 -2,-0.36 -2.14,1.16 -0.09,2.18 0.09,4.19 0.38,6.56 2.57,20.49 16.79,39.45 36.19,46.84 2.33,0.97 4.9,1.82 7.37,2.24 -4.42,0.97 -8.99,1.66 -21.68,0.67 -1.62,-0.3 -2.19,0.49 -1.62,2.01 9.56,26.01 30.15,33.74 45.6,38.16 2.04,0.36 4.09,0.36 6.18,0.85l-0.33 0.36c-5.14,7.8 -22.87,13.61 -31.15,16.5 -15.03,5.25 -31.39,7.61 -47.27,6.05 -2.52,-0.38 -3.04,-0.35 -3.76,0 -0.71,0.43 -0.09,1.04 0.71,1.69 3.23,2.13 6.52,4.01 9.89,5.84 10.03,5.35 20.59,9.6 31.58,12.64 56.78,15.67 120.69,4.16 163.35,-38.2 33.48,-33.26 45.18,-79.13 45.18,-125.05 0,-1.8 2.14,-2.79 3.42,-3.74 8.7,-6.54 15.74,-14.38 22.21,-23.12 1.47,-1.97 1.47,-3.71 1.47,-4.43l0 -0.24c0,-0.73 0,-0.51 -1.14,0z"/>
  </g>
 </g>
</svg>
