<?xml version="1.0" encoding="UTF-8"?>
<!DOCTYPE svg PUBLIC "-//W3C//DTD SVG 1.1//EN" "http://www.w3.org/Graphics/SVG/1.1/DTD/svg11.dtd">
<!-- Creator: CorelDRAW 2021 (64-Bit) -->
<svg xmlns="http://www.w3.org/2000/svg" xml:space="preserve" width="77.3738mm" height="77.3713mm" version="1.1" style="shape-rendering:geometricPrecision; text-rendering:geometricPrecision; image-rendering:optimizeQuality; fill-rule:evenodd; clip-rule:evenodd"
viewBox="0 0 377.48 377.47"
 xmlns:xlink="http://www.w3.org/1999/xlink"
 xmlns:xodm="http://www.corel.com/coreldraw/odm/2003">
 <defs>
  <style type="text/css">
   <![CDATA[
    .fil0 {fill:#8DD172;fill-rule:nonzero}
    .fil1 {fill:white;fill-rule:nonzero}
   ]]>
  </style>
 </defs>
 <g id="Capa_x0020_1">
  <metadata id="CorelCorpID_0Corel-Layer"/>
  <g id="_1882214824176">
   <path class="fil0" d="M377.48 188.73c0,104.23 -84.51,188.73 -188.75,188.73 -104.23,0 -188.73,-84.5 -188.73,-188.73 0,-104.23 84.51,-188.73 188.73,-188.73 104.24,0 188.75,84.51 188.75,188.73z"/>
   <path class="fil1" d="M239.54 262.66c-1.2,-6.9 -6.04,-32.13 -17.19,-62.89 6.25,-0.98 12.34,-1.36 18.06,-1.36 18.74,0 33.39,4.1 36.8,5.15 -4.05,24.42 -18.03,45.58 -37.67,59.1zm-50.81 15.8c-20.57,0 -39.55,-6.97 -54.72,-18.65 2.57,-5.03 21.17,-38.52 70.29,-55.61l0.11 -0.04c12.32,32.08 17.54,58.98 18.96,67.33 -10.65,4.49 -22.37,6.97 -34.64,6.97zm-89.7 -89.58c0,-0.74 0.02,-1.46 0.04,-2.2 0.55,0 1.32,0 2.36,0 11.14,0 49.77,-0.91 89.58,-12.74 2.43,4.73 4.73,9.53 6.87,14.32 -1.01,0.29 -2,0.58 -2.97,0.89 -44.84,14.49 -69.48,52.82 -73.27,59.09 -14.06,-15.83 -22.6,-36.61 -22.6,-59.36zm51.17 -80.87c3.1,4.25 18.45,25.68 32.82,51.08 -38.55,10.14 -72.8,10.81 -81.06,10.81l-0.88 0c5.94,-27.36 24.42,-50.1 49.12,-61.89zm38.54 -8.69c22.61,0 43.3,8.4 59.1,22.24 -2.51,3.41 -16.07,20.36 -46.33,31.81 -14.01,-25.61 -29.34,-46.81 -32.99,-51.73 6.5,-1.52 13.27,-2.31 20.22,-2.31zm69.86 33.44c12.1,15.01 19.46,33.96 19.81,54.63 -4.01,-0.83 -21.1,-4.01 -41.5,-4.01 -6.57,0 -13.49,0.33 -20.45,1.19 -0.58,-1.43 -1.17,-2.86 -1.79,-4.29 -1.79,-4.23 -3.73,-8.43 -5.75,-12.58 31.39,-12.92 46.54,-30.87 49.67,-34.94zm-69.86 -50.05c-58.53,0 -106.18,47.57 -106.18,106.04 0,58.46 47.64,106.03 106.18,106.03 58.53,0 106.18,-47.57 106.18,-106.03 0,-58.46 -47.64,-106.04 -106.18,-106.04z"/>
  </g>
 </g>
</svg>
