<?xml version="1.0" encoding="UTF-8"?>
<!DOCTYPE svg PUBLIC "-//W3C//DTD SVG 1.1//EN" "http://www.w3.org/Graphics/SVG/1.1/DTD/svg11.dtd">
<!-- Creator: CorelDRAW 2021 (64-Bit) -->
<svg xmlns="http://www.w3.org/2000/svg" xml:space="preserve" width="84.6666mm" height="53.2212mm" version="1.1" style="shape-rendering:geometricPrecision; text-rendering:geometricPrecision; image-rendering:optimizeQuality; fill-rule:evenodd; clip-rule:evenodd"
viewBox="0 0 3381.09 2125.34"
 xmlns:xlink="http://www.w3.org/1999/xlink"
 xmlns:xodm="http://www.corel.com/coreldraw/odm/2003">
 <defs>
  <style type="text/css">
   <![CDATA[
    .fil0 {fill:#165473}
   ]]>
  </style>
 </defs>
 <g id="Capa_x0020_1">
  <metadata id="CorelCorpID_0Corel-Layer"/>
  <path class="fil0" d="M422.64 1272.55l436.72 0c168.14,0 343.03,50.99 347.1,211.92 4.15,164.33 -176.01,213.78 -347.1,213.78l-436.72 0 0 -425.69zm0 -845.27l422.64 0c172.97,0 351.82,38.09 361.86,199.13 10.33,165.93 -155.91,223.51 -319.59,223.51l-464.9 0 0 -422.64zm-422.64 1688.24c410.28,0 1149.2,65.17 1435.53,-140.11 138.64,-99.4 273.56,-271.52 252.12,-532.05 -9.22,-112.12 -50.7,-222.38 -104.07,-289.31 -122.29,-153.38 -130.72,-112.23 -212.93,-177.06 384.17,-262.34 297.97,-724.11 -29.47,-890.26 -246.21,-124.94 -1008.71,-78.12 -1341.18,-78.12l0 2106.92z"/>
  <path class="fil0" d="M2260.05 1131.67c36.32,-200.88 135.92,-315.94 360.53,-311.93 206.18,3.68 318.09,116.23 337.57,311.89l-698.09 0.04zm1121.04 276.2l0 -232.92c-34.18,-81.03 -41.64,-331.62 -222.8,-496.49 -342.85,-312.02 -1197.66,-312.66 -1306.51,476.6 -162.56,1178.69 1269.22,1176.04 1487.8,540.28 -120.31,-0.49 -280.36,-9.17 -396.01,-0.78 -93.06,6.76 -137.17,97.38 -283.69,108 -260.56,18.87 -388.09,-155.66 -410.02,-394.42l1131.23 -0.28z"/>
  <polygon class="fil0" points="2113.18,286.4 3099.34,286.4 3099.34,4.64 2113.18,4.64 "/>
 </g>
</svg>
