<?xml version="1.0" encoding="UTF-8"?>
<!DOCTYPE svg PUBLIC "-//W3C//DTD SVG 1.1//EN" "http://www.w3.org/Graphics/SVG/1.1/DTD/svg11.dtd">
<!-- Creator: CorelDRAW 2021 (64-Bit) -->
<svg xmlns="http://www.w3.org/2000/svg" xml:space="preserve" width="57.1991mm" height="57.1752mm" version="1.1" style="shape-rendering:geometricPrecision; text-rendering:geometricPrecision; image-rendering:optimizeQuality; fill-rule:evenodd; clip-rule:evenodd"
viewBox="0 0 10876.13 10871.59"
 xmlns:xlink="http://www.w3.org/1999/xlink"
 xmlns:xodm="http://www.corel.com/coreldraw/odm/2003">
 <defs>
  <style type="text/css">
   <![CDATA[
    .fil0 {fill:#165473}
   ]]>
  </style>
 </defs>
 <g id="Capa_x0020_1">
  <metadata id="CorelCorpID_0Corel-Layer"/>
  <g id="_2266910560464">
   <path class="fil0" d="M10876.13 10871.59l0 -4184.79c0,-1087.67 -187.24,-2433.93 -1260.36,-2966.87 -471.92,-234.37 -736.07,-247.8 -1202.57,-284.38 -373.12,-29.24 -531.82,-25.52 -927.64,73.15 -422.03,105.17 -789.39,316.23 -1086.28,613.1 -266.74,266.75 -205.34,252.3 -330.09,413.36 -30.96,39.99 -6.08,30.04 -57.59,48.68l0 -977.16 -2166.7 0 0 7264.92 2251.7 0c0,-1118.78 0.13,-2237.51 0,-3356.29 -0.06,-679.2 17.7,-1251.08 372.97,-1708.8 68.64,-88.38 134.11,-139.09 225.46,-199.39 322.98,-213.13 963.48,-270.1 1344.19,-55.69 598.52,337.03 585.23,1205.31 585.23,1942.62 0,1125.85 0,2251.7 0,3377.55l2251.7 0z"/>
   <polygon class="fil0" points="169.93,10871.59 2442.87,10871.59 2442.87,3606.67 169.93,3606.67 "/>
   <path class="fil0" d="M-0 1227.54c0,444.81 82.69,707.49 398.16,1025.05 839.22,844.68 2214.64,131.22 2214.64,-855.12 0,-270.16 -4.34,-409.97 -126.9,-659.04 -485.23,-986 -1868.56,-978.37 -2351.89,-14.18 -63.77,127.21 -134.01,322.14 -134.01,503.3z"/>
  </g>
 </g>
</svg>
