<?xml version="1.0" encoding="UTF-8"?>
<!DOCTYPE svg PUBLIC "-//W3C//DTD SVG 1.1//EN" "http://www.w3.org/Graphics/SVG/1.1/DTD/svg11.dtd">
<!-- Creator: CorelDRAW 2021 (64-Bit) -->
<svg xmlns="http://www.w3.org/2000/svg" xml:space="preserve" width="108.037mm" height="15.2361mm" version="1.1" style="shape-rendering:geometricPrecision; text-rendering:geometricPrecision; image-rendering:optimizeQuality; fill-rule:evenodd; clip-rule:evenodd"
viewBox="0 0 273386.7 38554.86"
 xmlns:xlink="http://www.w3.org/1999/xlink"
 xmlns:xodm="http://www.corel.com/coreldraw/odm/2003">
 <defs>
  <style type="text/css">
   <![CDATA[
    .fil1 {fill:white}
    .fil0 {fill:white;fill-rule:nonzero}
   ]]>
  </style>
 </defs>
 <g id="Capa_x0020_1">
  <metadata id="CorelCorpID_0Corel-Layer"/>
  <path class="fil0" d="M7052.74 7052.74l0 3481.2 12342.48 0 3526.24 3526.24 0 10579.24 -3526.24 3526.5 -19395.22 0 0 -7052.74 15868.73 0 0 -3526.5 -12342.48 0 -3526.24 -3526.5 0 -10533.94 3526.24 -3526.24 19395.22 0 0 7052.74 -15868.73 0zm19259.59 -7052.74l6464.91 0 8499.68 21474.78 8499.42 -21474.78 6465.16 0 0 28165.91 -7052.74 0 0 -10398.3 -4114.08 10398.3 -7595.53 0 -4114.08 -10398.3 0 10398.3 -7052.74 0 0 -28165.91zm43401.76 9674.84l-5786.73 18445.78 -6826.77 0 8815.99 -28120.62 7595.28 0 8815.99 28120.62 -6826.77 0 -5786.99 -18445.78zm21339.4 -2622.1l0 3481.2 8770.94 0 0 -3481.2 -8770.94 0zm0 10533.94l0 10579.24 -7052.74 0 0 -28165.91 19349.93 0 3526.5 3526.24 0 10533.94 -3526.5 3526.5 -2622.1 0 6148.59 10579.24 -7052.74 0 -6148.85 -10579.24 -2622.1 0zm26719.23 -10533.94l-8228.15 0 0 -7052.74 22876.42 0 0 7052.74 -7640.57 0 0 21113.17 -7007.7 0 0 -21113.17zm24052.09 -7052.74l5289.49 16908.51 3481.2 -16908.51 6465.16 0 3300.27 15778.39 4927.88 -15778.39 7233.67 0 -8815.99 28165.91 -7233.67 0 -2622.1 -12704.09 -2667.39 12704.09 -8183.11 0 -8815.99 -28165.91 7640.57 0zm39197.35 7052.74l0 14060.44 8770.69 0 0 -14060.44 -8770.69 0zm-3526.5 21113.17l-3526.24 -3526.5 0 -21113.17 3526.24 -3526.24 15823.68 0 3526.5 3526.24 0 21113.17 -3526.5 3526.5 -15823.68 0zm29793.53 -21113.17l0 3481.2 8770.94 0 0 -3481.2 -8770.94 0zm0 10533.94l0 10579.24 -7052.74 0 0 -28165.91 19349.93 0 3526.5 3526.24 0 10533.94 -3526.5 3526.5 -2622.1 0 6148.59 10579.24 -7052.74 0 -6148.85 -10579.24 -2622.1 0zm25950.72 -17586.68l0 14738.35 8590.01 -14738.35 7233.67 0 -8228.41 14060.18 8228.41 14105.73 -7414.6 0 -4475.68 -7821.5 -4521.23 7821.5 -6464.91 0 0 -28165.91 7052.74 0zm24278.06 7052.74l0 3481.2 12342.48 0 3526.24 3526.24 0 10579.24 -3526.24 3526.5 -19395.22 0 0 -7052.74 15868.73 0 0 -3526.5 -12342.48 0 -3526.24 -3526.5 0 -10533.94 3526.24 -3526.24 19395.22 0 0 7052.74 -15868.73 0z"/>
  <polygon class="fil1" points="247.74,32552.27 273138.96,32552.27 273138.96,38554.86 247.74,38554.86 "/>
 </g>
</svg>
