<?xml version="1.0" encoding="UTF-8"?>
<!DOCTYPE svg PUBLIC "-//W3C//DTD SVG 1.1//EN" "http://www.w3.org/Graphics/SVG/1.1/DTD/svg11.dtd">
<!-- Creator: CorelDRAW 2021 (64-Bit) -->
<svg xmlns="http://www.w3.org/2000/svg" xml:space="preserve" width="69.0228mm" height="69.1485mm" version="1.1" style="shape-rendering:geometricPrecision; text-rendering:geometricPrecision; image-rendering:optimizeQuality; fill-rule:evenodd; clip-rule:evenodd"
viewBox="0 0 20515.66 20553.02"
 xmlns:xlink="http://www.w3.org/1999/xlink"
 xmlns:xodm="http://www.corel.com/coreldraw/odm/2003">
 <defs>
  <style type="text/css">
   <![CDATA[
    .fil0 {fill:white}
   ]]>
  </style>
 </defs>
 <g id="Capa_x0020_1">
  <metadata id="CorelCorpID_0Corel-Layer"/>
  <path class="fil0" d="M10549.15 3887.83c2183.99,1779.64 2269.47,4727.54 744.53,6659.18 -1733.18,2195.49 -4768.67,2266.05 -6662.5,754.4 -2047.62,-1634.35 -2399.51,-4589.32 -756.18,-6672.1 1728.75,-2191 4791.08,-2275.92 6674.16,-741.47zm-8107.46 -1869.4l-427.06 427.06c-714.3,714.33 -1330.55,1846.69 -1566.08,2562.45 -214.9,653.19 -411.4,1390.77 -436.24,2081.98 -15.28,425.34 -22.47,694.69 16.11,1138.84 19.59,225.75 42.98,417.52 76.63,640.62 189.04,1252.65 916.21,2868.06 1909.59,3861.44 878.91,878.91 1480.68,1368.42 2633.61,1856.17 372.07,157.38 727.86,266.73 1103.29,361.61 346.51,87.59 768.67,168.77 1121.06,192.43 96.15,6.45 169.9,19.77 266.91,18.96l551.63 17.74c115.53,0.68 177.18,-17.03 284.72,-18.61 598.38,-8.71 1089.53,-126.14 1654.89,-263.79 442.46,-107.75 1109.53,-387.35 1530.35,-616.75 62.86,-34.3 85.31,-74.49 142.34,-17.45l4751.2 4751.2c351.47,351.5 573.57,638.3 943.11,913.92 379,282.67 623.38,408.96 996.49,528 677.27,215.97 1445.07,84.74 1993.02,-463.2 811.74,-811.77 595.23,-2112.27 -23.3,-2936.1 -297.82,-396.68 -552.61,-593.72 -919.84,-960.95l-4786.77 -4786.77c-63.96,-63.96 0.15,-98.23 84.59,-266.91 427.18,-853.44 814.02,-2089.53 813.52,-3042.89l18.84 -551.63c2.2,-864.11 -256.66,-1991.26 -583.49,-2775.98 -474.62,-1139.34 -953.46,-1741.03 -1863.78,-2651.38 -984.22,-984.19 -2545.18,-1698.52 -3843.63,-1906.88 -220.13,-35.31 -423.14,-63.25 -640.65,-78.2 -70.62,-4.84 -87.74,-14.62 -160.15,-17.24 -60.43,-2.17 -98.74,4.25 -160.12,-1.19 -504.55,-44.7 -1118.18,18.31 -1619.34,93.92 -436.13,65.81 -841.64,192.72 -1281.21,337.65 -731.54,241.23 -1858.37,850.08 -2580.23,1571.93z"/>
 </g>
</svg>
