<?xml version="1.0" encoding="UTF-8"?>
<!DOCTYPE svg PUBLIC "-//W3C//DTD SVG 1.1//EN" "http://www.w3.org/Graphics/SVG/1.1/DTD/svg11.dtd">
<!-- Creator: CorelDRAW 2021 (64-Bit) -->
<svg xmlns="http://www.w3.org/2000/svg" xml:space="preserve" width="88.4928mm" height="72.8352mm" version="1.1" style="shape-rendering:geometricPrecision; text-rendering:geometricPrecision; image-rendering:optimizeQuality; fill-rule:evenodd; clip-rule:evenodd"
viewBox="0 0 1256.78 1034.41"
 xmlns:xlink="http://www.w3.org/1999/xlink"
 xmlns:xodm="http://www.corel.com/coreldraw/odm/2003">
 <defs>
  <style type="text/css">
   <![CDATA[
    .fil0 {fill:#165473;fill-rule:nonzero}
   ]]>
  </style>
 </defs>
 <g id="Capa_x0020_1">
  <metadata id="CorelCorpID_0Corel-Layer"/>
  <path class="fil0" d="M1251.62 123.98c-39.97,18.07 -84.02,29.01 -127,36.25 20.41,-3.44 50.5,-40.44 62.32,-55.4 18.48,-22.84 33.74,-48.84 42.33,-76.95 1.08,-2.17 1.94,-4.94 -0.21,-6.6 -2.79,-1.1 -4.51,-0.54 -6.87,0.56 -48.14,25.77 -97.77,44.44 -150.64,57.65 -4.51,1.12 -7.74,0 -10.31,-2.75 -4.51,-4.92 -8.6,-9.6 -13.32,-13.45 -22.13,-18.93 -45.99,-33.76 -72.85,-44.74 -35.45,-14.4 -74.13,-20.48 -112.17,-18.03 -36.96,2.41 -73.28,12.85 -106.15,30.02 -32.87,17.19 -62.32,41.11 -85.74,69.99 -24.07,29.85 -41.9,65.11 -51.14,102.48 -8.81,36.06 -7.95,71.75 -2.58,108.2 0.64,6.04 0.21,6.88 -5.16,6.04 -207.15,-30.79 -378.63,-104.84 -517.87,-263.53 -6.02,-6.9 -9.24,-6.9 -14.4,0.51 -60.81,91.35 -31.16,238.12 44.91,310.23 10.1,9.63 20.41,19.23 31.8,28.02 -4.08,0.84 -54.79,-4.66 -99.92,-28.02 -6.02,-3.8 -9.03,-1.63 -9.67,5.24 -0.43,9.86 0.43,18.95 1.72,29.66 11.6,92.59 75.86,178.25 163.53,211.66 10.53,4.38 22.14,8.23 33.31,10.14 -19.98,4.39 -40.61,7.52 -97.99,3.03 -7.31,-1.38 -9.89,2.21 -7.31,9.07 43.19,117.52 136.24,152.48 206.08,172.43 9.24,1.63 18.48,1.63 27.93,3.82l-1.5 1.63c-23.21,35.26 -103.36,61.5 -140.75,74.54 -67.9,23.72 -141.82,34.41 -213.6,27.33 -11.39,-1.7 -13.75,-1.57 -16.98,0 -3.22,1.93 -0.43,4.69 3.22,7.65 14.61,9.63 29.44,18.14 44.7,26.39 45.34,24.15 93.04,43.39 142.68,57.12 256.57,70.83 545.38,18.78 738.14,-172.62 151.28,-150.29 204.14,-357.57 204.14,-565.09 0,-8.12 9.67,-12.61 15.47,-16.91 39.33,-29.57 71.13,-64.96 100.35,-104.45 6.66,-8.9 6.66,-16.78 6.66,-20.03l0 -1.1c0,-3.31 0,-2.32 -5.16,0z"/>
 </g>
</svg>
