<?xml version="1.0" encoding="UTF-8"?>
<!DOCTYPE svg PUBLIC "-//W3C//DTD SVG 1.1//EN" "http://www.w3.org/Graphics/SVG/1.1/DTD/svg11.dtd">
<!-- Creator: CorelDRAW 2021 (64-Bit) -->
<svg xmlns="http://www.w3.org/2000/svg" xml:space="preserve" width="23.9103mm" height="25.5275mm" version="1.1" style="shape-rendering:geometricPrecision; text-rendering:geometricPrecision; image-rendering:optimizeQuality; fill-rule:evenodd; clip-rule:evenodd"
viewBox="0 0 5591.44 5969.62"
 xmlns:xlink="http://www.w3.org/1999/xlink"
 xmlns:xodm="http://www.corel.com/coreldraw/odm/2003">
 <defs>
  <style type="text/css">
   <![CDATA[
    .fil0 {fill:#292929}
   ]]>
  </style>
 </defs>
 <g id="Capa_x0020_1">
  <metadata id="CorelCorpID_0Corel-Layer"/>
  <path class="fil0" d="M3355.06 925.65c683.17,-103.5 1244.27,448.41 1308.79,1037.71 75.77,691.87 -430.78,1225.07 -1024.66,1297.94 -701.15,86.03 -1249.63,-433.79 -1313.89,-1042.09 -69.62,-658.69 377.58,-1194.74 1029.76,-1293.57zm39.68 -925.65l174.03 0c354.89,14.34 706.98,115.62 1003.55,295.42 182.12,110.4 275.31,193.56 424.46,342.68 696.15,696.13 791.44,1815.43 231.04,2637.02 -124.29,182.19 -215,262.05 -363.57,403.58 -111.45,106.17 -314.81,235.6 -451.94,301.25 -387.26,185.33 -614.44,204.36 -1036.96,204.36 -301.53,0 -727.46,-145.06 -906.62,-265 -48.57,32.53 -189.37,209.95 -247.79,268.27l-781.01 878.76c-28.06,30.17 -29.35,39.94 -55.73,69.78 -129.69,146.81 -636.26,730.29 -728.16,778.21 -61.6,32.08 -122.42,49.69 -180.74,55.28l-82.81 0c-210.65,-20.72 -373.37,-197.88 -392.5,-400.8l0 -78.83c5.71,-61.85 25.19,-124.5 61.15,-184.48 86.69,-144.59 695.21,-777.97 869.25,-985.82l405.01 -459.75c49.16,-48.36 69.57,-83.95 118.73,-132.31l345.14 -394.11c-103.32,-195.24 -183.78,-249.82 -280.85,-542.09 -65.57,-197.53 -123.66,-434.07 -123.66,-699.26 0,-543.33 225.64,-1083.45 603.26,-1461.03 94.34,-94.34 166.99,-163.95 275.5,-240.56 159.58,-112.67 157.36,-106 325.38,-190.68 244.87,-123.43 518.59,-188.69 795.84,-199.9z"/>
 </g>
</svg>
