<?xml version="1.0" encoding="UTF-8"?>
<!DOCTYPE svg PUBLIC "-//W3C//DTD SVG 1.1//EN" "http://www.w3.org/Graphics/SVG/1.1/DTD/svg11.dtd">
<!-- Creator: CorelDRAW 2021 (64-Bit) -->
<svg xmlns="http://www.w3.org/2000/svg" xml:space="preserve" width="223.099mm" height="48.0059mm" version="1.1" style="shape-rendering:geometricPrecision; text-rendering:geometricPrecision; image-rendering:optimizeQuality; fill-rule:evenodd; clip-rule:evenodd"
viewBox="0 0 87626.57 18855.31"
 xmlns:xlink="http://www.w3.org/1999/xlink"
 xmlns:xodm="http://www.corel.com/coreldraw/odm/2003">
 <defs>
  <style type="text/css">
   <![CDATA[
    .fil0 {fill:orange}
    .fil1 {fill:white}
    .fil3 {fill:orange;fill-rule:nonzero}
    .fil2 {fill:white;fill-rule:nonzero}
   ]]>
  </style>
 </defs>
 <g id="Capa_x0020_1">
  <metadata id="CorelCorpID_0Corel-Layer"/>
  <g id="_2750718550336">
   <path class="fil0" d="M2930.27 13006.37c-66.61,226.39 -360.76,1300.11 -314.33,1492.61 154.01,48.39 27727.93,51.41 27892.93,0 42.93,-212.41 -678.28,-2605.09 -750.27,-2822.41 -1294.89,-3909.25 -5241.56,-7733.15 -9080.19,-8583.89 -2914.67,-336.21 -4892.35,-223.49 -8235.3,0 -3817.57,1010.48 -7803.96,4105.83 -9512.83,9913.69z"/>
   <path class="fil1" d="M30508.86 14498.98c-165,51.41 -27738.92,48.39 -27892.93,0 -405.22,0 -960.01,103.81 -1262.52,222.74 -772.7,303.81 -1237.31,756.71 -1345.12,1581.3 -3.69,28.28 -6.4,57.23 -8.29,86.8l0 212.37c19.99,359.07 131.11,750.47 222.62,966.37 322.27,760.09 831.81,1031.61 1738.95,1187.42 838.17,143.99 1942.84,32.84 2860.31,32.84 3935.13,0 7870.26,0.04 11805.39,0l2161.77 33.03c261.19,-1.34 401.22,31.03 656.08,33.46l76.59 0c974.66,-3.5 1950.38,-1.18 2925.08,0l13.12 0c273.72,-0.75 439.71,-35.04 684.44,-34.01l3658.78 0.75c466.61,0.04 997.83,-81.54 1443.98,-14.02 148.43,22.47 1891.27,69.91 2133.49,33.27 207.78,-31.46 480.67,-30.87 679.34,-52.28 886.37,-95.44 1518.18,-454.4 1796.1,-1163.54 333.23,-850.31 333.23,-1646.97 -194.85,-2300.38 -221.92,-274.59 -531.22,-450.63 -874.35,-588.84 -311.07,-125.33 -851.57,-237.27 -1278,-237.27z"/>
   <path class="fil1" d="M12990.77 8426.19c312.33,1967.23 1479.21,2301.01 3569.97,2336.08 2030.86,34.09 3235.33,-497.76 3675.16,-2198.46 207.7,-803.06 258.17,-1799.16 278.36,-2677.13 31.3,-1363.11 316.97,-3407.95 189.98,-4609.44 38.02,-399.45 -153.93,-1265.19 -1295.63,-1265.19 -29.38,-5.22 -76.94,-9.19 -138.73,-12.06l-1001.6 0c-648.98,11.19 -1370.85,33.27 -1607.77,33.27 -1036.6,0 -2716.4,-77.42 -3504.22,153.77 -624.15,183.15 -662.76,560.6 -738.76,1090.21 -197.09,1373.95 399.41,6054.09 573.25,7148.94z"/>
   <path class="fil1" d="M7967.08 5453.74c267.75,1359.85 625.72,2776.57 1035.78,4032.62 178.51,546.89 475.29,1376.86 790.8,1736.68 238.92,272.5 507.73,289.04 941.82,177.22 206.95,-53.34 787.66,-254.16 915.51,-357.19 255.73,-1009.54 -1574.81,-5609.04 -1818.14,-6919.52 -699.52,455.42 -1273.48,701.8 -1865.78,1330.2z"/>
   <path class="fil1" d="M25111.56 5453.74c-342.22,-563.51 -1269.08,-1012.29 -1833.38,-1323.52l-1020.85 3261.69c-239.35,794.58 -820.93,2668.76 -755.93,3534.43 165.63,213.67 1690.41,719.75 1914.76,319.2 139.36,-248.78 546.15,-1500.23 649.84,-1843.82 193.71,-641.91 386.76,-1266.53 563.94,-1930.94 149.92,-562.05 429.73,-1438.99 481.62,-2017.03z"/>
  </g>
  <g id="_2750718551632">
   <path class="fil2" d="M34315.83 5149.66l2931.09 0c926.07,0 1627.8,54.01 2105.21,163.82 477.3,108.09 861.7,329.53 1155.26,660.84 293.6,333.07 439.08,867.83 439.08,1606 0,498.78 -102.59,846.26 -310.25,1042.53 -207.66,198.04 -618.18,347.48 -1229.25,453.69 682.67,117.08 1145.71,309.74 1389.23,577.96 243.44,270.07 365.16,682.4 365.16,1240.57l0 792.22c0,577.96 -88.33,1004.71 -262.57,1283.77 -174.23,277.26 -451.14,468.14 -833.03,570.74 -381.85,102.67 -1164.76,153.06 -2348.69,153.06l-3401.24 0 0 -8545.2zm2950.22 1458.4l0 1901.32c124.04,-3.57 219.56,-5.38 288.73,-5.38 281.66,0 463.08,-54.01 539.43,-160.25 78.79,-107.97 117.01,-415.87 117.01,-921.87 0,-268.22 -31.03,-455.5 -95.48,-563.55 -64.41,-106.24 -147.96,-174.63 -250.67,-203.46 -102.63,-27.02 -303.1,-43.2 -599.01,-46.82zm0 3230.15l0 2398.26c405.69,-10.8 665.9,-59.43 778.04,-147.68 112.21,-88.22 167.12,-306.05 167.12,-651.76l0 -799.41c0,-367.32 -50.12,-588.8 -150.43,-667.99 -100.24,-77.42 -365.16,-120.62 -794.73,-131.42zm11645.42 -4688.54l0 5712.97c0,648.19 -28.59,1103.76 -83.5,1364.8 -57.31,262.92 -221.92,532.99 -496.42,808.44 -274.47,277.3 -637.27,486.13 -1086.09,628.39 -451.02,142.22 -980.91,214.22 -1592.02,214.22 -675.41,0 -1272.18,-84.56 -1787.77,-253.89 -517.91,-169.24 -904.51,-388.84 -1159.93,-658.99 -257.81,-271.84 -408.21,-558.13 -455.93,-858.79 -45.4,-300.71 -69.28,-934.44 -69.28,-1897.71l0 -5059.44 2950.22 0 0 6409.78c0,372.74 26.24,612.13 78.75,714.84 52.47,104.36 159.9,156.6 319.83,156.6 181.42,0 300.74,-57.62 353.3,-171.01 52.47,-115.24 78.71,-385.31 78.71,-810.29l0 -6299.93 2950.14 0zm4093.57 0l0 8545.2 -2950.22 0 0 -8545.2 2950.22 0zm4126.92 0l0 6838.3 1775.76 0 0 1706.9 -4725.97 0 0 -8545.2 2950.22 0zm2496.65 0l2203.01 0c1420.18,0 2382.12,48.59 2883.33,147.64 501.25,99.02 883.18,261.07 1143.32,486.13 260.17,225.1 424.86,475.37 489.31,750.82 64.38,277.3 97.92,819.2 97.92,1629.49l0 2992.36c0,767.04 -47.8,1280.16 -143.32,1537.66 -95.4,259.27 -262.49,462.72 -498.82,608.56 -238.61,145.88 -532.24,246.7 -883.07,306.09 -348.54,57.62 -876.04,86.45 -1580.16,86.45l-3711.53 0 0 -8545.2zm2950.18 1458.4l0 5628.4c417.67,0 675.37,-64.89 770.89,-192.65 97.92,-129.65 145.6,-478.98 145.6,-1049.68l0 -3323.74c0,-387.08 -16.69,-635.58 -47.68,-745.44 -33.54,-109.82 -105.11,-189.04 -222.03,-239.47 -114.57,-52.16 -329.42,-77.42 -646.78,-77.42z"/>
   <path class="fil3" d="M76942.93 8876.74l-2950.22 0 0 -1483.69c0,-432.05 -31.03,-700.35 -93.01,-808.4 -62.06,-106.24 -200.51,-160.25 -412.96,-160.25 -238.73,0 -391.51,64.89 -455.97,194.5 -64.38,131.42 -97.8,412.29 -97.8,844.42l0 3964.71c0,415.9 33.42,685.93 97.8,813.82 64.45,126 210.09,189.04 434.44,189.04 217.24,0 360.45,-63.04 427.26,-190.81 66.85,-126.12 100.24,-424.98 100.24,-894.85l0 -1074.93 2950.22 0 0 333.11c0,885.86 -83.5,1514.21 -248.23,1883.3 -164.69,370.93 -532.28,694.97 -1097.95,974.07 -568.1,279.06 -1265.08,417.71 -2095.67,417.71 -861.7,0 -1572.93,-117.01 -2133.84,-352.87 -558.56,-235.86 -930.91,-561.78 -1112.37,-979.49 -181.34,-417.75 -272.03,-1044.3 -272.03,-1881.53l0 -2495.47c0,-615.79 28.59,-1076.7 83.54,-1384.6 57.27,-307.89 221.92,-604.98 501.18,-889.47 276.98,-284.44 661.23,-509.54 1152.9,-673.37 491.71,-163.86 1057.42,-244.89 1697.08,-244.89 866.45,0 1582.43,126.04 2148.18,379.93 563.27,252.08 933.26,567.16 1112.21,945.28 176.67,378.08 265,965.04 265,1762.68l0 812.05zm7771.56 1281.93c0,858.87 -26.24,1465.62 -81.15,1822.1 -52.47,358.29 -219.56,684.21 -501.21,979.45 -281.62,295.32 -663.51,522.19 -1143.32,680.63 -479.77,158.44 -1038.25,237.63 -1675.52,237.63 -606.24,0 -1148.11,-75.65 -1630.27,-225.06 -482.13,-149.45 -871.17,-372.7 -1162.37,-671.56 -293.6,-298.86 -467.83,-624.78 -525.13,-975.88 -54.91,-352.87 -83.54,-968.65 -83.54,-1847.32l0 -1462.01c0,-858.83 26.24,-1465.58 81.11,-1822.1 52.63,-358.32 219.68,-684.21 501.33,-979.49 281.58,-295.25 663.51,-522.11 1143.28,-680.55 479.69,-158.44 1038.29,-237.7 1675.6,-237.7 606.24,0 1148.07,75.65 1630.2,225.1 482.13,149.41 871.24,372.74 1162.41,671.6 293.64,298.86 467.87,624.7 525.1,975.8 54.83,352.94 83.5,968.73 83.5,1847.36l0 1462.01zm-2950.14 -2806.98c0,-396.15 -28.59,-649.96 -85.9,-761.58 -57.27,-109.86 -174.23,-165.71 -350.9,-165.71 -150.35,0 -264.92,45.01 -346.03,135.03 -78.87,88.29 -119.36,352.94 -119.36,792.26l0 3988.12c0,495.09 26.24,801.21 78.71,916.45 52.55,117.01 174.31,174.63 365.24,174.63 195.68,0 322.23,-66.65 377.14,-199.84 54.87,-133.23 81.11,-451.92 81.11,-954.32l0 -3925.04zm5862.22 4603.9l0 1739.27 -2133.88 0 0 -1739.27 2133.88 0z"/>
  </g>
 </g>
</svg>
