<?xml version="1.0" encoding="UTF-8"?>
<!DOCTYPE svg PUBLIC "-//W3C//DTD SVG 1.1//EN" "http://www.w3.org/Graphics/SVG/1.1/DTD/svg11.dtd">
<!-- Creator: CorelDRAW 2021 (64-Bit) -->
<svg xmlns="http://www.w3.org/2000/svg" xml:space="preserve" width="71.3574mm" height="79.375mm" version="1.1" style="shape-rendering:geometricPrecision; text-rendering:geometricPrecision; image-rendering:optimizeQuality; fill-rule:evenodd; clip-rule:evenodd"
viewBox="0 0 392.2 436.27"
 xmlns:xlink="http://www.w3.org/1999/xlink"
 xmlns:xodm="http://www.corel.com/coreldraw/odm/2003">
 <defs>
  <style type="text/css">
   <![CDATA[
    .fil0 {fill:orange}
   ]]>
  </style>
 </defs>
 <g id="Capa_x0020_1">
  <metadata id="CorelCorpID_0Corel-Layer"/>
  <g id="_2714459099344">
   <path class="fil0" d="M347.73 373.13c-1.74,26.86 -39.76,19.8 -65.34,19.8l-170.63 0c-26.14,0 -65.6,7.3 -67.28,-19.8l-2.3 -4.64 0.32 -150.32c8.87,-2.93 298.33,-2.93 306.74,0l0.52 150.23 -2.03 4.72zm-304.58 -200.56c0,-78.59 -9.69,-85.31 44.18,-85.31 -0.21,21.34 -1.88,42.37 20.6,43.25 24.07,0.94 22.67,-21.66 22.46,-43.25 43.82,0 87.64,0 131.46,0 -0.21,21.26 -1.87,42.43 20.59,43.22 24.12,0.85 22.67,-21.59 22.46,-43.22 55.32,0 43.43,8.45 44.2,87.25l-305.94 -1.94zm45.04 -156.33l-0.7 27.34c-8.47,2.95 -20.35,1.88 -29.45,1.37 -19.5,-0.24 -33.66,12.01 -42.37,21.88 -11.55,13.1 -15.71,25.59 -15.67,47.49l0.01 254.17c0.67,56.42 40.94,60.46 57.15,67.77l277.86 0c16.52,-7.38 56.57,-11.78 57.19,-67.81l-0 -254.14c-0.29,-39.65 -26.79,-69.75 -58.02,-69.36 -9.1,0.51 -20.98,1.58 -29.74,-1.37l-0.41 -27.35c-3.21,-10.58 -7.1,-10.8 -14.69,-16.24l-11.95 0c-6.78,4.88 -11.36,6.29 -14.75,15.93l-0.7 27.58c-8.53,2.8 -123.1,2.8 -131.9,0l-0.43 -27.59c-4.22,-12.38 -6.96,-10.18 -15.67,-15.93l-11.05 0c-6.27,4.51 -11.98,7.09 -14.68,16.24z"/>
   <path class="fil0" d="M103.62 262.84c-13.09,3.8 -16.26,10.15 -16.4,25.98 -0.08,9.56 -1.01,35.62 0.73,43.41 2.84,12.67 12.2,16.64 25.64,16.86 34.99,0.57 60.32,6.85 60.57,-27.12 0.28,-36.9 6.41,-60.14 -27.38,-60.3 -11.53,-0.05 -33.6,-1.62 -43.16,1.16z"/>
   <path class="fil0" d="M44.49 373.13l-0.05 -154.63 301.94 0.09 1.35 154.54 2.03 -4.72 -0.52 -150.23c-8.41,-2.93 -297.87,-2.93 -306.74,0l-0.32 150.32 2.3 4.64z"/>
   <path class="fil0" d="M262.62 15.93l-2.35 27.21 -128.33 0c0,-4.68 0.1,-9.41 0.09,-14.08l-2.44 -13.13 0.43 27.59c8.8,2.79 123.37,2.79 131.9,-0l0.7 -27.58z"/>
   <path class="fil0" d="M58.03 44.96c9.1,0.51 20.98,1.58 29.45,-1.37l0.7 -27.34 -1.46 3.23c-1.89,7.08 0.08,-2.74 -0.74,3.67 -0.1,0.77 -0.06,4.87 -0.06,5.9 -0.01,4.72 0.08,9.49 0.08,14.23 -8.39,-0.16 -21.92,-1.86 -27.97,1.69z"/>
   <path class="fil0" d="M334.18 44.96c-6.05,-3.54 -19.58,-1.85 -27.97,-1.69l-2.18 -27.03 0.41 27.35c8.76,2.95 20.64,1.88 29.74,1.37z"/>
  </g>
 </g>
</svg>
