<?xml version="1.0" encoding="UTF-8"?>
<!DOCTYPE svg PUBLIC "-//W3C//DTD SVG 1.1//EN" "http://www.w3.org/Graphics/SVG/1.1/DTD/svg11.dtd">
<!-- Creator: CorelDRAW 2021 (64-Bit) -->
<svg xmlns="http://www.w3.org/2000/svg" xml:space="preserve" width="47.0191mm" height="67.3721mm" version="1.1" style="shape-rendering:geometricPrecision; text-rendering:geometricPrecision; image-rendering:optimizeQuality; fill-rule:evenodd; clip-rule:evenodd"
viewBox="0 0 218.34 312.85"
 xmlns:xlink="http://www.w3.org/1999/xlink"
 xmlns:xodm="http://www.corel.com/coreldraw/odm/2003">
 <defs>
  <style type="text/css">
   <![CDATA[
    .fil0 {fill:orange}
   ]]>
  </style>
 </defs>
 <g id="Capa_x0020_1">
  <metadata id="CorelCorpID_0Corel-Layer"/>
  <path class="fil0" d="M100.81 61.95c61.85,-12.1 78.64,82.86 17.95,94.24 -62.42,11.71 -81.51,-81.8 -17.95,-94.24zm8.45 250.91c8.81,-9.5 42.77,-65.7 53.09,-81.58 9.06,-13.92 17.1,-27.8 25.58,-41.52 7,-11.31 18.89,-28.98 23.38,-41.58 27.47,-77.11 -29.67,-148.17 -102.06,-148.17 -72.83,0 -130.8,72.38 -101.5,149.7 4.75,12.54 17.38,31.21 24.41,42.64 9.04,14.69 16.11,26.68 24.83,40.19 9.53,14.78 43.84,71.24 52.27,80.32z"/>
 </g>
</svg>
