<?xml version="1.0" encoding="UTF-8"?>
<!DOCTYPE svg PUBLIC "-//W3C//DTD SVG 1.1//EN" "http://www.w3.org/Graphics/SVG/1.1/DTD/svg11.dtd">
<!-- Creator: CorelDRAW 2021 (64-Bit) -->
<svg xmlns="http://www.w3.org/2000/svg" xml:space="preserve" width="90.1796mm" height="90.3574mm" version="1.1" style="shape-rendering:geometricPrecision; text-rendering:geometricPrecision; image-rendering:optimizeQuality; fill-rule:evenodd; clip-rule:evenodd"
viewBox="0 0 505.55 506.55"
 xmlns:xlink="http://www.w3.org/1999/xlink"
 xmlns:xodm="http://www.corel.com/coreldraw/odm/2003">
 <defs>
  <style type="text/css">
   <![CDATA[
    .fil0 {fill:orange}
   ]]>
  </style>
 </defs>
 <g id="Capa_x0020_1">
  <metadata id="CorelCorpID_0Corel-Layer"/>
  <path class="fil0" d="M-0 114.11c0,42.67 5.2,51.05 20.31,91.61 18.69,50.16 37.65,87.2 73.04,126.91l39.63 43.37c8.19,8.19 15.54,14.64 23.87,22.66 14.45,13.92 50.78,41.61 66.93,51.28 42.71,25.57 40.25,21.27 80.91,37.3 61.87,24.39 104.58,30.18 163.39,-9.42 10.15,-6.83 21.01,-16.05 26.6,-27.47 7.66,-15.65 10.86,-35.97 10.86,-54.54 0,-7.27 -5.87,-9.9 -10.79,-13.1l-62.22 -34.61c-5.4,-3.26 -10.27,-5.84 -15.9,-9.25 -25.74,-15.61 -32.64,-34.13 -69.56,14.2 -35.8,46.87 -36.75,36.5 -68.33,19.31 -30.42,-16.56 -57.93,-36.78 -82.25,-61.11 -24.96,-24.96 -44.34,-50.87 -61.55,-81.82 -20.11,-36.15 -26.49,-35.63 16.69,-69.31 50.29,-39.23 30.66,-43.13 13.97,-73.27l-41.83 -75.13c-1.24,-1.82 -4.7,-6.72 -5.93,-7.91 -5.26,-5.11 -13.32,-3.89 -21.13,-2.99 -32.42,3.74 -50.7,10.63 -67.81,36.58 -13.55,20.55 -28.92,49.52 -28.92,76.72z"/>
 </g>
</svg>
