<?xml version="1.0" encoding="UTF-8"?>
<!DOCTYPE svg PUBLIC "-//W3C//DTD SVG 1.1//EN" "http://www.w3.org/Graphics/SVG/1.1/DTD/svg11.dtd">
<!-- Creator: CorelDRAW 2021 (64-Bit) -->
<svg xmlns="http://www.w3.org/2000/svg" xml:space="preserve" width="69.0228mm" height="69.1484mm" version="1.1" style="shape-rendering:geometricPrecision; text-rendering:geometricPrecision; image-rendering:optimizeQuality; fill-rule:evenodd; clip-rule:evenodd"
viewBox="0 0 5261.09 5270.66"
 xmlns:xlink="http://www.w3.org/1999/xlink"
 xmlns:xodm="http://www.corel.com/coreldraw/odm/2003">
 <defs>
  <style type="text/css">
   <![CDATA[
    .fil0 {fill:black}
   ]]>
  </style>
 </defs>
 <g id="Capa_x0020_1">
  <metadata id="CorelCorpID_0Corel-Layer"/>
  <g id="_2750305069424">
   <path class="fil0" d="M2705.24 997.01c560.07,456.37 581.99,1212.34 190.93,1707.69 -444.45,563.02 -1222.88,581.11 -1708.54,193.46 -525.1,-419.11 -615.34,-1176.89 -193.92,-1711 443.33,-561.87 1228.64,-583.64 1711.53,-190.14zm-2079.09 -479.39l-109.52 109.52c-183.18,183.19 -341.21,473.57 -401.61,657.12 -55.11,167.51 -105.5,356.65 -111.87,533.91 -3.92,109.07 -5.76,178.15 4.13,292.05 5.02,57.89 11.02,107.07 19.65,164.28 48.48,321.23 234.96,735.49 489.7,990.23 225.39,225.39 379.71,350.92 675.37,476 95.42,40.36 186.65,68.4 282.93,92.73 88.86,22.46 197.12,43.28 287.49,49.35 24.66,1.65 43.57,5.07 68.45,4.86l141.46 4.55c29.63,0.18 45.44,-4.37 73.01,-4.77 153.45,-2.23 279.4,-32.35 424.38,-67.65 113.46,-27.63 284.52,-99.33 392.44,-158.16 16.12,-8.8 21.88,-19.1 36.5,-4.47l1218.41 1218.41c90.13,90.14 147.09,163.69 241.85,234.37 97.19,72.49 159.86,104.87 255.54,135.4 173.68,55.38 370.58,21.73 511.09,-118.79 208.16,-208.17 152.64,-541.67 -5.98,-752.94 -76.37,-101.73 -141.71,-152.25 -235.89,-246.43l-1227.53 -1227.53c-16.4,-16.4 0.04,-25.19 21.69,-68.45 109.55,-218.85 208.75,-535.84 208.62,-780.32l4.83 -141.46c0.56,-221.59 -65.82,-510.64 -149.63,-711.88 -121.71,-292.18 -244.51,-446.47 -477.95,-679.93 -252.4,-252.39 -652.69,-435.57 -985.66,-489.01 -56.45,-9.06 -108.51,-16.22 -164.29,-20.05 -18.11,-1.24 -22.5,-3.75 -41.07,-4.42 -15.5,-0.56 -25.32,1.09 -41.06,-0.3 -129.39,-11.46 -286.75,4.7 -415.27,24.09 -111.84,16.88 -215.83,49.42 -328.56,86.59 -187.6,61.86 -476.57,218 -661.68,403.11z"/>
  </g>
 </g>
</svg>
