<?xml version="1.0" encoding="UTF-8"?>
<!DOCTYPE svg PUBLIC "-//W3C//DTD SVG 1.1//EN" "http://www.w3.org/Graphics/SVG/1.1/DTD/svg11.dtd">
<!-- Creator: CorelDRAW 2021 (64-Bit) -->
<svg xmlns="http://www.w3.org/2000/svg" xml:space="preserve" width="102.108mm" height="93.8106mm" version="1.1" style="shape-rendering:geometricPrecision; text-rendering:geometricPrecision; image-rendering:optimizeQuality; fill-rule:evenodd; clip-rule:evenodd"
viewBox="0 0 6282.97 5772.42"
 xmlns:xlink="http://www.w3.org/1999/xlink"
 xmlns:xodm="http://www.corel.com/coreldraw/odm/2003">
 <defs>
  <style type="text/css">
   <![CDATA[
    .fil0 {fill:white}
   ]]>
  </style>
 </defs>
 <g id="Capa_x0020_1">
  <metadata id="CorelCorpID_0Corel-Layer"/>
  <path class="fil0" d="M4115.11 1771.3c-18.85,-33.45 -127.91,-120.86 -168.48,-148.73 -66.26,-45.52 -126.38,-79.81 -203.32,-114.73 -360.32,-163.5 -780.43,-132.64 -1132.73,24.03 -86.52,38.48 -162.13,85.72 -235.15,134.91 -78.85,53.11 -137.86,110.46 -199.87,170.22 -254.71,245.5 -438.39,648.44 -438.16,1038.79 0.39,676.51 476.29,1320.69 1159.74,1463.52 187.39,39.16 402.14,38.41 591.14,3.75 284.62,-52.19 330.17,-114.72 529.32,-205.39 27.2,-12.39 28.39,-21.78 44.88,-38.88 71.19,-73.8 66.06,-1.39 249.42,-245.49 44.88,-59.76 87.28,-131.11 119.77,-208.59 19.94,-47.56 77.37,-191.35 73,-251.2 -157.68,-6.37 -457.65,-0.41 -628.61,-0.32l-683.54 0.41 -1.82 -951.76 2319.3 2.23 13.58 97.19c11.61,101.02 24.06,235.24 24.21,334.51 0.62,400.11 -42.8,740.1 -181.17,1074.13 -29.26,70.64 -57.03,129.87 -92.16,199.46 -32.52,64.41 -70.14,122.43 -107.93,183.76 -36.73,59.6 -77.96,118.33 -118.84,172.81 -41.17,54.86 -86.51,113.4 -132.1,159.55 -62.41,63.17 -76.68,61.27 -153.25,138.36 -45.77,46.07 -103.03,86.7 -162.72,129.14 -550.91,391.67 -1291.71,503.69 -1948.91,350.58 -314.44,-73.25 -591.51,-194.76 -856.23,-373.24 -125.16,-84.38 -350.53,-273.13 -450.28,-393.46 -13.81,-16.67 -18.69,-24.08 -35.52,-42.51 -108.66,-118.95 -284.71,-410.01 -351.33,-570.56 -148.32,-357.39 -220.85,-596.71 -222.97,-1007.18 -0.99,-192.11 19.17,-381.61 59.5,-555.66 38.97,-168.14 96.96,-313.36 157.29,-457.57 58.51,-139.86 134.99,-271.44 216.57,-397.96 84.64,-131.27 179.24,-231.47 282.77,-331.91l158.7 -148.56c109.26,-99.31 232.03,-178.79 358.9,-255.45 317.55,-191.87 788.45,-326.8 1209.85,-326.86 600.34,-0.09 1063.47,165.7 1506.84,508.81l144.56 135.23 -257.99 274.68c-59.71,52.49 -188.64,192.08 -267.03,264.38 -55.96,51.61 -119.8,122.01 -189.23,165.55zm-4115.11 -421.97l0 3073.75c0,188.14 68.21,418.03 131.92,545.35 79.55,158.99 161.86,277.22 280.95,396.31 81.24,81.24 184.83,162.27 285.49,219.86 35.28,20.18 73.48,42.27 112.85,59.07 172.27,73.54 351.17,128.74 553.74,128.74l3553.06 0c277.94,0 540.67,-99.04 764.86,-251.05 65.56,-44.45 92.31,-74.22 139.44,-110.62 47.07,-36.35 163.95,-170.16 201.26,-225.94 59.8,-89.4 76.28,-114.83 125.72,-212.92 64.65,-128.25 133.68,-358.87 133.68,-548.8l0 -3073.75c0,-427.81 -259.18,-862.72 -597,-1096.18 -219.59,-151.76 -492.21,-253.15 -767.96,-253.15l-3553.06 0c-211.46,0 -370.06,52.9 -550.03,127.23 -68.78,28.41 -153.53,82.26 -214.82,123.82 -116.62,79.08 -262.74,220.02 -340.7,336.57 -59.8,89.4 -76.28,114.83 -125.72,212.92 -64.65,128.25 -133.68,358.87 -133.68,548.8z"/>
 </g>
</svg>
