<?xml version="1.0" encoding="UTF-8"?>
<!DOCTYPE svg PUBLIC "-//W3C//DTD SVG 1.1//EN" "http://www.w3.org/Graphics/SVG/1.1/DTD/svg11.dtd">
<!-- Creator: CorelDRAW 2021 (64-Bit) -->
<svg xmlns="http://www.w3.org/2000/svg" xml:space="preserve" width="57.9533mm" height="68.328mm" version="1.1" style="shape-rendering:geometricPrecision; text-rendering:geometricPrecision; image-rendering:optimizeQuality; fill-rule:evenodd; clip-rule:evenodd"
viewBox="0 0 4923.17 5804.5"
 xmlns:xlink="http://www.w3.org/1999/xlink"
 xmlns:xodm="http://www.corel.com/coreldraw/odm/2003">
 <defs>
  <style type="text/css">
   <![CDATA[
    .fil0 {fill:#9D98CA;fill-rule:nonzero}
   ]]>
  </style>
 </defs>
 <g id="Capa_x0020_1">
  <metadata id="CorelCorpID_0Corel-Layer"/>
  <path class="fil0" d="M3612.46 3642.07l-610.96 0 -729.84 1264.06c-343.85,598.92 -751.66,898.38 -1223.42,898.38 -289.68,0 -532.71,-103.84 -729.09,-312.25 -196.38,-208.42 -294.19,-466.5 -294.19,-773.48 0,-250.55 76,-491.33 227.23,-723.07 151.24,-231.75 358.15,-424.36 619.24,-577.09 195.62,-112.12 412.32,-190.37 650.84,-236.26 237.76,-45.89 554.52,-68.47 950.29,-68.47l163.28 0 173.81 -319.77c243.03,-445.43 538.73,-742.63 888.6,-890.86 224.97,-95.55 519.17,-143.71 881.83,-143.71 92.55,0 165.53,20.32 218.2,61.7 53.43,41.38 79.76,98.57 79.76,172.31 0,33.85 -9.03,72.98 -26.33,118.88l-20.32 50.41 -379.21 951.05 167.79 0 57.18 0c164.03,0 246.04,71.49 246.04,214.44 0,86.53 -33.86,161.02 -101.58,221.96 -66.97,60.95 -148.98,91.8 -246.04,91.8l-59.44 0 -277.64 0 -245.29 600.42 359.66 0 57.18 0c164.78,0 246.79,70.73 246.79,212.18 0,88.03 -33.86,163.28 -101.58,224.22 -67.71,60.95 -149.73,91.8 -246.79,91.8l-59.44 0 -471.76 0c-126.41,0 -229.49,-32.36 -309.25,-97.81 -80.51,-65.46 -120.38,-150.48 -120.38,-255.07 0,-80.51 30.1,-195.62 90.29,-343.85l174.56 -431.89zm215.94 -528.2l317.52 -783.26c-155.76,9.79 -287.42,59.44 -393.52,148.98 -106.84,88.79 -228.73,250.55 -364.92,484.56l-90.29 149.73 531.2 0zm-1495.05 528.2l-187.35 0c-419.85,0 -753.16,78.25 -1000.71,234 -157.26,100.07 -282.15,224.97 -375.46,374.71 -93.3,150.48 -139.95,301.72 -139.95,454.45 0,139.95 45.14,259.58 134.68,358.91 89.54,99.32 197.88,148.98 325.79,148.98 221.96,0 418.34,-147.47 588.38,-440.92l654.6 -1130.12z"/>
  <path class="fil0" d="M2376.12 1685.41l464.99 1266.31c41.38,109.1 129.41,163.28 264.85,163.28l714.04 0c206.91,0 310.75,72.98 310.75,218.2 0,99.32 -36.87,177.57 -109.85,234 -73.74,56.43 -176.07,85.02 -306.99,85.02l-731.35 0c-194.12,0 -331.06,-27.08 -410.07,-80.51 -79.75,-53.42 -151.24,-165.53 -215.94,-336.33l-584.62 -1578.56 -456.72 1122.6c-88.03,220.46 -213.68,331.07 -376.95,331.07 -67.72,0 -126.41,-21.82 -174.56,-66.22 -48.91,-43.64 -72.98,-96.31 -72.98,-156.5 0,-48.16 12.79,-103.84 37.62,-167.04l26.33 -63.96 573.34 -1410.02c86.53,-214.44 130.17,-362.66 130.17,-445.43 0,-71.48 -31.6,-133.92 -94.05,-185.85 -62.46,-51.91 -135.44,-78.25 -219.71,-78.25 -149.73,0 -284.41,62.45 -404.8,188.11 -119.64,124.89 -179.82,265.6 -179.82,421.35 0,170.05 92.55,288.18 277.64,353.63 112.87,39.88 169.29,108.35 169.29,206.91 0,82.01 -32.35,149.73 -96.31,203.15 -63.95,53.43 -144.46,80.51 -240.02,80.51 -184.33,0 -342.34,-77.49 -473.27,-233.25 -131.66,-155.75 -197.13,-340.84 -197.13,-556.78 0,-321.28 120.38,-601.18 360.4,-841.2 240.78,-240.02 522.93,-359.66 846.46,-359.66 241.52,0 442.42,70.73 604.19,211.43 161.76,140.7 243.03,316.01 243.03,527.44 0,149.73 -38.37,318.27 -114.37,505.62l-77.5 187.35 1156.46 -1209.13c124.9,-130.16 239.27,-195.62 341.6,-195.62 70.72,0 129.41,23.33 176.06,69.22 47.4,46.65 70.73,104.59 70.73,175.31 0,86.53 -59.44,192.62 -178.33,316.77l-1052.62 1097.02z"/>
 </g>
</svg>
