<?xml version="1.0" encoding="UTF-8"?>
<!DOCTYPE svg PUBLIC "-//W3C//DTD SVG 1.1//EN" "http://www.w3.org/Graphics/SVG/1.1/DTD/svg11.dtd">
<!-- Creator: CorelDRAW 2021 (64-Bit) -->
<svg xmlns="http://www.w3.org/2000/svg" xml:space="preserve" width="70.4426mm" height="70.5274mm" version="1.1" style="shape-rendering:geometricPrecision; text-rendering:geometricPrecision; image-rendering:optimizeQuality; fill-rule:evenodd; clip-rule:evenodd"
viewBox="0 0 7355.49 7364.34"
 xmlns:xlink="http://www.w3.org/1999/xlink"
 xmlns:xodm="http://www.corel.com/coreldraw/odm/2003">
 <defs>
  <style type="text/css">
   <![CDATA[
    .fil0 {fill:white}
   ]]>
  </style>
 </defs>
 <g id="Capa_x0020_1">
  <metadata id="CorelCorpID_0Corel-Layer"/>
  <g id="_1819776416368">
   <path class="fil0" d="M1954.77 4483.88c-11.4,-22.6 -8.25,-25.25 -7.91,-63.4 1.55,-177.47 -7.33,-1037.07 3.36,-1099.94 74.83,-29.49 933.84,13.95 1026.09,-14.05 23.61,-389.33 -33.73,-823.32 24.01,-1208.13 34.7,-231.29 123.03,-493.53 256.06,-672.06 23.34,-31.3 40.93,-53.32 65.67,-84.44 26.81,-33.73 48.37,-51.33 78.19,-81.13l167.26 -142.05c188.18,-135.24 441,-216.02 683.88,-245.57 259.84,-31.6 602.45,-5.49 870.75,25.3 93.84,10.77 191.93,30.05 281.87,37.49l0 992.94c-441,0 -828.55,-62.38 -1052.43,230.18 -146.89,191.94 -115.08,561.66 -115.08,838 0,80.26 -9.19,252.61 3.5,321.85l1115.97 1.64c-27.83,196.17 -59.51,390.44 -89.06,585.15l-66.71 436.38c-7.64,47.82 -10.37,136.31 -37.18,142.77l-924.01 0.09 -2.58 2824.55c-571.86,67.82 -688.54,65.06 -1257,0.15l-2.32 -2822.72 -1022.32 -3zm-1954.77 -2468.2l0 3332.97c0,302.68 103.6,631.89 206.28,836.92 145.8,291.12 326.48,519 577.76,721.83 49.74,40.16 101.02,78.01 152.96,112.27 356.25,235.01 749.22,344.66 1228.98,344.66l3023.53 0c517.69,0 998.56,-141.62 1372.36,-448.83 76.44,-62.82 207.83,-178.66 269.41,-252.19 298.65,-356.69 524.21,-808.18 524.21,-1314.67l0 -3332.97c0,-294.04 -100.43,-626.32 -200.38,-825.14 -131.07,-260.68 -221.76,-388.24 -433.94,-600.43 -179.39,-179.38 -383.23,-311.65 -618.04,-416.33 -237.19,-105.73 -521.45,-173.79 -860.57,-173.79l-3129.62 0c-572.82,0 -1101.23,212.73 -1474.19,585.7 -87.39,87.38 -170.1,171.02 -240.86,271.9 -227.01,323.67 -397.89,726.8 -397.89,1158.08z"/>
   <path class="fil0" d="M1954.77 4483.88l0 -1160.94 998.25 0.29c25.96,-6.15 9.59,1.69 23.29,-16.75 -92.24,28 -951.26,-15.43 -1026.09,14.05 -10.69,62.87 -1.82,922.47 -3.36,1099.94 -0.33,38.15 -3.49,40.81 7.91,63.4z"/>
  </g>
 </g>
</svg>
