<?xml version="1.0" encoding="UTF-8"?>
<!DOCTYPE svg PUBLIC "-//W3C//DTD SVG 1.1//EN" "http://www.w3.org/Graphics/SVG/1.1/DTD/svg11.dtd">
<!-- Creator: CorelDRAW 2021 (64-Bit) -->
<svg xmlns="http://www.w3.org/2000/svg" xml:space="preserve" width="238.195mm" height="261.817mm" version="1.1" style="shape-rendering:geometricPrecision; text-rendering:geometricPrecision; image-rendering:optimizeQuality; fill-rule:evenodd; clip-rule:evenodd"
viewBox="0 0 32560.18 35789.14"
 xmlns:xlink="http://www.w3.org/1999/xlink"
 xmlns:xodm="http://www.corel.com/coreldraw/odm/2003">
 <defs>
  <style type="text/css">
   <![CDATA[
    .fil1 {fill:#7BCDD1;fill-rule:nonzero}
    .fil0 {fill:#9D98CA;fill-rule:nonzero}
    .fil3 {fill:#F28080;fill-rule:nonzero}
    .fil2 {fill:#F2C4BB;fill-rule:nonzero}
   ]]>
  </style>
 </defs>
 <g id="Capa_x0020_1">
  <metadata id="CorelCorpID_0Corel-Layer"/>
  <path class="fil0" d="M16525.03 35303.05l-13.01 0c-320.52,-5.47 -599.41,-221.57 -684.8,-530.47l-8287.57 -18897.09 -3221.28 13579.08c-80.46,321.88 -369.86,547.86 -701.73,547.86 -295.75,0 -561.91,-180.25 -671.69,-454.8l-1747.1 -4367.54 -474.51 0c-399.41,-0.01 -723.34,-323.94 -723.34,-723.35 0,-399.41 323.93,-723.34 723.35,-723.34l964.44 0c0.05,0 0.14,0 0.14,0 295.75,0 561.83,180.15 671.6,454.72l1098.05 2745.32 3315.33 -13261.29c79.79,-319.01 365.03,-544.29 693.97,-547.82l7.68 0.04c326.03,0 611.97,218.38 697.82,532.87l8227.28 18867.21 8980.11 -31991.09c94.11,-302.11 374.05,-508.06 690.56,-508.06 295.84,0 561.91,180.34 671.78,454.98l3169.66 4608.22 1925.07 0c399.42,0 723.35,323.94 723.35,723.35 0,399.41 -323.95,723.34 -723.35,723.34l-1928.91 0.01c-0.04,-0.01 -0.12,-0.01 -0.12,-0.01 -295.75,0 -561.82,-180.16 -671.6,-454.72l-3082.9 -4044.95 -9007.13 32829.18c-94.21,302.01 -304.63,438.34 -621.05,438.34 0,0 -0.08,0 -0.08,0l0.01 0.01 -0.01 0z"/>
  <path class="fil1" d="M16629.15 35319.66c0.01,-0.01 -0.15,0.01 -0.15,0.01 -321.66,47.61 -635.72,-125.4 -767.3,-422.66l-9074.68 -20766.88c-27.19,-60.47 -45.98,-124.64 -55.7,-190.33 -58.49,-395.12 214.5,-762.99 609.62,-821.48 324.88,-48.09 641.48,128.84 770.78,430.63l9074.68 20766.87c25.22,58.18 42.87,119.57 52.16,182.38 58.49,395.04 -214.41,762.9 -609.44,821.46l0.03 0.01z"/>
  <path class="fil2" d="M26138.76 35789.14c-399.42,-0.01 -723.35,-323.94 -723.35,-723.36l0 -34342.42c0,-399.42 323.93,-723.35 723.35,-723.35 399.42,0 723.35,323.95 723.35,723.35l0 34342.44c0,399.41 -323.93,723.34 -723.35,723.34l0 0.01z"/>
  <circle class="fil2" cx="25618.02" cy="10624.93" r="2474.78"/>
  <path class="fil3" d="M25618.02 14027.79c-1879.03,0 -3402.84,-1523.83 -3402.84,-3402.84 0,-1879.03 1523.83,-3402.84 3402.84,-3402.84 1879.03,0 3402.84,1523.83 3402.84,3402.84 -2.09,1877.89 -1524.93,3400.78 -3403.03,3402.84l0.18 0 0.01 0zm3402.84 -8352.43c-296.57,-110.86 -611.18,-168.3 -928.05,-168.3 -1459.5,0 -2643.09,1183.6 -2643.09,2643.07 0,1101.66 683.78,2088.08 1715.06,2474.64 -0.01,-853.95 -692.66,-1546.6 -1546.76,-1546.6l3402.84 -3402.84 0 0.03z"/>
 </g>
</svg>
