<?xml version="1.0" encoding="UTF-8"?>
<!DOCTYPE svg PUBLIC "-//W3C//DTD SVG 1.1//EN" "http://www.w3.org/Graphics/SVG/1.1/DTD/svg11.dtd">
<!-- Creator: CorelDRAW 2021 (64-Bit) -->
<svg xmlns="http://www.w3.org/2000/svg" xml:space="preserve" width="152.085mm" height="152.942mm" version="1.1" style="shape-rendering:geometricPrecision; text-rendering:geometricPrecision; image-rendering:optimizeQuality; fill-rule:evenodd; clip-rule:evenodd"
viewBox="0 0 3251.94 3270.25"
 xmlns:xlink="http://www.w3.org/1999/xlink"
 xmlns:xodm="http://www.corel.com/coreldraw/odm/2003">
 <defs>
  <style type="text/css">
   <![CDATA[
    .fil0 {fill:white}
    .fil1 {fill:white;fill-rule:nonzero}
   ]]>
  </style>
 </defs>
 <g id="Capa_x0020_1">
  <metadata id="CorelCorpID_0Corel-Layer"/>
  <g id="_2334079761664">
   <path class="fil0" d="M201.21 1587.21c76.17,0 146.47,1.81 222.68,1.81l278.8 0c0.25,11.12 8.3,30.16 11.53,40.97l20.32 84.68c6.65,26.8 15.92,54.42 27.26,79.55 5.83,12.9 9.77,24.01 15.7,36.8 5.67,12.23 11.72,23.36 17.51,34.99 14.23,28.61 32.46,56 48.8,83.36l21.82 30.68c15.59,20.01 73.39,92.55 87.05,106.66 0.26,0.27 0.64,0.65 0.9,0.91 16.4,16.21 32.61,34.72 50.16,49.41 80.33,67.26 94.88,77.08 187.66,130.96 10.77,6.25 22.88,12.97 34.73,17.77 13.49,5.46 23.02,11.51 36.99,17.32 52.65,21.92 104.34,38.07 160.47,51.35 175.23,41.45 358.26,26.75 526.67,-33.79 29.2,-10.5 59.09,-22.81 86.69,-36.41 36.36,-17.91 71.78,-36.91 105.35,-59.39 8.32,-5.57 15.01,-10.59 23.53,-16.29 32.35,-21.64 74.5,-53.31 101.49,-81.36 4.53,-4.7 5.36,-7.14 9.88,-11.84 12.6,-13.09 30.75,-28.17 41.36,-41.91 15.83,-20.51 38.76,-40.77 56.64,-64.66 6.36,-8.5 11.1,-15.12 17.27,-24.37 11.34,-17.01 20.67,-32.74 31.51,-49.96 5.59,-8.88 10.43,-16.67 16.27,-25.37 3.32,-4.96 13.89,-23.15 18.48,-23.15l206.38 0c0,26.09 -18.57,61.31 -29.52,80.91l-103.71 158.79c-4.05,5.88 -7.67,10.33 -11.59,15.57 -22.24,29.69 -49.53,55.52 -75.62,81.88 -5.33,5.38 -7.08,9.04 -12.61,14.54l-53.43 53.38c-48.39,48.42 -126.29,97.75 -184.31,132.51 -49.4,29.6 -130.03,64.55 -183.41,82.72 -106.68,36.31 -242.62,64.02 -359.6,64.02 -103.8,0 -154.41,-2.73 -252.99,-22.19 -27.64,-5.45 -57.14,-12.72 -84.38,-20.62 -46.21,-13.4 -92.55,-26.56 -135.12,-47.73l-54.33 -25.33c-34.48,-17.24 -68.77,-35.59 -100.66,-56.85 -11.12,-7.42 -20.82,-13.58 -31.23,-21.27 -5.63,-4.16 -9.91,-6.94 -15.79,-11.36 -5.79,-4.35 -9.8,-7.58 -15.62,-11.54 -30.5,-20.75 -60.5,-44.94 -87.03,-70.47l-25.27 -27.23c-9.2,-9.33 -17.72,-15.84 -27.19,-25.31l-25.43 -27.07c-11.96,-14.3 -27.02,-26.42 -38.55,-41.11 -4.53,-5.77 -7.49,-9.85 -11.85,-15.31 -7.96,-9.97 -15.62,-19.37 -23.3,-29.2l-45.25 -59.75c-26.33,-37.08 -85.75,-139.93 -88.71,-175.6 -19.7,0 -32.57,1.81 -52.5,1.81 -71.68,0 -193.54,2.91 -259.44,-1.71 -13.4,-0.94 -7.27,11.88 -0.07,36.74 5.78,19.96 11.49,36.59 18.47,53.94 13.93,34.63 29.54,67.3 46.13,100.51 8.38,16.78 16.57,30.72 25.98,46.43 50.24,83.84 70.22,119.87 129.11,198.57 5.02,6.71 10.17,13.77 15.89,20.32 6,6.87 10.76,12.73 16.43,19.78l52.32 58.11c10.02,10.02 25.8,30.51 34.38,38.03l76.08 68.75c25.97,23.14 53.19,44.61 81.11,65.53l132.14 86.91c15.54,9.41 30.24,17.41 46.68,25.74 8.63,4.37 14.4,8.15 23.51,12.7l48.25 24.16c144.6,64.49 262.87,100.47 423.33,123.4 38.93,5.56 80.33,9.02 122.86,10.54l103.66 0c94.43,-3.23 189.17,-15 270.57,-33.68 46.43,-10.65 89.45,-21.71 132.58,-35.78 42.14,-13.75 82.78,-29.86 123.51,-46.67 19.41,-8.01 37.93,-16.77 56.98,-26.29 9.99,-4.99 17.76,-8.92 27.76,-13.88 28.2,-13.99 55.21,-30.14 81.72,-46.82 52.01,-32.73 103.27,-65.85 151.66,-103.6 31.7,-24.74 62.52,-51.01 90.83,-79.35l103.19 -106.81c4.09,-4.08 6.89,-6.43 10.55,-11.17l46.54 -60.27c21.12,-28.13 44.11,-54.58 61.8,-84.84 2.88,-4.92 5.74,-9.23 8.2,-13.53 10.47,-18.3 20.49,-35.83 30.96,-54.13 10.16,-17.76 21.14,-35.17 31.31,-53.78 5.18,-9.48 10.25,-16.86 15.09,-26.55 14.13,-28.29 28.74,-56.9 40.41,-86.31 24.93,-62.82 46.85,-125.87 63.36,-191.9 11.6,-46.4 22.61,-92.19 30.01,-140.16 1.79,-11.63 4.03,-25.94 4.38,-37.26 0.09,-3.01 1.11,-8.71 1.81,-14.71l0 -16.24c-0.81,-3.18 -2.45,-5.25 -5.43,-5.25l-782.08 0c-15.55,0 -24.17,28.88 -29.58,41.02 -25.79,57.85 -25.19,79.95 -65.79,147.83 -18.26,30.52 -38,55.53 -60.05,82.97l-72.28 70.74c-12.27,10.72 -26.72,20.89 -39.95,30.65 -21.03,15.52 -42.8,28.93 -66.09,40.73 -65.74,33.31 -107.25,51.35 -184.78,66.86 -18.43,3.69 -41.59,8.81 -60.79,9.82 -122.42,6.44 -215.81,-4.68 -327.08,-60.36 -15.89,-7.95 -36.31,-17.96 -53.5,-22.54 -16.43,-4.38 -16.04,-8.9 -33.6,-24.33 -17.61,-15.49 -37.17,-25.92 -57.84,-38.11 -6.33,-3.73 -21.65,-26.75 -36.29,-41.55l-18.07 -19.95c-48.01,-47.93 -80.57,-95.33 -110.29,-159.45 -8.41,-18.14 -17.07,-33.38 -23.45,-52.58 -37.37,-112.29 -40.62,-227.15 -23.9,-344.79 0.58,-4.09 2.3,-12.55 2.82,-17.56 1.03,-9.96 -2.47,-8.34 -12.02,-8.26 -156.94,1.36 -314,-2.37 -470.92,0.22 -22.52,0.37 -16.23,-4.6 -16.23,-27.22 0,-42.96 18.06,-90.11 30.54,-126.96 8.49,-25.06 27.6,-75.65 30.73,-97.8 0.9,-6.39 1.29,-8.89 1.85,-14.44 0.95,-9.35 -1.15,-6.36 4.2,-12.1 20.12,-21.6 28.63,-60.31 41.88,-86.66 3.56,-7.09 8.32,-13.57 12.45,-20.14 40.94,-65.05 78.77,-132.7 129.59,-190.84 29.98,-34.3 59.72,-69.57 94.14,-99.57l34.4 -28.97c6.06,-5.29 11.67,-9.36 17.95,-14.64 6.18,-5.2 11.24,-9.96 17.63,-14.96 32.5,-25.43 54.16,-46.55 92.13,-68.99 94.5,-55.84 147.89,-84.74 262.61,-123 32.68,-10.9 64.16,-20.81 99.93,-28.6 78.5,-17.1 153.43,-28.2 236.11,-28.2 166.75,0 323.19,28.47 470.67,94.16l67.01 32.56c81.69,40.84 126.38,81.45 197.35,135.76 26.72,20.45 48.18,36.66 71.95,60.21 8.64,8.56 14.41,17.75 23.71,25.16l99.11 118.13 78.93 122.02c51.72,85.73 86.28,195 106.3,291.98 4.18,20.25 25.49,91.01 25.49,108.47 19.96,-4.65 257.86,-1.81 298.71,-1.81 0,-122.43 -28.16,-200.98 -64.05,-308.89 -27.61,-83.04 -94.92,-230.57 -142.69,-304.47l-113.23 -154.7c-6.93,-7.78 -12.73,-15.67 -19.35,-24.1 -13.12,-16.71 -28.75,-31.91 -43.1,-47.42 -7.34,-7.94 -15.73,-14.5 -22.57,-22.69 -13.23,-15.83 -29.7,-29.4 -44.42,-44.29 -25.66,-25.95 -92.33,-76.33 -123.19,-99.49 -29.53,-22.16 -59.88,-45.66 -92.43,-63.26l-71.01 -41.23c-28.91,-17.56 -59.9,-30.45 -90.09,-45.68 -57.1,-28.8 -133.01,-56.28 -193.77,-74.17 -77.98,-22.96 -138.97,-35.19 -222.79,-46.96 -132.14,-18.56 -284.04,-12.83 -414.87,9.04 -24.78,4.14 -50.34,8.86 -73.9,14.81 -98.52,24.88 -208.97,56.7 -299.79,102.11 -113.29,56.64 -203.2,110.29 -303.39,189.03 -4.95,3.89 -6.89,6.49 -11.62,10.11l-104.55 96.4c-4.06,4.06 -6.81,6.82 -10.88,10.85 -15.19,15.03 -28.42,32.12 -42.54,47.98 -17.72,19.9 -35.54,39.24 -51.52,60.72l-74.01 103.4c-55.69,83.54 -99.33,174.66 -135.46,268.25l-34.76 99.2c-23.39,71.82 -35.55,147.98 -46.49,223.25 -7.07,48.61 -11.64,108.13 -12.12,163.98l0 7.09c0.22,12.86 1.82,22.68 1.81,37.67 -0.02,28.43 -1.44,61.74 1.54,88.98 1.51,13.82 2.08,29.13 2.08,43.18z"/>
   <path class="fil0" d="M766.04 1074.87l298.71 1.81c52.62,0 59.22,-34.78 103.64,-79.2 56.54,-56.54 100.72,-92.68 175.76,-130.2 52.73,-26.36 123.88,-52.09 184.14,-60.26 26.59,-3.6 56.09,-7.46 83.22,-7.3 12.73,0.07 17.34,-1.96 28.94,-1.96 28.45,0 82.96,7.12 110.59,12.65 26.42,5.28 70.63,16.27 95.27,26.03l44.01 17.54c43.58,19.58 117.22,61.76 149.78,94.62l59.74 61.56c38.14,38.14 49.6,53.25 80.46,104.2 6.45,10.64 15.02,27.79 20.09,39.66l35.41 87.7c4.37,11.73 13.69,33.94 14.76,46.8l266.14 -0.01c14.94,-0.08 22.65,1.82 38,1.82 0,-46.59 -19.73,-114.85 -37.49,-159.84 -24.32,-61.64 -85.84,-211.63 -137.68,-256.98 -5.29,-4.62 -8.18,-4.91 -11.95,-11.58 -13.88,-24.56 -4.71,-19.45 -33.01,-41.21 -10.07,-7.74 -13.98,-17.56 -20.94,-27.94 -5.01,-7.48 -6.72,-6.59 -12.87,-12.48 -30.64,-29.32 -57.1,-55.04 -91.33,-80.65 -28.87,-21.59 -58.44,-39.95 -88.86,-59.59 -52.18,-33.68 -75.74,-43.54 -127.66,-69.67 -22.48,-11.31 -47.12,-18.59 -72.52,-27.06 -77.59,-25.87 -166.97,-45.94 -250.96,-45.94 -35.16,0 -60.97,-1.89 -95.96,-0.01 -71.9,3.87 -139.54,19.66 -207.8,38.41l-107.69 40.75c-12.08,5.18 -22.26,9.84 -33.87,15.01 -39.88,17.73 -120.23,67.35 -154.68,93.34 -9.98,7.52 -17.83,13.88 -27.66,21.21l-77.92 70.53c-8.79,8.77 -14.76,16.43 -23.57,25.31 -5.13,5.17 -6.56,8.5 -11.7,13.64 -16.55,16.53 -59.36,72.89 -76.38,95.6l-29.98 44.24c-13.7,20.58 -17.66,30.3 -28.22,47.81 -14.11,23.38 -23.78,63.04 -27.92,71.65z"/>
  </g>
  <path class="fil1" d="M219.43 3167.07c13.37,-4.94 26.45,-17.73 26.45,-40.69 0,-35.75 -29.94,-53.77 -76.44,-53.77l-128.75 0 -40.69 50.57 172.06 0c8.43,0 16.86,2.91 16.86,12.5 0,9.88 -8.14,13.08 -16.86,13.08l-172.06 0 0 118.29 170.9 0c61.32,0 79.05,-24.41 79.05,-56.67 0,-23.25 -13.66,-38.36 -30.52,-43.31zm-48.25 23.25c13.08,0 18.6,4.65 18.6,13.08 0,9.01 -5.52,13.66 -18.6,13.66l-110.73 0 0 -26.74 110.73 0zm169.15 26.74l0 -144.45 -60.16 0 0 194.44 171.77 0 38.95 -49.99 -150.55 0zm299.07 -147.64c-94.75,0 -142.12,30.81 -142.12,100.27 0,69.46 47.37,100.56 142.12,100.56 94.46,0 142.12,-31.1 142.12,-100.56 0,-69.46 -47.66,-100.27 -142.12,-100.27zm0 150.26c-60.45,0 -82.25,-8.14 -82.25,-49.99 0,-41.85 21.8,-49.7 82.25,-49.7 60.45,0 82.25,7.85 82.25,49.7 0,41.85 -21.8,49.99 -82.25,49.99zm256.63 -30.81l100.56 0 0 28.19 -73.53 0c-33.42,0 -57.26,-18.31 -57.26,-46.5 0,-27.61 24.71,-47.37 57.26,-47.37l100.27 0 38.95 -50.57 -139.22 0c-67.43,0 -117.13,38.36 -117.13,95.33 0,56.38 49.7,99.11 117.13,99.11l133.4 0 0 -121.49 -124.39 0 -36.04 43.3zm417.36 28.19c-32.84,0 -56.96,-18.89 -56.96,-46.5 0,-27.9 24.41,-47.37 56.96,-47.37l97.66 0 38.65 -50.57 -136.31 0c-67.43,0 -117.13,38.36 -117.13,95.33 0,56.38 49.7,99.11 117.13,99.11l97.66 0 38.65 -49.99 -136.31 0zm293.25 -147.64c-94.75,0 -142.12,30.81 -142.12,100.27 0,69.46 47.37,100.56 142.12,100.56 94.46,0 142.12,-31.1 142.12,-100.56 0,-69.46 -47.66,-100.27 -142.12,-100.27zm0 150.26c-60.45,0 -82.25,-8.14 -82.25,-49.99 0,-41.85 21.8,-49.7 82.25,-49.7 60.45,0 82.25,7.85 82.25,49.7 0,41.85 -21.8,49.99 -82.25,49.99zm267.38 -129.62c-6.97,-12.79 -17.44,-20.63 -32.84,-20.63 -15.11,0 -28.77,8.72 -34,26.74l-50.28 170.89 59 0 18.31 -67.72c5.81,-21.8 10.17,-38.07 13.08,-53.48 6.1,13.08 13.08,26.74 27.32,53.48l26.16 49.12c10.17,19.18 20.05,21.8 34.59,21.8 14.53,0 24.41,-2.62 34.59,-21.8l26.16 -48.83c13.37,-25.29 20.64,-40.11 27.03,-53.77 3.2,15.69 7.27,31.39 13.37,53.48l18.31 67.72 59.87 0 -49.12 -170.89c-5.23,-18.02 -18.6,-26.74 -33.71,-26.74 -15.69,0 -26.16,8.14 -33.13,20.63l-31.1 55.22c-17.15,29.94 -24.71,44.18 -31.1,57.84 -6.68,-13.66 -14.24,-28.19 -31.39,-58.13l-31.1 -54.93zm519.37 55.51c0,-43.31 -35.17,-72.95 -95.33,-72.95l-122.07 0 -39.82 50.57 167.41 0c18.6,0 29.35,8.43 29.35,22.09 0,13.37 -10.75,22.38 -29.35,22.38l-167.41 0 0 99.4 59.87 0 0 -49.7 101.72 0c60.45,0 95.62,-28.77 95.62,-71.79zm292.96 121.49l-121.49 -175.84c-8.43,-12.21 -20.34,-21.8 -38.36,-21.8 -18.89,0 -30.81,10.46 -38.94,21.8l-124.68 175.84 71.21 0 91.26 -129.04 34.88 51.44c6.39,9.3 14.53,21.22 19.76,28.19 -9.3,-0.58 -22.96,-0.58 -34.59,-0.58l-48.83 0 -36.33 49.99 226.12 0zm218.56 3.2c17.44,0 33.13,-10.75 33.13,-36.62l0 -161.01 -54.93 0 0 114.22 -119.16 -106.95c-9.59,-8.72 -16.86,-10.46 -24.12,-10.46 -17.15,0 -32.84,10.46 -32.84,36.33l0 161.3 54.64 0 0 -114.22 119.16 106.95c9.3,8.72 16.57,10.46 24.12,10.46zm271.45 -197.63l-44.18 53.77c-13.95,16.86 -20.64,25.28 -24.41,30.81 -4.07,-5.81 -20.35,-23.54 -26.45,-30.52l-46.5 -54.06 -77.31 0 118.58 129.91 0 64.52 60.45 0 0 -64.23 115.38 -130.21 -75.57 0z"/>
 </g>
</svg>
