<?xml version="1.0" encoding="UTF-8"?>
<!DOCTYPE svg PUBLIC "-//W3C//DTD SVG 1.1//EN" "http://www.w3.org/Graphics/SVG/1.1/DTD/svg11.dtd">
<!-- Creator: CorelDRAW 2021 (64-Bit) -->
<svg xmlns="http://www.w3.org/2000/svg" xml:space="preserve" width="25.9508mm" height="15.8317mm" version="1.1" style="shape-rendering:geometricPrecision; text-rendering:geometricPrecision; image-rendering:optimizeQuality; fill-rule:evenodd; clip-rule:evenodd"
viewBox="0 0 2595.08 1583.17"
 xmlns:xlink="http://www.w3.org/1999/xlink"
 xmlns:xodm="http://www.corel.com/coreldraw/odm/2003">
 <defs>
  <style type="text/css">
   <![CDATA[
    .fil0 {fill:#A63336}
   ]]>
  </style>
 </defs>
 <g id="Capa_x0020_1">
  <metadata id="CorelCorpID_0Corel-Layer"/>
  <g id="_2596037078832">
   <path class="fil0" d="M281.54 1582.9c18.58,-13.17 815.84,-814.57 888.87,-887.6 21.66,-21.65 41.08,-41.07 62.74,-62.73 14.59,-14.59 49.33,-54.3 64.39,-61.47l127.72 126.67c43.09,43.08 83.92,83.92 127,127 47.51,47.5 746.72,751.3 761.28,758.4 3.94,-11.76 184.47,-187.8 208.86,-212.19 17.58,-17.57 55.46,-59.61 72.68,-71.14l-1298.3 -1299.84c-19.69,12.91 -1116.9,1116.26 -1277.66,1276.11 -7.75,7.72 -16.09,12.37 -19.12,23.73l281.54 283.06z"/>
  </g>
 </g>
</svg>
